STARTFONT 2.1
FONT -HP-Pilgi-Bold-R-Normal--64-640-75-75-C-320-KSC5636.1989-0
SIZE 64 75 75
FONTBOUNDINGBOX 32 64 0 -6

STARTPROPERTIES 23
FONTNAME_REGISTRY ""
FOUNDRY "HP"
FAMILY_NAME "Pilgi"
WEIGHT_NAME "Bold"
SLANT "R"
SETWIDTH_NAME "Normal"
ADD_STYLE_NAME ""
PIXEL_SIZE 64
POINT_SIZE 640
RESOLUTION_X 75
RESOLUTION_Y 75
SPACING "C"
AVERAGE_WIDTH 320
CHARSET_REGISTRY "KSC5636.1989"
CHARSET_ENCODING "0"
COPYRIGHT "Copyright (c) 1994 Samsung Hewlett-Packard Company."
WEIGHT 200
X_HEIGHT 58
QUAD_WIDTH 32
_HP_ASXVERSION "@(#) ASX 3.00 $Revision: 13.9 $ pilB64a"
DEFAULT_CHAR 32
FONT_DESCENT 6
FONT_ASCENT 58
ENDPROPERTIES

CHARS 256

STARTCHAR CODE000
ENCODING 0
SWIDTH 451 0
DWIDTH 32 0
BBX 32 64 0 -6
BITMAP
00000000
00000000
00000000
00000000
00000000
00000000
00000000
00000000
00000000
00000000
00000000
00000000
00000000
00000000
00000000
00000000
00000000
00000000
00000000
00000000
00000000
00000000
00000000
00000000
00000000
00000000
00000000
00000000
00000000
00000000
00000000
00000000
00000000
00000000
00000000
00000000
00000000
00000000
00000000
00000000
00000000
00000000
00000000
00000000
00000000
00000000
00000000
00000000
00000000
00000000
00000000
00000000
00000000
00000000
00000000
00000000
00000000
00000000
00000000
00000000
00000000
00000000
00000000
00000000
ENDCHAR

STARTCHAR CODE001
ENCODING 1
SWIDTH 451 0
DWIDTH 32 0
BBX 32 64 0 -6
BITMAP
00000000
00000000
00000000
00000000
001FF000
007FFC00
01FFFF00
03F83F80
07E00FC0
078003E0
0F0001F0
1E0000F8
1E000078
3C00003C
3C00003C
3800001C
78F01E1E
71F83F0E
71F83F0E
F1F83F0F
F1F83F0F
E1F83F07
E0F01E07
E0000007
E0000007
E0000007
E0000007
E0000007
E0000007
E0000007
E0000007
E1800187
E38001C7
F3C003CF
F1C0038F
71E0078E
70F00F0E
78FC3F1E
387FFE1C
383FFC1C
3C1FF83C
1C07E038
1E000078
0E0000F0
0F0001F0
078003E0
07E007C0
03F81F80
01FFFF00
007FFE00
001FF800
00000000
00000000
00000000
00000000
00000000
00000000
00000000
00000000
00000000
00000000
00000000
00000000
00000000
ENDCHAR

STARTCHAR CODE002
ENCODING 2
SWIDTH 451 0
DWIDTH 32 0
BBX 32 64 0 -6
BITMAP
00000000
00000000
00000000
00000000
001FF000
007FFC00
01FFFF00
03FFFF80
07FFFFC0
0FFFFFE0
0FFFFFF0
1FFFFFF0
1FFFFFF8
3FFFFFF8
3FFFFFFC
3FFFFFFC
7FFFFFFE
7F3FF9FE
7E1FF0FE
7E1FF0FE
FE1FF0FF
FF3FF9FF
FFFFFFFF
FFFFFFFF
FFFFFFFF
FFFFFFFF
FFFFFFFF
FFFFFFFF
FFFFFFFF
FFFFFFFF
FFFFFFFF
FFFFFFFF
FFFFFFFF
FFFFFFFF
FEFFFF7F
7FFFFFFE
7F7FFEFE
7FBFFDFE
7FDFFBFE
3FE7E7FC
3FF00FFC
3FFC3FFC
1FFFFFF8
1FFFFFF8
0FFFFFF0
0FFFFFF0
07FFFFE0
03FFFFC0
01FFFF80
007FFE00
001FF800
00000000
00000000
00000000
00000000
00000000
00000000
00000000
00000000
00000000
00000000
00000000
00000000
00000000
ENDCHAR

STARTCHAR CODE003
ENCODING 3
SWIDTH 451 0
DWIDTH 32 0
BBX 32 64 0 -6
BITMAP
00000000
00000000
00000000
03E007C0
0FF81FF0
1FFC3FF8
3FFC3FF8
3FFE7FFC
7FFE7FFC
7FFFFFFE
7FFFFFFE
7FFFFFFE
FFFFFFFF
FFFFFFFF
FFFFFFFF
FFFFFFFF
FFFFFFFF
FFFFFFFF
FFFFFFFF
FFFFFFFF
FFFFFFFF
FFFFFFFF
FFFFFFFF
FFFFFFFF
7FFFFFFE
7FFFFFFE
7FFFFFFE
7FFFFFFE
3FFFFFFC
3FFFFFFC
3FFFFFFC
3FFFFFFC
1FFFFFF8
1FFFFFF8
1FFFFFF8
0FFFFFF0
0FFFFFF0
07FFFFE0
07FFFFE0
03FFFFC0
03FFFFC0
01FFFF80
01FFFF80
00FFFF00
00FFFF00
007FFE00
007FFE00
003FFC00
003FFC00
001FF800
001FF800
000FF000
000FF000
0007E000
0007E000
0003C000
00018000
00018000
00000000
00000000
00000000
00000000
00000000
00000000
ENDCHAR

STARTCHAR CODE004
ENCODING 4
SWIDTH 451 0
DWIDTH 32 0
BBX 32 64 0 -6
BITMAP
00000000
00018000
00018000
0003C000
0003C000
0007E000
0007E000
000FF000
000FF000
001FF800
001FF800
003FFC00
003FFC00
007FFE00
007FFE00
00FFFF00
00FFFF00
01FFFF80
01FFFF80
03FFFFC0
03FFFFC0
07FFFFE0
07FFFFE0
0FFFFFF0
0FFFFFF0
1FFFFFF8
1FFFFFF8
3FFFFFFC
3FFFFFFC
7FFFFFFE
FFFFFFFF
FFFFFFFF
7FFFFFFE
3FFFFFFC
3FFFFFFC
1FFFFFF8
1FFFFFF8
0FFFFFF0
0FFFFFF0
07FFFFE0
07FFFFE0
03FFFFC0
03FFFFC0
01FFFF80
01FFFF80
00FFFF00
00FFFF00
007FFE00
007FFE00
003FFC00
003FFC00
001FF800
001FF800
000FF000
000FF000
0007E000
0007E000
0003C000
0003C000
00018000
00018000
00000000
00000000
00000000
ENDCHAR

STARTCHAR CODE005
ENCODING 5
SWIDTH 451 0
DWIDTH 32 0
BBX 32 64 0 -6
BITMAP
00000000
00000000
00000000
00000000
0007E000
001FF800
003FFC00
003FFC00
007FFE00
007FFE00
007FFE00
00FFFF00
00FFFF00
00FFFF00
00FFFF00
00FFFF00
00FFFF00
00FFFF00
00FFFF00
007FFE00
007FFE00
007FFE00
007FFE00
07BFFDE0
1FFFFFF8
3FFFFFFC
3FFFFFFC
7FFFFFFE
7FFFFFFE
7FFFFFFE
FFFFFFFF
FFFFFFFF
FFFFFFFF
FFFFFFFF
FFFFFFFF
FFFFFFFF
FFFFFFFF
FFFFFFFF
FFFFFFFF
FFFFFFFF
FFFFFFFF
7FFFFFFE
7FFFFFFE
7FFBDFFE
3FFBDFFC
3FF3CFFC
1FE3C7F8
0783C1E0
0003C000
0007E000
0007E000
0007E000
0007E000
0007E000
000FF000
000FF000
000FF000
000FF000
00000000
00000000
00000000
00000000
00000000
00000000
ENDCHAR

STARTCHAR CODE006
ENCODING 6
SWIDTH 451 0
DWIDTH 32 0
BBX 32 64 0 -6
BITMAP
00000000
00018000
00018000
0003C000
0003C000
0007E000
0007E000
000FF000
001FF800
001FF800
003FFC00
007FFC00
007FFE00
00FFFF00
00FFFF00
01FFFF80
01FFFF80
03FFFFC0
03FFFFC0
07FFFFE0
07FFFFE0
0FFFFFF0
0FFFFFF0
1FFFFFF8
1FFFFFF8
1FFFFFF8
3FFFFFFC
3FFFFFFC
3FFFFFFC
7FFFFFFE
7FFFFFFE
7FFFFFFE
FFFFFFFF
FFFFFFFF
FFFFFFFF
FFFFFFFF
FFFFFFFF
FFFFFFFF
FFFFFFFF
FFFFFFFF
FFFFFFFF
FFFFFFFF
FFFFFFFF
7FFBDFFE
7FFBDFFE
3FF3CFFC
1FF7EFF8
07C7E3E0
0007E000
000FF000
000FF000
000FF000
001FF800
001FF800
001FF800
003FFC00
003FFC00
003FFC00
00000000
00000000
00000000
00000000
00000000
00000000
ENDCHAR

STARTCHAR CODE007
ENCODING 7
SWIDTH 451 0
DWIDTH 32 0
BBX 32 64 0 -6
BITMAP
00000000
00000000
00000000
00000000
00000000
00000000
00000000
00000000
00000000
00000000
00000000
00000000
00000000
00000000
00000000
00000000
00000000
00000000
001FF800
007FFE00
01FFFF80
03FFFFC0
07FFFFE0
07FFFFE0
0FFFFFF0
0FFFFFF0
0FFFFFF0
1FFFFFF8
1FFFFFF8
1FFFFFF8
1FFFFFF8
1FFFFFF8
1FFFFFF8
1FFFFFF8
1FFFFFF8
0FFFFFF0
0FFFFFF0
0FFFFFF0
07FFFFE0
07FFFFE0
03FFFFC0
01FFFF80
007FFE00
001FF800
00000000
00000000
00000000
00000000
00000000
00000000
00000000
00000000
00000000
00000000
00000000
00000000
00000000
00000000
00000000
00000000
00000000
00000000
00000000
00000000
ENDCHAR

STARTCHAR CODE008
ENCODING 8
SWIDTH 451 0
DWIDTH 32 0
BBX 32 64 0 -6
BITMAP
00000000
00000000
00000000
00000000
00000000
00000000
00000000
FFFFFFFF
FFFFFFFF
FFFFFFFF
FFFFFFFF
FFFFFFFF
FFFFFFFF
FFFFFFFF
FFFFFFFF
FFFFFFFF
FFFFFFFF
FFFFFFFF
FFFC7FFF
FFF01FFF
FFE00FFF
FFC007FF
FF8003FF
FF8003FF
FF0001FF
FF0001FF
FF0001FF
FE0000FF
FE0000FF
FE0000FF
FE0000FF
FE0000FF
FE0000FF
FE0000FF
FE0000FF
FF0001FF
FF0001FF
FF0001FF
FF8003FF
FF8003FF
FFC007FF
FFE00FFF
FFF01FFF
FFFC7FFF
FFFFFFFF
FFFFFFFF
FFFFFFFF
FFFFFFFF
FFFFFFFF
FFFFFFFF
FFFFFFFF
FFFFFFFF
FFFFFFFF
FFFFFFFF
FFFFFFFF
00000000
00000000
00000000
00000000
00000000
00000000
00000000
00000000
00000000
ENDCHAR

STARTCHAR CODE009
ENCODING 9
SWIDTH 451 0
DWIDTH 32 0
BBX 32 64 0 -6
BITMAP
00000000
00000000
00000000
00000000
00000000
00000000
00000000
00000000
00000000
00000000
00000000
00000000
00000000
00000000
00000000
00000000
00000000
00000000
000FE000
007FFC00
01FFFF00
03FFFF80
07F01FC0
0FC007E0
0F8003E0
1F0001F0
1E0000F0
1E0000F0
3E0000F8
3C000078
3C000078
3C000078
3C000078
3E0000F8
1E0000F0
1E0000F0
1F0001F0
0F8003E0
0FC007E0
07F01FC0
03FFFF80
01FFFF00
007FFC00
000FE000
00000000
00000000
00000000
00000000
00000000
00000000
00000000
00000000
00000000
00000000
00000000
00000000
00000000
00000000
00000000
00000000
00000000
00000000
00000000
00000000
ENDCHAR

STARTCHAR CODE010
ENCODING 10
SWIDTH 451 0
DWIDTH 32 0
BBX 32 64 0 -6
BITMAP
00000000
00000000
00000000
00000000
00000000
00000000
FFFFFFFF
FFFFFFFF
FFFFFFFF
FFFFFFFF
FFFFFFFF
FFFFFFFF
FFFFFFFF
FFFFFFFF
FFFFFFFF
FFFFFFFF
FFFFFFFF
FFF81FFF
FFE7E7FF
FFDFFBFF
FFBFFDFF
FFBFFDFF
FF7FFEFF
FF7FFEFF
FF7FFEFF
FF7FFEFF
FEFFFF7F
FEFFFF7F
FEFFFF7F
FEFFFF7F
FEFFFF7F
FEFFFF7F
FEFFFF7F
FEFFFF7F
FEFFFF7F
FF7FFEFF
FF7FFEFF
FF7FFEFF
FF7FFEFF
FFBFFDFF
FFBFFDFF
FFDFFBFF
FFE7E7FF
FFF81FFF
FFFFFFFF
FFFFFFFF
FFFFFFFF
FFFFFFFF
FFFFFFFF
FFFFFFFF
FFFFFFFF
FFFFFFFF
FFFFFFFF
FFFFFFFF
FFFFFFFF
FFFFFFFF
00000000
00000000
00000000
00000000
00000000
00000000
00000000
00000000
ENDCHAR

STARTCHAR CODE011
ENCODING 11
SWIDTH 451 0
DWIDTH 32 0
BBX 32 64 0 -6
BITMAP
00000000
00000000
00000000
00000000
00000000
00000000
00000000
00000003
0000000F
0000007F
000003FF
00001FFF
0000FFFF
0000FFFF
0000007F
0000007F
000000FF
000001FF
000001FF
000003E7
000007C7
000007C7
00000F83
00001F03
00001E00
00003E00
00007C00
00007800
0000F800
01F9F000
07FFF000
1FFFE000
3FBFE000
3E07E000
7801E000
7801F000
7800F000
F000F000
F000F000
F0007000
E0007000
E000F000
F000F000
F000F000
7000F000
7801E000
7801E000
3E07C000
3FBFC000
1FFF8000
0FFF0000
03FC0000
00000000
00000000
00000000
00000000
00000000
00000000
00000000
00000000
00000000
00000000
00000000
00000000
ENDCHAR

STARTCHAR CODE012
ENCODING 12
SWIDTH 451 0
DWIDTH 32 0
BBX 32 64 0 -6
BITMAP
00000000
00000000
00000000
000FF000
003FFC00
00FFFF00
01FFFF80
03F81FC0
03E007C0
07C003E0
07C001E0
0F8001F0
0F8000F0
0F0000F0
0F0000F0
0F0000F0
0F8000F0
078001F0
07C001E0
07C003E0
03F00FC0
03FC3FC0
01FFFF80
00FFFF00
003FFC00
000FE000
0003C000
0003C000
0003C000
0003C000
0003C000
0003C000
0003C000
FFFFFFFF
FFFFFFFF
FFFFFFFF
FFFFFFFF
0003C000
0003C000
0003C000
0003C000
0003C000
0003C000
0003C000
0003C000
0003C000
0003C000
0003C000
0003C000
0003C000
0003C000
0003C000
0003C000
0003C000
0003C000
0003C000
0003C000
0003C000
0003C000
00000000
00000000
00000000
00000000
00000000
ENDCHAR

STARTCHAR CODE013
ENCODING 13
SWIDTH 451 0
DWIDTH 32 0
BBX 32 64 0 -6
BITMAP
00000000
00000000
00000000
00000000
001E0000
001E0000
001E0000
001F0000
001F8000
001FC000
001FE000
001FF000
001FF800
001FFC00
001FFF00
001FFF80
001FFFC0
001FFFE0
001EFFF0
001E3FF8
001E1FFC
001E07FC
001E03FE
001E01FE
001E00FF
001E007F
001E003F
001E003F
001E001F
001E001F
001E001F
001E001F
001E001F
001E001E
001E003E
001E003E
001E007C
001E007C
001E00F8
001E01F0
001E03E0
001E03C0
001E0780
001E0F00
001E0E00
001E0000
01FE0000
07FE0000
1FFE0000
3FFE0000
7FFC0000
7FFC0000
FFF80000
FFF80000
FFF00000
FFE00000
FF800000
7E000000
00000000
00000000
00000000
00000000
00000000
00000000
ENDCHAR

STARTCHAR CODE014
ENCODING 14
SWIDTH 451 0
DWIDTH 32 0
BBX 32 64 0 -6
BITMAP
00000000
00000000
00000000
00000000
0000000F
0000007F
000003FF
00001FFF
0000FFFF
000FFFFF
00FFFFFF
00FFFFFF
00FFFFEF
00FFFF0F
00FFF80F
00FFC07F
00FE03FF
00F01FFF
00F0FFFF
00F7FFFF
00FFFFFF
00FFFFFF
00FFFFEF
00FFFF0F
00FFF80F
00FFC00F
00FE000F
00F0000F
00F0000F
00F0000F
00F0000F
00F0000F
00F0000F
00F0000F
00F0000F
00F0000F
00F0000F
00F0001F
00F0007F
00F000FF
00F001FF
00F003FF
00F003FF
00F007FE
00F007FE
03F007FE
0FF007FC
1FF007FC
3FF007F8
7FE007F0
7FE003C0
FFC00000
FFC00000
FF800000
FF800000
FF000000
FE000000
78000000
00000000
00000000
00000000
00000000
00000000
00000000
ENDCHAR

STARTCHAR CODE015
ENCODING 15
SWIDTH 451 0
DWIDTH 32 0
BBX 32 64 0 -6
BITMAP
00000000
00000000
0003C000
0003C000
0003C000
0003C000
0003C000
0003C000
0003C000
F003C00F
F803C01F
FC03C03F
7E0FF07E
3F3FFCFC
1FFFFFF8
0FFE7FF0
07F81FE0
03F00FC0
03E007C0
03E007C0
03C003C0
07C003E0
07C003E0
078001E0
078001E0
078001E0
0F8001F0
0F0000F0
0F0000F0
FF0000FF
FF0000FF
FF0000FF
FF0000FF
0F0000F0
0F0000F0
0F8000F0
078001E0
078001E0
078001E0
07C001E0
07C003E0
03C003C0
03E003C0
03E007C0
01F00F80
01F81F80
03FE7FC0
07FFFFE0
0FFFFFF0
1F8FF1F8
3F03C0FC
7E03C07E
FC03C03F
F803C01F
F003C00F
0003C000
0003C000
0003C000
0003C000
0003C000
00000000
00000000
00000000
00000000
ENDCHAR

STARTCHAR CODE016
ENCODING 16
SWIDTH 451 0
DWIDTH 32 0
BBX 32 64 0 -6
BITMAP
00000000
00000000
00000000
00000000
00000000
70000000
78000000
7C000000
7E000000
7F000000
7F800000
7FE00000
7FF00000
7FF80000
7FFC0000
7FFE0000
7FFF8000
7FFFC000
7FFFE000
7FFFF000
7FFFF800
7FFFFE00
7FFFFF00
7FFFFF80
7FFFFFC0
7FFFFFE0
7FFFFFF8
7FFFFFFC
7FFFFFFE
7FFFFFFF
7FFFFFFF
7FFFFFFF
7FFFFFFF
7FFFFFFE
7FFFFFFC
7FFFFFF8
7FFFFFE0
7FFFFFC0
7FFFFF80
7FFFFF00
7FFFFE00
7FFFF800
7FFFF000
7FFFE000
7FFFC000
7FFF8000
7FFE0000
7FFC0000
7FF80000
7FF00000
7FE00000
7F800000
7F000000
7E000000
7C000000
78000000
70000000
00000000
00000000
00000000
00000000
00000000
00000000
00000000
ENDCHAR

STARTCHAR CODE017
ENCODING 17
SWIDTH 451 0
DWIDTH 32 0
BBX 32 64 0 -6
BITMAP
00000000
00000000
00000000
00000000
00000000
00000007
0000000F
0000001F
0000003F
0000007F
000000FF
000003FF
000007FF
00000FFF
00001FFF
00003FFF
0000FFFF
0001FFFF
0003FFFF
0007FFFF
000FFFFF
003FFFFF
007FFFFF
00FFFFFF
01FFFFFF
03FFFFFF
0FFFFFFF
1FFFFFFF
3FFFFFFF
7FFFFFFF
FFFFFFFF
FFFFFFFF
7FFFFFFF
3FFFFFFF
1FFFFFFF
0FFFFFFF
03FFFFFF
01FFFFFF
00FFFFFF
007FFFFF
003FFFFF
000FFFFF
0007FFFF
0003FFFF
0001FFFF
0000FFFF
00003FFF
00001FFF
00000FFF
000007FF
000003FF
000000FF
0000007F
0000003F
0000001F
0000000F
00000007
00000000
00000000
00000000
00000000
00000000
00000000
00000000
ENDCHAR

STARTCHAR CODE018
ENCODING 18
SWIDTH 451 0
DWIDTH 32 0
BBX 32 64 0 -6
BITMAP
00000000
00000000
00018000
0003C000
0007E000
000FF000
001FF800
003FFC00
007FFE00
00FFFF00
01FBDF80
03E3C7C0
0383C1C0
0003C000
0003C000
0003C000
0003C000
0003C000
0003C000
0003C000
0003C000
0003C000
0003C000
0003C000
0003C000
0003C000
0003C000
0003C000
0003C000
0003C000
0003C000
0003C000
0003C000
0003C000
0003C000
0003C000
0003C000
0003C000
0003C000
0003C000
0003C000
0003C000
0003C000
0003C000
0003C000
0003C000
0003C000
0003C000
0003C000
0383C1C0
03E3C7C0
01FBDF80
00FFFF00
007FFE00
003FFC00
001FF800
000FF000
0007E000
0003C000
00018000
00000000
00000000
00000000
00000000
ENDCHAR

STARTCHAR CODE019
ENCODING 19
SWIDTH 451 0
DWIDTH 32 0
BBX 32 64 0 -6
BITMAP
00000000
00000000
00000000
00000000
00000000
00000000
00700E00
00F81F00
00F81F00
00F81F00
00F81F00
00F81F00
00F81F00
00F81F00
00F81F00
00F81F00
00F81F00
00F81F00
00F81F00
00F81F00
00F81F00
00F81F00
00F81F00
00F81F00
00F81F00
00F81F00
00F81F00
00F81F00
00F81F00
00F81F00
00F81F00
00F81F00
00700E00
00700E00
00700E00
00700E00
00700E00
00700E00
00700E00
00000000
00000000
00000000
00000000
00000000
00700E00
00F81F00
00F81F00
00F81F00
00F81F00
00700E00
00000000
00000000
00000000
00000000
00000000
00000000
00000000
00000000
00000000
00000000
00000000
00000000
00000000
00000000
ENDCHAR

STARTCHAR CODE020
ENCODING 20
SWIDTH 451 0
DWIDTH 32 0
BBX 32 64 0 -6
BITMAP
00000000
00000000
00000000
000FFFFE
007FFFFE
01FFFFFE
07FFFFFE
0FFFFFFE
1FF1F03E
3FC1F03E
3F01F03E
7E01F03E
7C01F03E
F801F03E
F801F03E
F001F03E
F001F03E
F001F03E
F801F03E
F801F03E
FC01F03E
7E01F03E
7F01F03E
3FC1F03E
1FF1F03E
0FFFF03E
07FFF03E
01FFF03E
007FF03E
000FF03E
0001F03E
0001F03E
0001F03E
0001F03E
0001F03E
0001F03E
0001F03E
0001F03E
0001F03E
0001F03E
0001F03E
0001F03E
0001F03E
0001F03E
0001F03E
0001F03E
0001F03E
0001F03E
0001F03E
0001F03E
0001F03E
0001F03E
0001F03E
0001F03E
0001F03E
0001F03E
0001F03E
0001F03E
0001F03E
00000000
00000000
00000000
00000000
00000000
ENDCHAR

STARTCHAR CODE021
ENCODING 21
SWIDTH 451 0
DWIDTH 32 0
BBX 32 64 0 -6
BITMAP
00000000
00000000
00000000
00000000
00000000
00000038
003FF038
00FFFE38
03FFFFB8
0FF01FF8
0FC007F8
1F8001F8
1F0000F8
3F00007C
3E00003C
3E00003C
3F00001C
3F00001C
3F8FE00C
1FFFF800
1FFFFC00
0FFFFE00
0FFC7E00
07FC1F00
03FF0F00
03FFCF80
03FFF780
03FFFF80
03FFFF80
03E7FF80
01F1FFC0
01F87FE0
00FE7FF0
007FFFF0
003FFBF8
000FF1F8
000000FC
600000FC
6000007C
7000007C
7000007C
7800007C
7C00007C
7E0000F8
7F0000F8
7FC001F8
7FE007F0
7FF81FE0
79FFFFC0
787FFF00
781FF800
78000000
00000000
00000000
00000000
00000000
00000000
00000000
00000000
00000000
00000000
00000000
00000000
00000000
ENDCHAR

STARTCHAR CODE022
ENCODING 22
SWIDTH 451 0
DWIDTH 32 0
BBX 32 64 0 -6
BITMAP
00000000
00000000
00000000
00000000
00000000
00000000
00000000
00000000
00000000
00000000
00000000
00000000
00000000
00000000
00000000
00000000
00000000
00000000
FFFFFFFF
FFFFFFFF
FFFFFFFF
FFFFFFFF
FFFFFFFF
FFFFFFFF
FFFFFFFF
FFFFFFFF
FFFFFFFF
FFFFFFFF
FFFFFFFF
FFFFFFFF
FFFFFFFF
FFFFFFFF
FFFFFFFF
FFFFFFFF
FFFFFFFF
FFFFFFFF
FFFFFFFF
FFFFFFFF
FFFFFFFF
FFFFFFFF
FFFFFFFF
FFFFFFFF
FFFFFFFF
00000000
00000000
00000000
00000000
00000000
00000000
00000000
00000000
00000000
00000000
00000000
00000000
00000000
00000000
00000000
00000000
00000000
00000000
00000000
00000000
00000000
ENDCHAR

STARTCHAR CODE023
ENCODING 23
SWIDTH 451 0
DWIDTH 32 0
BBX 32 64 0 -6
BITMAP
00000000
00000000
00018000
0003C000
0007E000
000FF000
001FF800
003FFC00
007FFE00
00FFFF00
01FBDF80
03E3C7C0
0383C1C0
0003C000
0003C000
0003C000
0003C000
0003C000
0003C000
0003C000
0003C000
0003C000
0003C000
0003C000
0003C000
0003C000
0003C000
0003C000
0003C000
0003C000
0003C000
0003C000
0003C000
0003C000
0003C000
0003C000
0003C000
0003C000
0003C000
0003C000
0003C000
0003C000
0003C000
0003C000
0003C000
0383C1C0
03E3C7C0
01FBDF80
00FFFF00
007FFE00
003FFC00
001FF800
000FF000
0007E000
0003C000
00018000
FFFFFFFF
FFFFFFFF
FFFFFFFF
FFFFFFFF
00000000
00000000
00000000
00000000
ENDCHAR

STARTCHAR CODE024
ENCODING 24
SWIDTH 451 0
DWIDTH 32 0
BBX 32 64 0 -6
BITMAP
00000000
00000000
00018000
0003C000
0007E000
000FF000
001FF800
003FFC00
007FFE00
00FFFF00
01FBDF80
03E3C7C0
0383C1C0
0003C000
0003C000
0003C000
0003C000
0003C000
0003C000
0003C000
0003C000
0003C000
0003C000
0003C000
0003C000
0003C000
0003C000
0003C000
0003C000
0003C000
0003C000
0003C000
0003C000
0003C000
0003C000
0003C000
0003C000
0003C000
0003C000
0003C000
0003C000
0003C000
0003C000
0003C000
0003C000
0003C000
0003C000
0003C000
0003C000
0003C000
0003C000
0003C000
0003C000
0003C000
0003C000
0003C000
0003C000
0003C000
0003C000
0003C000
00000000
00000000
00000000
00000000
ENDCHAR

STARTCHAR CODE025
ENCODING 25
SWIDTH 451 0
DWIDTH 32 0
BBX 32 64 0 -6
BITMAP
00000000
00000000
0003C000
0003C000
0003C000
0003C000
0003C000
0003C000
0003C000
0003C000
0003C000
0003C000
0003C000
0003C000
0003C000
0003C000
0003C000
0003C000
0003C000
0003C000
0003C000
0003C000
0003C000
0003C000
0003C000
0003C000
0003C000
0003C000
0003C000
0003C000
0003C000
0003C000
0003C000
0003C000
0003C000
0003C000
0003C000
0003C000
0003C000
0003C000
0003C000
0003C000
0003C000
0003C000
0003C000
0003C000
0003C000
0003C000
0003C000
0383C1C0
03E3C7C0
01FBDF80
00FFFF00
007FFE00
003FFC00
001FF800
000FF000
0007E000
0003C000
00018000
00000000
00000000
00000000
00000000
ENDCHAR

STARTCHAR CODE026
ENCODING 26
SWIDTH 451 0
DWIDTH 32 0
BBX 32 64 0 -6
BITMAP
00000000
00000000
00000000
00000000
00000000
00000000
00000000
00000000
00000000
00000000
00000000
00000000
00000000
00000000
00000000
00000000
00000000
00000000
00000000
00000000
00000000
00000600
00000700
00000780
000003C0
000003E0
000001F0
000001F8
000000FC
FFFFFFFE
FFFFFFFF
FFFFFFFF
FFFFFFFE
000000FC
000001F8
000001F0
000003E0
000003C0
00000780
00000700
00000600
00000000
00000000
00000000
00000000
00000000
00000000
00000000
00000000
00000000
00000000
00000000
00000000
00000000
00000000
00000000
00000000
00000000
00000000
00000000
00000000
00000000
00000000
00000000
ENDCHAR

STARTCHAR CODE027
ENCODING 27
SWIDTH 451 0
DWIDTH 32 0
BBX 32 64 0 -6
BITMAP
00000000
00000000
00000000
00000000
00000000
00000000
00000000
00000000
00000000
00000000
00000000
00000000
00000000
00000000
00000000
00000000
00000000
00000000
00000000
00000000
00000000
00600000
00E00000
01E00000
03C00000
07C00000
0F800000
1F800000
3F000000
7FFFFFFF
FFFFFFFF
FFFFFFFF
7FFFFFFF
3F000000
1F800000
0F800000
07C00000
03C00000
01E00000
00E00000
00600000
00000000
00000000
00000000
00000000
00000000
00000000
00000000
00000000
00000000
00000000
00000000
00000000
00000000
00000000
00000000
00000000
00000000
00000000
00000000
00000000
00000000
00000000
00000000
ENDCHAR

STARTCHAR CODE028
ENCODING 28
SWIDTH 451 0
DWIDTH 32 0
BBX 32 64 0 -6
BITMAP
00000000
00000000
00000000
00000000
00000000
00000000
00000000
00000000
00000000
00000000
00000000
00000000
00000000
00000000
00000000
F0000000
F0000000
F0000000
F0000000
F0000000
F0000000
F0000000
F0000000
F0000000
F0000000
F0000000
F0000000
F0000000
F0000000
F0000000
F0000000
F0000000
F0000000
F0000000
F0000000
F0000000
F0000000
F0000000
F0000000
F0000000
F0000000
F0000000
F0000000
F0000000
FFFFFFFF
FFFFFFFF
FFFFFFFF
FFFFFFFF
00000000
00000000
00000000
00000000
00000000
00000000
00000000
00000000
00000000
00000000
00000000
00000000
00000000
00000000
00000000
00000000
ENDCHAR

STARTCHAR CODE029
ENCODING 29
SWIDTH 451 0
DWIDTH 32 0
BBX 32 64 0 -6
BITMAP
00000000
00000000
00000000
00000000
00000000
00000000
00000000
00000000
00000000
00000000
00000000
00000000
00000000
00000000
00000000
00000000
00000000
00000000
00000000
00000000
00000000
00000000
00C00180
01C001C0
03C001E0
078000F0
0F8000F8
1F00007C
3F00007E
7FFFFFFF
FFFFFFFF
FFFFFFFF
7FFFFFFF
3F00007E
1F00007C
0F8000F8
078000F0
03C001E0
01C001C0
00C00180
00000000
00000000
00000000
00000000
00000000
00000000
00000000
00000000
00000000
00000000
00000000
00000000
00000000
00000000
00000000
00000000
00000000
00000000
00000000
00000000
00000000
00000000
00000000
00000000
ENDCHAR

STARTCHAR CODE030
ENCODING 30
SWIDTH 451 0
DWIDTH 32 0
BBX 32 64 0 -6
BITMAP
00000000
00000000
00000000
00000000
00000000
00000000
00000000
00000000
00000000
00000000
00000000
00000000
00000000
00018000
00018000
0003C000
0003C000
0007E000
0007E000
0007E000
000FF000
000FF000
001FF800
001FF800
001FF800
003FFC00
003FFC00
003FFC00
007FFE00
007FFE00
00FFFF00
00FFFF00
00FFFF00
01FFFF80
01FFFF80
01FFFF80
03FFFFC0
03FFFFC0
07FFFFE0
07FFFFE0
07FFFFE0
0FFFFFF0
0FFFFFF0
0FFFFFF0
1FFFFFF8
1FFFFFF8
3FFFFFFC
3FFFFFFC
3FFFFFFC
7FFFFFFE
7FFFFFFE
FFFFFFFF
FFFFFFFF
00000000
00000000
00000000
00000000
00000000
00000000
00000000
00000000
00000000
00000000
00000000
ENDCHAR

STARTCHAR CODE031
ENCODING 31
SWIDTH 451 0
DWIDTH 32 0
BBX 32 64 0 -6
BITMAP
00000000
00000000
00000000
00000000
00000000
00000000
00000000
00000000
00000000
00000000
00000000
FFFFFFFF
FFFFFFFF
7FFFFFFE
7FFFFFFE
3FFFFFFC
3FFFFFFC
3FFFFFFC
1FFFFFF8
1FFFFFF8
0FFFFFF0
0FFFFFF0
0FFFFFF0
07FFFFE0
07FFFFE0
07FFFFE0
03FFFFC0
03FFFFC0
01FFFF80
01FFFF80
01FFFF80
00FFFF00
00FFFF00
00FFFF00
007FFE00
007FFE00
003FFC00
003FFC00
003FFC00
001FF800
001FF800
001FF800
000FF000
000FF000
0007E000
0007E000
0007E000
0003C000
0003C000
00018000
00018000
00000000
00000000
00000000
00000000
00000000
00000000
00000000
00000000
00000000
00000000
00000000
00000000
00000000
ENDCHAR

STARTCHAR CODE032
ENCODING 32
SWIDTH 451 0
DWIDTH 32 0
BBX 32 64 0 -6
BITMAP
00000000
00000000
00000000
00000000
00000000
00000000
00000000
00000000
00000000
00000000
00000000
00000000
00000000
00000000
00000000
00000000
00000000
00000000
00000000
00000000
00000000
00000000
00000000
00000000
00000000
00000000
00000000
00000000
00000000
00000000
00000000
00000000
00000000
00000000
00000000
00000000
00000000
00000000
00000000
00000000
00000000
00000000
00000000
00000000
00000000
00000000
00000000
00000000
00000000
00000000
00000000
00000000
00000000
00000000
00000000
00000000
00000000
00000000
00000000
00000000
00000000
00000000
00000000
00000000
ENDCHAR

STARTCHAR CODE033
ENCODING 33
SWIDTH 451 0
DWIDTH 32 0
BBX 32 64 0 -6
BITMAP
00000000
00000000
00000000
00000000
00000000
00000000
00000000
00000000
00001E00
00001E00
00003E00
00003E00
00003E00
00007E00
00007E00
00007C00
00007C00
0000FC00
0000F800
0000F800
0001F800
0001F800
0001F000
0003F000
0003F000
0003E000
0003E000
0007E000
0007C000
0007C000
000FC000
000FC000
000F8000
001F8000
001F8000
001F0000
003F0000
003F0000
003E0000
007E0000
007E0000
007C0000
007C0000
007C0000
00780000
00000000
00000000
01E00000
01E00000
03E00000
03E00000
03E00000
03C00000
03C00000
00000000
00000000
00000000
00000000
00000000
00000000
00000000
00000000
00000000
00000000
ENDCHAR

STARTCHAR CODE034
ENCODING 34
SWIDTH 451 0
DWIDTH 32 0
BBX 32 64 0 -6
BITMAP
00000000
00000000
00000000
00000000
00000000
00000000
000E0E00
001F1F00
001F1F00
001F1F00
001F1F00
001F1F00
001F1F00
001F3F00
003F3E00
003E7E00
007E7E00
00FCFC00
00FCFC00
00F8F800
00707000
00000000
00000000
00000000
00000000
00000000
00000000
00000000
00000000
00000000
00000000
00000000
00000000
00000000
00000000
00000000
00000000
00000000
00000000
00000000
00000000
00000000
00000000
00000000
00000000
00000000
00000000
00000000
00000000
00000000
00000000
00000000
00000000
00000000
00000000
00000000
00000000
00000000
00000000
00000000
00000000
00000000
00000000
00000000
ENDCHAR

STARTCHAR CODE035
ENCODING 35
SWIDTH 451 0
DWIDTH 32 0
BBX 32 64 0 -6
BITMAP
00000000
00000000
00000000
00000000
00000000
00000000
00000000
00000000
00000000
00000000
00000000
00000000
00000000
00000000
00000000
00000000
00000000
00000000
00079E00
00079E00
00079E00
000F9E00
000FBE00
000F3C00
000F3C00
000F3C00
000F3C00
000F3C00
000F7C00
07FFFE00
FFFFFFFF
FFFFFFFF
FFFFFFFF
FC1E7BFF
07FFF800
FFFFFFFF
FFFFFFFF
FFFFFFFF
FC3CF7FF
003CF000
003CF000
003CF000
003CF000
003CF000
003CF000
003CF000
003CF000
003CF000
003CF000
003CF000
003CF000
003CF000
00000000
00000000
00000000
00000000
00000000
00000000
00000000
00000000
00000000
00000000
00000000
00000000
ENDCHAR

STARTCHAR CODE036
ENCODING 36
SWIDTH 451 0
DWIDTH 32 0
BBX 32 64 0 -6
BITMAP
00000000
00000000
00000000
00000000
00000000
00000000
00000000
00000000
00000000
00000000
00000000
00000000
00000000
00000E00
00001E00
00001E00
0001FF80
0007FFE0
001FFFF0
003FFFF8
007FFCF8
007F7C78
00FC7878
00F878F8
00F8F8F8
00F0F1F8
00F0F7F0
00F3FFF0
00FBFFE0
00FBFFC0
007FFE00
007FC000
003FC000
001FC000
000FC000
0007E000
0007F000
000FF800
078FFC00
0F8F7C00
0F1E3E00
1E1E3E00
1E1E1F00
1E1E1F00
1E3C1F00
1F3C1F00
1F3C3F00
1FBC7E00
0FF9FE00
0FFFFC00
07FFF800
03FFF000
00FF8000
00F00000
00F00000
00700000
00000000
00000000
00000000
00000000
00000000
00000000
00000000
00000000
ENDCHAR

STARTCHAR CODE037
ENCODING 37
SWIDTH 451 0
DWIDTH 32 0
BBX 32 64 0 -6
BITMAP
00000000
00000000
00000000
00000000
00000000
00000000
00000000
00000000
00000000
00000000
00000000
00000000
000000E0
01E000F0
03F801F0
07F801F0
0FFC01F0
1F7C03E0
1E3C03E0
3E3C07E0
3C3C07C0
3C3C0FC0
7C3C0F80
783C1F80
783C1F00
783C3E00
78783E00
78787C00
7878FC00
7CF0F800
3FF1F000
3FE3F000
1FC3E1F0
0F87E1FC
0007C7FC
000F8FFE
000F9F3E
001F1E1E
001F1E1E
003E3C1E
003C3C1E
007C3C1E
007C3C1E
00F83C1E
00F83C3C
01F03C3C
01F03C3C
01F03E78
03E01FF8
03E01FF0
03E00FE0
03C007C0
03C00000
00000000
00000000
00000000
00000000
00000000
00000000
00000000
00000000
00000000
00000000
00000000
ENDCHAR

STARTCHAR CODE038
ENCODING 38
SWIDTH 451 0
DWIDTH 32 0
BBX 32 64 0 -6
BITMAP
00000000
00000000
00000000
00000000
00000000
00000000
00000000
00000000
00000000
00000000
007F0000
01FF8000
03FFC000
03FFC000
07E7E000
07C3E000
07C3E000
07C1E000
07C1E000
07C1E000
07C3E000
07C7E000
07EFC000
03FFC000
03FF8000
01FF0000
03FC0000
07F80000
0FF801FE
0FF8FFFF
1F7DFFFF
3E7DFFFF
3E7DFFFE
3C3EFF00
7C3E1F00
7C1F1F00
781F1F00
781F9E00
780F9E00
780FFE00
7807FE00
7807FE00
7C03FC00
7C03FC00
7C01FC00
3E01FC00
3F03FC00
3FCFFF00
1FFFFFFC
0FFFFFFE
07FFDFFE
03FF8FFE
007C03FC
00000000
00000000
00000000
00000000
00000000
00000000
00000000
00000000
00000000
00000000
00000000
ENDCHAR

STARTCHAR CODE039
ENCODING 39
SWIDTH 451 0
DWIDTH 32 0
BBX 32 64 0 -6
BITMAP
00000000
00000000
00000000
00000000
00000000
00000000
00007000
0000F800
0000F800
0000F800
0000F800
0000F800
0001F800
0001F000
0001F000
0003F000
0003E000
0007E000
000FC000
000F8000
000F0000
00000000
00000000
00000000
00000000
00000000
00000000
00000000
00000000
00000000
00000000
00000000
00000000
00000000
00000000
00000000
00000000
00000000
00000000
00000000
00000000
00000000
00000000
00000000
00000000
00000000
00000000
00000000
00000000
00000000
00000000
00000000
00000000
00000000
00000000
00000000
00000000
00000000
00000000
00000000
00000000
00000000
00000000
00000000
ENDCHAR

STARTCHAR CODE040
ENCODING 40
SWIDTH 451 0
DWIDTH 32 0
BBX 32 64 0 -6
BITMAP
00000000
00000000
00000000
000000E0
000001E0
000003E0
000007E0
00000FC0
00001F80
00001F00
00003F00
00007E00
00007C00
0000FC00
0001F800
0001F000
0003F000
0003E000
0007E000
0007C000
0007C000
000F8000
000F8000
000F8000
001F0000
001F0000
001F0000
003F0000
003E0000
003E0000
003E0000
003E0000
007C0000
007C0000
007C0000
007C0000
007C0000
00780000
00780000
00780000
00780000
00780000
00780000
00780000
00780000
00780000
00780000
00780000
00780000
00780000
00780000
00780000
007C0000
007C0000
003C0000
003C0000
003C0000
003E0000
001E0000
001F0000
000F0000
00000000
00000000
00000000
ENDCHAR

STARTCHAR CODE041
ENCODING 41
SWIDTH 451 0
DWIDTH 32 0
BBX 32 64 0 -6
BITMAP
00000000
00000000
00000000
00078000
0007C000
0003C000
0003E000
0001E000
0001E000
0001E000
0001F000
0001F000
0000F000
0000F000
0000F000
0000F000
0000F000
0000F000
0000F000
0000F000
0000F000
0000F000
0000F000
0000F000
0000F000
0000F000
0000F000
0001F000
0001F000
0001F000
0001F000
0001F000
0003E000
0003E000
0003E000
0003E000
0007E000
0007C000
0007C000
0007C000
000F8000
000F8000
000F8000
001F0000
001F0000
003F0000
003E0000
007E0000
007C0000
00FC0000
01F80000
01F00000
03F00000
07E00000
07C00000
0FC00000
1F800000
3F000000
3E000000
3C000000
38000000
00000000
00000000
00000000
ENDCHAR

STARTCHAR CODE042
ENCODING 42
SWIDTH 451 0
DWIDTH 32 0
BBX 32 64 0 -6
BITMAP
00000000
00000000
00000000
00000000
00000000
00000000
00000000
00000000
00000000
00000000
00000000
00000000
00000000
00000000
00000000
00000000
00000000
00000000
00000000
00000000
00000000
00000000
0000E000
0001E000
0001E000
00F1E000
00F9E000
00FDE000
00FFE3C0
003FFFC0
001FFFC0
000FFF80
001FFE00
003FE000
007FF000
007EF800
00FCFC00
00F87C00
00F87C00
00703C00
00000000
00000000
00000000
00000000
00000000
00000000
00000000
00000000
00000000
00000000
00000000
00000000
00000000
00000000
00000000
00000000
00000000
00000000
00000000
00000000
00000000
00000000
00000000
00000000
ENDCHAR

STARTCHAR CODE043
ENCODING 43
SWIDTH 451 0
DWIDTH 32 0
BBX 32 64 0 -6
BITMAP
00000000
00000000
00000000
00000000
00000000
00000000
00000000
00000000
00000000
00000000
00000000
00000000
00000000
00000000
00000000
00000000
00000000
00000000
0001E000
0001E000
0001E000
0001E000
0001E000
0001E000
0003E000
0003C000
0003C000
0003C000
0003C000
00FFFFE0
07FFFFF8
0FFFFFF8
0FFFFFF8
0FC3C078
0E03C000
0003C000
0003C000
0003C000
0003E000
0001E000
0001E000
0001E000
0001E000
0001E000
00000000
00000000
00000000
00000000
00000000
00000000
00000000
00000000
00000000
00000000
00000000
00000000
00000000
00000000
00000000
00000000
00000000
00000000
00000000
00000000
ENDCHAR

STARTCHAR CODE044
ENCODING 44
SWIDTH 451 0
DWIDTH 32 0
BBX 32 64 0 -6
BITMAP
00000000
00000000
00000000
00000000
00000000
00000000
00000000
00000000
00000000
00000000
00000000
00000000
00000000
00000000
00000000
00000000
00000000
00000000
00000000
00000000
00000000
00000000
00000000
00000000
00000000
00000000
00000000
00000000
00000000
00000000
00000000
00000000
00000000
00000000
00000000
00000000
00000000
00000000
00000000
00000000
00000000
00000000
00000000
00000000
00000000
00000000
00000000
00700000
00F80000
00F80000
00F80000
00F80000
00F80000
00F80000
00F80000
01F80000
01F00000
03F00000
07F00000
07E00000
07C00000
07000000
00000000
00000000
ENDCHAR

STARTCHAR CODE045
ENCODING 45
SWIDTH 451 0
DWIDTH 32 0
BBX 32 64 0 -6
BITMAP
00000000
00000000
00000000
00000000
00000000
00000000
00000000
00000000
00000000
00000000
00000000
00000000
00000000
00000000
00000000
00000000
00000000
00000000
00000000
00000000
00000000
00000000
00000000
00000000
00000000
00000000
00000000
00000000
00000000
000FFF80
03FFFFF8
07FFFFFC
07FFFFFC
07FFFFFC
03F800F8
00000000
00000000
00000000
00000000
00000000
00000000
00000000
00000000
00000000
00000000
00000000
00000000
00000000
00000000
00000000
00000000
00000000
00000000
00000000
00000000
00000000
00000000
00000000
00000000
00000000
00000000
00000000
00000000
00000000
ENDCHAR

STARTCHAR CODE046
ENCODING 46
SWIDTH 451 0
DWIDTH 32 0
BBX 32 64 0 -6
BITMAP
00000000
00000000
00000000
00000000
00000000
00000000
00000000
00000000
00000000
00000000
00000000
00000000
00000000
00000000
00000000
00000000
00000000
00000000
00000000
00000000
00000000
00000000
00000000
00000000
00000000
00000000
00000000
00000000
00000000
00000000
00000000
00000000
00000000
00000000
00000000
00000000
00000000
00000000
00000000
00000000
00000000
00000000
00000000
00000000
00000000
00000000
00000000
07000000
0F800000
0F800000
0F800000
0F800000
1F800000
1F000000
1F000000
1F000000
0E000000
00000000
00000000
00000000
00000000
00000000
00000000
00000000
ENDCHAR

STARTCHAR CODE047
ENCODING 47
SWIDTH 451 0
DWIDTH 32 0
BBX 32 64 0 -6
BITMAP
00000000
00000000
00000000
00000000
00000000
00000000
00000000
00000070
000000F8
000001F8
000001F8
000003F8
000003F0
000007F0
000007E0
00000FE0
00000FC0
00001FC0
00001F80
00003F00
00003F00
00007E00
00007E00
0000FC00
0000FC00
0001F800
0001F800
0003F000
0003F000
0007E000
0007E000
000FC000
001FC000
001F8000
003F8000
003F0000
007F0000
007E0000
00FE0000
00FC0000
01FC0000
01F80000
03F80000
03F00000
03F00000
07E00000
07E00000
0FE00000
0FC00000
0FC00000
1F800000
1F800000
1F000000
3F000000
3F000000
3E000000
1E000000
00000000
00000000
00000000
00000000
00000000
00000000
00000000
ENDCHAR

STARTCHAR CODE048
ENCODING 48
SWIDTH 451 0
DWIDTH 32 0
BBX 32 64 0 -6
BITMAP
00000000
00000000
00000000
00000000
00000000
00000000
00000000
00000000
00000000
00000000
00000000
00000000
00000000
00000000
00000000
00000000
00000000
00000000
00000000
0001F000
0007FC00
000FFE00
001FFF00
003F7F00
007E1F80
007C0F80
00F80F80
00F807C0
01F007C0
01F007C0
01E007C0
03E007C0
03E007C0
03C007C0
03C007C0
07C007C0
07C00780
07C00780
07C00F80
07C00F80
07C00F00
07C01F00
07C01F00
03E03E00
03E03E00
03F07C00
01F8FC00
01FFF800
00FFF000
007FE000
003FC000
000F0000
00000000
00000000
00000000
00000000
00000000
00000000
00000000
00000000
00000000
00000000
00000000
00000000
ENDCHAR

STARTCHAR CODE049
ENCODING 49
SWIDTH 451 0
DWIDTH 32 0
BBX 32 64 0 -6
BITMAP
00000000
00000000
00000000
00000000
00000000
00000000
00000000
00000000
00000000
00000000
00000000
00000000
00000000
00000000
00000000
00000000
00000000
00001C00
00003E00
0000FE00
0001FE00
0007FE00
000FFC00
003FFC00
01FFF800
01FFF800
01FDF800
00F1F000
0001F000
0003F000
0003E000
0003E000
0003E000
0007E000
0007C000
0007C000
0007C000
000FC000
000F8000
000F8000
000F8000
000F8000
001F0000
001F0000
001F0000
001F0000
001F0000
001E0000
001E0000
001E0000
000E0000
00000000
00000000
00000000
00000000
00000000
00000000
00000000
00000000
00000000
00000000
00000000
00000000
00000000
ENDCHAR

STARTCHAR CODE050
ENCODING 50
SWIDTH 451 0
DWIDTH 32 0
BBX 32 64 0 -6
BITMAP
00000000
00000000
00000000
00000000
00000000
00000000
00000000
00000000
00000000
00000000
00000000
00000000
00000000
00000000
00000000
00000000
00000000
00000000
0001F800
000FFE00
001FFF00
003FFF80
007FFF80
00FF0FC0
00FC07C0
00F807C0
007007C0
003007C0
00000FC0
00001F80
00003F80
00007F00
0001FE00
0003FC00
0007F800
000FF000
001FE000
003FC000
007F8000
007F0000
00FE0000
01FC0000
03F80000
07F00000
07E00000
0FDFFC00
1FFFFE00
1FFFFE00
1FFFFE00
1FFE0E00
0FE00000
00000000
00000000
00000000
00000000
00000000
00000000
00000000
00000000
00000000
00000000
00000000
00000000
00000000
ENDCHAR

STARTCHAR CODE051
ENCODING 51
SWIDTH 451 0
DWIDTH 32 0
BBX 32 64 0 -6
BITMAP
00000000
00000000
00000000
00000000
00000000
00000000
00000000
00000000
00000000
00000000
00000000
00000000
00000000
00000000
00000000
00000000
00000000
00000000
003FE000
00FFF800
01FFFC00
01FFFC00
01F87E00
00E03E00
00003E00
00007E00
00007E00
0001FC00
0007FC00
003FF800
007FE000
007FF800
007FFC00
0071FC00
00007E00
00003E00
00003E00
00003F00
00001F00
00001F00
07001F00
0F801E00
0F803E00
0F803E00
0FC07E00
0FC0FC00
07E3FC00
07FFF800
03FFF000
01FFE000
007F8000
00000000
00000000
00000000
00000000
00000000
00000000
00000000
00000000
00000000
00000000
00000000
00000000
00000000
ENDCHAR

STARTCHAR CODE052
ENCODING 52
SWIDTH 451 0
DWIDTH 32 0
BBX 32 64 0 -6
BITMAP
00000000
00000000
00000000
00000000
00000000
00000000
00000000
00000000
00000000
00000000
00000000
00000000
00000000
00000000
00000000
00000000
00000000
00000F00
00001F80
00007F80
0000FF80
0000FF80
0001FF80
0003FF80
0007EF00
000FDF00
001F9F00
001F1F00
003E3E00
007C3E00
00FC3E00
00F87C00
01F07C00
03F07FC0
07FFFFE0
07FFFFE0
07FFFFE0
07FFF800
07FDF800
03C1F000
0001F000
0001F000
0001F000
0003F000
0003F000
0003E000
0003E000
0003E000
0003E000
0003E000
0003E000
0001C000
00000000
00000000
00000000
00000000
00000000
00000000
00000000
00000000
00000000
00000000
00000000
00000000
ENDCHAR

STARTCHAR CODE053
ENCODING 53
SWIDTH 451 0
DWIDTH 32 0
BBX 32 64 0 -6
BITMAP
00000000
00000000
00000000
00000000
00000000
00000000
00000000
00000000
00000000
00000000
00000000
00000000
00000000
00000000
00000000
00000000
00000000
00000000
003FFFC0
003FFFC0
003FFFC0
003FFFC0
003E0000
003E0000
007E0000
007C0000
00FC0000
00F80000
01F80000
01FFE000
01FFF800
01FFFC00
01FFFE00
01FCFE00
00F03F00
00001F00
00001F00
00000F00
00000F00
07801F00
07801F00
07801F00
07803F00
07C03E00
07C07E00
03E0FC00
03F3FC00
03FFF800
01FFF000
00FFE000
003F8000
00000000
00000000
00000000
00000000
00000000
00000000
00000000
00000000
00000000
00000000
00000000
00000000
00000000
ENDCHAR

STARTCHAR CODE054
ENCODING 54
SWIDTH 451 0
DWIDTH 32 0
BBX 32 64 0 -6
BITMAP
00000000
00000000
00000000
00000000
00000000
00000000
00000000
00000000
00000000
00000000
00000000
00000000
00000000
00000000
00000000
00000000
00000000
00000000
00000000
00003E00
0000FE00
0001FE00
0003FC00
0007F000
000FE000
001FC000
003F8000
007F0000
007E0000
00FDF800
01FFFE00
01FFFF00
03FFFF80
03FF1F80
03FC0F80
07F00FC0
07E007C0
07C007C0
07C007C0
07C007C0
07C007C0
07C00FC0
07C00F80
03E00F80
03E01F80
03F03F00
01F87F00
01FFFE00
00FFFC00
007FF800
003FF000
00078000
00000000
00000000
00000000
00000000
00000000
00000000
00000000
00000000
00000000
00000000
00000000
00000000
ENDCHAR

STARTCHAR CODE055
ENCODING 55
SWIDTH 451 0
DWIDTH 32 0
BBX 32 64 0 -6
BITMAP
00000000
00000000
00000000
00000000
00000000
00000000
00000000
00000000
00000000
00000000
00000000
00000000
00000000
00000000
00000000
00000000
00000000
00000000
00000F80
0003FFC0
01FFFFC0
01FFFFC0
01FFFFC0
01FF8FC0
00001F80
00001F00
00003E00
00007E00
00007C00
0000FC00
0000F800
0001F800
0001F000
0003E000
0003E000
0007E000
0007C000
000FC000
000F8000
000F8000
001F0000
001F0000
003F0000
003E0000
003E0000
007E0000
007C0000
007C0000
007C0000
007C0000
00780000
00780000
00000000
00000000
00000000
00000000
00000000
00000000
00000000
00000000
00000000
00000000
00000000
00000000
ENDCHAR

STARTCHAR CODE056
ENCODING 56
SWIDTH 451 0
DWIDTH 32 0
BBX 32 64 0 -6
BITMAP
00000000
00000000
00000000
00000000
00000000
00000000
00000000
00000000
00000000
00000000
00000000
00000000
00000000
00000000
00000000
00000000
00000000
0007F000
001FFC00
003FFE00
007FFE00
007C3F00
00F81F00
00F81F00
00FC3F00
007E3F00
007FFE00
003FFE00
001FFC00
000FF800
000FF000
001FF800
007FFC00
00FF7E00
01FE3E00
03F83F00
03F01F00
07E01F80
07E00F80
0FC00F80
0FC00F80
0F800F80
0F800F80
0FC01F80
0FC01F00
0FE07F00
07FFFE00
07FFFC00
03FFF800
01FFF000
007FC000
00000000
00000000
00000000
00000000
00000000
00000000
00000000
00000000
00000000
00000000
00000000
00000000
00000000
ENDCHAR

STARTCHAR CODE057
ENCODING 57
SWIDTH 451 0
DWIDTH 32 0
BBX 32 64 0 -6
BITMAP
00000000
00000000
00000000
00000000
00000000
00000000
00000000
00000000
00000000
00000000
00000000
00000000
00000000
00000000
00000000
00000000
0007F000
001FFC00
003FFE00
007FFF00
00FF7F80
00FC1F80
01F80F80
01F00FC0
01E007C0
03E007C0
03E007C0
03C007C0
03C007C0
03C007C0
03C007C0
03E007C0
03E00FC0
01F03F80
01FC7F80
00FFFF80
007FFF80
003FFF00
0007DF00
00003F00
00003E00
00007E00
00007C00
0000FC00
0001F800
0001F000
0003F000
0007E000
000FC000
000F8000
000F0000
00000000
00000000
00000000
00000000
00000000
00000000
00000000
00000000
00000000
00000000
00000000
00000000
00000000
ENDCHAR

STARTCHAR CODE058
ENCODING 58
SWIDTH 451 0
DWIDTH 32 0
BBX 32 64 0 -6
BITMAP
00000000
00000000
00000000
00000000
00000000
00000000
00000000
00000000
00000000
00000000
00000000
00000000
00000000
00000000
00000000
00000000
00000000
00000000
00000000
00000000
00000000
00000000
0001E000
0001F000
0001F000
0003F000
0003F000
0003E000
0003E000
0001E000
00000000
00000000
00000000
00000000
00000000
00000000
00000000
00000000
00078000
0007C000
0007C000
000FC000
000FC000
000FC000
000F8000
00078000
00000000
00000000
00000000
00000000
00000000
00000000
00000000
00000000
00000000
00000000
00000000
00000000
00000000
00000000
00000000
00000000
00000000
00000000
ENDCHAR

STARTCHAR CODE059
ENCODING 59
SWIDTH 451 0
DWIDTH 32 0
BBX 32 64 0 -6
BITMAP
00000000
00000000
00000000
00000000
00000000
00000000
00000000
00000000
00000000
00000000
00000000
00000000
00000000
00000000
00000000
00000000
00000000
00000000
00000000
00000000
00000000
00000000
0000E000
0001F000
0001F000
0003F000
0003F000
0003E000
0003E000
0001C000
00000000
00000000
00000000
00000000
00000000
00000000
00000000
00000000
00038000
0007C000
0007C000
0007C000
0007C000
0007C000
0007C000
000F8000
000F8000
000F8000
001F0000
003F0000
007E0000
007E0000
007C0000
00380000
00000000
00000000
00000000
00000000
00000000
00000000
00000000
00000000
00000000
00000000
ENDCHAR

STARTCHAR CODE060
ENCODING 60
SWIDTH 451 0
DWIDTH 32 0
BBX 32 64 0 -6
BITMAP
00000000
00000000
00000000
00000000
00000000
00000000
00000000
00000000
00000000
00000000
00000000
00000000
00000000
00000000
00000000
00000C00
00003E00
00007E00
0000FE00
0001FE00
0001FC00
0003F800
0007F000
000FE000
001FC000
003F8000
007F0000
00FE0000
00FC0000
01FC0000
03F80000
03F00000
03E00000
03E00000
01E00000
01F00000
01F00000
00F00000
00F80000
00F80000
00780000
007C0000
007C0000
003E0000
003E0000
001F0000
001F0000
001F8000
000F8000
000FC000
0007C000
0007E000
0007E000
0003F000
0003F000
0001F000
0000F000
00006000
00000000
00000000
00000000
00000000
00000000
00000000
ENDCHAR

STARTCHAR CODE061
ENCODING 61
SWIDTH 451 0
DWIDTH 32 0
BBX 32 64 0 -6
BITMAP
00000000
00000000
00000000
00000000
00000000
00000000
00000000
00000000
00000000
00000000
00000000
00000000
00000000
00000000
00000000
00000000
00000000
00000000
00000000
00000000
00000000
00000000
00000000
00000000
00000000
003FFFC0
1FFFFFF8
3FFFFFFC
3FFFFFFC
3FFFFFFC
1FE00078
00000000
00000000
007FFFE0
1FFFFFF8
3FFFFFFC
3FFFFFFC
3FFFFFFC
1FC00078
00000000
00000000
00000000
00000000
00000000
00000000
00000000
00000000
00000000
00000000
00000000
00000000
00000000
00000000
00000000
00000000
00000000
00000000
00000000
00000000
00000000
00000000
00000000
00000000
00000000
ENDCHAR

STARTCHAR CODE062
ENCODING 62
SWIDTH 451 0
DWIDTH 32 0
BBX 32 64 0 -6
BITMAP
00000000
00000000
00000000
00000000
00000000
00000000
00000000
00000000
00000000
00000000
00000000
00000000
00000000
00000000
00000000
000F0000
000F0000
000F8000
000F8000
0007C000
0007C000
0003E000
0003E000
0003E000
0001F000
0001F000
0001F000
0000F800
0000F800
0000F800
00007C00
00007C00
00007C00
00003E00
00003E00
00003F00
00001F00
00001F00
00001F00
00003F00
00007F00
0000FE00
0001FC00
0003F800
000FF000
001FE000
003FC000
007F8000
00FF0000
01FE0000
03FC0000
03F80000
07F00000
0FE00000
0FC00000
0F800000
0F000000
00000000
00000000
00000000
00000000
00000000
00000000
00000000
ENDCHAR

STARTCHAR CODE063
ENCODING 63
SWIDTH 451 0
DWIDTH 32 0
BBX 32 64 0 -6
BITMAP
00000000
00000000
00000000
00000000
00000000
00000000
00000000
00000000
0007FC00
001FFF00
007FFF80
00FFCFC0
01FE03C0
03FC03E0
03F001E0
07E001E0
07C001E0
078003E0
078003E0
030007C0
00000FC0
00003F80
00007F00
0000FE00
0001FC00
0003F800
0007F000
000FE000
001FC000
003F8000
003F0000
007E0000
007E0000
00FC0000
00F80000
00F80000
00F80000
00F80000
00F80000
00F80000
00700000
00000000
00000000
00000000
00000000
00000000
00F00000
01F80000
01F80000
03F80000
03F80000
03F00000
03F00000
01E00000
00000000
00000000
00000000
00000000
00000000
00000000
00000000
00000000
00000000
00000000
ENDCHAR

STARTCHAR CODE064
ENCODING 64
SWIDTH 451 0
DWIDTH 32 0
BBX 32 64 0 -6
BITMAP
00000000
00000000
00000000
00000000
00000000
00000000
00000000
00000000
0007FF00
001FFFC0
003FFFE0
007FFFF0
00FF07F8
01FC01F8
03F800FC
07F0007C
07E0007C
0FC0FE3E
0F83FF3E
1F87FFBE
1F0FFFBE
1F0FCFBE
3E1F8FBE
3E1F1FBE
3E3E1F3E
3C3E3F3E
7C7C3F3E
7C7C3E3E
7CF87E3E
7CF87C3E
7CF8FC3E
7DF0FC7C
7DF1F87C
7DF1F87C
7DE3F87C
7DE3F078
7DE7F0F8
7DFFF0F8
7DFFF1F0
7DFFFBF0
3DFEFFE0
3EFC7FC0
3E787FC0
3F003F00
1F800000
1FC00000
0FE01E00
07F03E00
03FFFE00
01FFFE00
00FFFC00
003FF000
00000000
00000000
00000000
00000000
00000000
00000000
00000000
00000000
00000000
00000000
00000000
00000000
ENDCHAR

STARTCHAR CODE065
ENCODING 65
SWIDTH 451 0
DWIDTH 32 0
BBX 32 64 0 -6
BITMAP
00000000
00000000
00000000
00000000
00000000
00000000
000000E0
000003F0
000007F0
00000FF0
00000FF0
00001FF0
00003FF0
00007FF0
00007FF0
0000FDF0
0001F9F0
0001F1F0
0003F1F0
0003E1F0
0007E1F0
0007C1F0
000FC1F0
000F81E0
001F81E0
001F01E0
003F01FE
003E03FF
007E3FFF
007DFFFF
00FFFFFE
01FFFFF0
0FFFFDF0
7FFFE1F0
FFFE01F0
FFF001F0
FFF001F0
7FE001F0
07E001F0
07E001F0
07C001F0
0FC001F0
0FC001F0
0F8001F8
1F8000F8
1F8000F8
1F0000F8
1F0000F8
3F0000FC
3E00007C
3E00007E
3E00007E
3E00003E
1C00003C
00000000
00000000
00000000
00000000
00000000
00000000
00000000
00000000
00000000
00000000
ENDCHAR

STARTCHAR CODE066
ENCODING 66
SWIDTH 451 0
DWIDTH 32 0
BBX 32 64 0 -6
BITMAP
00000000
00000000
00000000
00000000
00000000
00000000
00000000
000FFF00
003FFFC0
01FFFFE0
07FFFFF0
0FFF07F0
0FFF01F8
0FDF00F8
073E00F8
003E0078
007E00F8
007C00F8
007C01F8
00FC03F0
00F807F0
00F81FE0
01F87FC0
01FFFF00
01FFFE00
03FFF800
03FFF000
03FFFC00
07FFFE00
07C0FF00
07C03F80
07C00FC0
07C007C0
0F8003E0
0F8003E0
0F8001E0
0F8001E0
1F0001E0
1F0001E0
1F0001E0
1F0003E0
1F0003E0
1F0003E0
3E0007E0
3E0007C0
3E000FC0
3E001FC0
3F003F80
3FE1FF00
3FFFFE00
3FFFFC00
1FFFF000
1E1F8000
0E000000
00000000
00000000
00000000
00000000
00000000
00000000
00000000
00000000
00000000
00000000
ENDCHAR

STARTCHAR CODE067
ENCODING 67
SWIDTH 451 0
DWIDTH 32 0
BBX 32 64 0 -6
BITMAP
00000000
00000000
00000000
00000000
00000000
00000000
00000000
00003FC0
0000FFE0
0001FFF0
0003FFF0
0007F0F0
000FE078
000FC078
001F8078
003F0078
003F0078
007E00F8
007C00F8
00FC01F0
00F803F0
01F807F0
01F00FE0
03F00FC0
03E00FC0
03E00F80
07E00700
07C00000
07C00000
0F800000
0F800000
0F800000
0F800000
1F000000
1F000000
1F000070
1F000070
1F000070
1F0000F0
1F0000F0
1F0001E0
1F0001E0
1F0003E0
1F8007C0
1F8007C0
0F800F80
0FC01F80
0FC03F00
07E0FE00
07FFFC00
03FFF800
01FFF000
00FFE000
003F8000
00000000
00000000
00000000
00000000
00000000
00000000
00000000
00000000
00000000
00000000
ENDCHAR

STARTCHAR CODE068
ENCODING 68
SWIDTH 451 0
DWIDTH 32 0
BBX 32 64 0 -6
BITMAP
00000000
00000000
00000000
00000000
00000000
00000000
00000000
00000000
001FFC00
00FFFF00
03FFFF80
07FF1FC0
0FF807E0
1FFC03F0
1FFC01F0
0FFC00F8
0FF800F8
00F80078
01F8007C
01F0007C
01F0007C
01F0007C
03F0007C
03E0007C
03E0007C
03E0007C
07E0007C
07C000FC
07C000FC
07C000FC
07C000F8
0FC001F8
0F8001F8
0F8003F0
0F8003F0
0F8003F0
0F8007E0
1F0007E0
1F000FC0
1F000FC0
1F001F80
1F003F80
1F003F00
3E007E00
3E00FE00
3E01FC00
3E03F800
3E0FF000
3E3FE000
3FFFC000
1FFF8000
1FFE0000
0FF80000
07E00000
00000000
00000000
00000000
00000000
00000000
00000000
00000000
00000000
00000000
00000000
ENDCHAR

STARTCHAR CODE069
ENCODING 69
SWIDTH 451 0
DWIDTH 32 0
BBX 32 64 0 -6
BITMAP
00000000
00000000
00000000
00000000
00000000
00000000
00001FFC
0007FFFE
007FFFFE
00FFFFFE
00FFFF80
00FFC000
007E0000
007E0000
007E0000
007C0000
00FC0000
00F80000
00F80000
01F80000
01F00000
01F00000
03E00000
03E1FE00
03FFFF00
07FFFF00
07FFFF00
07FFFE00
07F80000
0F800000
0F800000
0F800000
1F800000
1F000000
1F000000
1F000000
1F000000
3E000000
3E000000
3E000000
3E000000
3C000000
7C000000
7C0FFC00
7C7FFE00
7FFFFE00
7FFFFE00
7FFFFC00
7FFC0000
7FC00000
3E000000
1C000000
00000000
00000000
00000000
00000000
00000000
00000000
00000000
00000000
00000000
00000000
00000000
00000000
ENDCHAR

STARTCHAR CODE070
ENCODING 70
SWIDTH 451 0
DWIDTH 32 0
BBX 32 64 0 -6
BITMAP
00000000
00000000
00000000
00000000
00000000
00000000
000007FE
0000FFFF
000FFFFF
007FFFFF
007FFFFE
007FF000
007F0000
003F0000
003E0000
007E0000
007C0000
007C0000
00F80000
00F80000
00F80000
01F00000
01F00000
01F3FE00
03FFFF00
03FFFF00
03FFFF00
03FFFE00
07FF0000
07E00000
07C00000
0FC00000
0F800000
0F800000
0F800000
0F800000
1F000000
1F000000
1F000000
1F000000
3F000000
3E000000
3E000000
3E000000
3E000000
3E000000
3E000000
3E000000
3E000000
3E000000
3C000000
1C000000
00000000
00000000
00000000
00000000
00000000
00000000
00000000
00000000
00000000
00000000
00000000
00000000
ENDCHAR

STARTCHAR CODE071
ENCODING 71
SWIDTH 451 0
DWIDTH 32 0
BBX 32 64 0 -6
BITMAP
00000000
00000000
00000000
00000000
00000000
00000000
00003F00
0000FF80
0003FFC0
0007FFE0
000FF9E0
001FE1F0
003F80F0
007F00F0
00FE01F0
00FC01F0
01F801F0
03F003F0
03F003F0
07E007E0
07C00FE0
0FC01FC0
0F801FC0
0F803F80
1F803F00
1F001E00
1F000000
1F000000
3E000000
3E0001E0
3E001FF0
3E00FFF0
3E01FFF0
3E01FFF0
3E01FDF0
3E00F1F0
3E0003F0
3E0007E0
3E0007E0
1F000FE0
1F001FE0
1F003FE0
0F807FE0
0FC1FFE0
07E7FFC0
07FFF7C0
03FFE7C0
01FF8FC0
007E0FC0
00000FC0
00000F80
00000F80
00000F80
00000F80
00000F80
00000780
00000780
00000000
00000000
00000000
00000000
00000000
00000000
00000000
ENDCHAR

STARTCHAR CODE072
ENCODING 72
SWIDTH 451 0
DWIDTH 32 0
BBX 32 64 0 -6
BITMAP
00000000
00000000
00000000
00000000
000E0000
001F0000
001F000E
001F001F
001F001F
003F001F
003F001F
003F003F
003E003F
007E003E
007E007E
007C007E
007C007C
00FC00FC
00FC00FC
00F800F8
01F801F8
01F801F8
01F001F0
01F003F0
03F003FF
03E00FFF
03E07FFF
07E3FFFF
07DFFFFC
07FFFFC0
07FFF7C0
3FFF8FC0
FFFC0FC0
FFE00F80
FF800F80
FF801F80
EF801F80
0F001F00
1F001F00
1F001F00
1F001F00
1F003F00
1F003F00
3E003E00
3E003E00
3E003E00
3E003E00
3E003E00
3E003E00
3E003E00
3E003E00
3E003E00
3E001C00
1C000000
00000000
00000000
00000000
00000000
00000000
00000000
00000000
00000000
00000000
00000000
ENDCHAR

STARTCHAR CODE073
ENCODING 73
SWIDTH 451 0
DWIDTH 32 0
BBX 32 64 0 -6
BITMAP
00000000
00000000
00000000
00000000
00000000
00000000
00000000
00000700
00000F80
00000F80
00001F80
00001F80
00003F80
00003F00
00003F00
00007E00
00007E00
00007E00
0000FC00
0000FC00
0000F800
0000F800
0001F000
0001F000
0001F000
0001E000
0003E000
0003E000
0003C000
0007C000
0007C000
0007C000
000F8000
000F8000
000F8000
000F8000
000F0000
001F0000
001F0000
001F0000
001F0000
001F0000
003E0000
003E0000
003E0000
003E0000
003E0000
003E0000
003E0000
003E0000
003C0000
001C0000
00000000
00000000
00000000
00000000
00000000
00000000
00000000
00000000
00000000
00000000
00000000
00000000
ENDCHAR

STARTCHAR CODE074
ENCODING 74
SWIDTH 451 0
DWIDTH 32 0
BBX 32 64 0 -6
BITMAP
00000000
00000000
00000000
00000000
00000000
00000000
000001FE
00007FFF
0007FFFF
000FFFFF
000FFFFE
000FFFE0
0007E7C0
000007C0
000007C0
000007C0
00000FC0
00000F80
00000F80
00000F80
00001F80
00001F80
00001F80
00001F00
07001F00
0F003F00
0F003F00
1E003F00
3E003E00
3C003E00
7C007E00
7C007E00
F8007C00
F8007C00
F800FC00
F000FC00
F000F800
F000F800
F001F800
F001F800
F001F000
F801F000
F803F000
F803E000
FC07E000
7E0FC000
7FBFC000
3FFF8000
1FFF0000
0FFE0000
03F80000
00000000
00000000
00000000
00000000
00000000
00000000
00000000
00000000
00000000
00000000
00000000
00000000
00000000
ENDCHAR

STARTCHAR CODE075
ENCODING 75
SWIDTH 451 0
DWIDTH 32 0
BBX 32 64 0 -6
BITMAP
00000000
00000000
00000000
00000000
00000000
00180000
003C0000
003C0000
003C0000
003C000E
007C003F
007C00FF
007C03FF
007C07FE
007C1FF8
00F83FE0
00F87F80
00F9FF00
00FBFC00
01FFF800
01FFE000
01FFC000
03FF8000
03FF0000
03FE0000
07FE0000
07FE0000
07DE0000
0FDE0000
0F9E0000
0F9E0000
1F9E0000
1F9F0000
1F1F0000
3F1F0000
3F1F0000
3E1F0000
3E1F0000
7E1F00E0
7C0F00E0
7C0F81E0
7C0F81E0
7C0F81E0
FC0F81E0
FC07C1C0
F807C3C0
F807EFC0
F803FF80
F803FF80
F801FF00
F800FC00
F8000000
70000000
00000000
00000000
00000000
00000000
00000000
00000000
00000000
00000000
00000000
00000000
00000000
ENDCHAR

STARTCHAR CODE076
ENCODING 76
SWIDTH 451 0
DWIDTH 32 0
BBX 32 64 0 -6
BITMAP
00000000
00000000
00000000
00000000
00000000
00000000
00000000
00000000
00000E00
00001F00
00001F00
00003F00
00003E00
00007E00
00007E00
0000FC00
0000FC00
0001F800
0001F800
0003F000
0003F000
0007E000
0007E000
0007C000
000FC000
000F8000
001F8000
001F0000
003F0000
003E0000
003E0000
007E0000
007C0000
007C0000
00FC0000
00F80000
00F80000
00F00000
00F00000
01F00000
01F00000
01F00000
01E00000
01E00000
03E0FF80
03E7FFC0
03FFFFC0
03FFFFC0
03FFE000
03FF8000
01FC0000
00F00000
00000000
00000000
00000000
00000000
00000000
00000000
00000000
00000000
00000000
00000000
00000000
00000000
ENDCHAR

STARTCHAR CODE077
ENCODING 77
SWIDTH 451 0
DWIDTH 32 0
BBX 32 64 0 -6
BITMAP
00000000
00000000
00000000
00000000
00000000
0000001E
000F003F
001F807F
003F807F
003F80FF
007F80FF
007F81FF
00FF81FF
00FF83FF
01FF83FF
01FF83FF
03FF07FE
03FF07FE
03DF07BE
07DF0FBE
07FF0FBC
07BE0F7C
0FBE1F7C
0FBE1E7C
0FBE1E7C
1F3E3E7C
1F3E3C78
1F3E3CF8
1F3C3CF8
1E3C7CF8
3E3C78F8
3E3C78F8
3E3CF8F8
3E3CF0F8
7C3EF0F0
7C3FF0F0
7C3FF0F0
7C3FE0F0
7C3FE0F0
7C1FE0F0
FC1FC0F0
F81FC0F0
F80F80F0
F80000F0
F80000F0
F80000F8
F80000F8
F80000FC
F800007C
F000007C
F000007C
F000003C
F000003C
F0000000
60000000
00000000
00000000
00000000
00000000
00000000
00000000
00000000
00000000
00000000
ENDCHAR

STARTCHAR CODE078
ENCODING 78
SWIDTH 451 0
DWIDTH 32 0
BBX 32 64 0 -6
BITMAP
00000000
00000000
00000000
00000000
00000000
0000000E
0000000F
0007801F
000F801F
001FC01F
001FC01F
003FC03E
003F803E
007F803E
007F807C
00FF807C
00FF007C
00FF0078
01FF00F8
01EF00F8
01EF00F0
03CF01F0
03CF01F0
03CF01E0
078F01E0
078F01E0
078F83E0
0F0F83C0
0F0F83C0
0F0F83C0
0F0787C0
1E078780
1E078780
1E078780
1E078780
3C07CF80
3C07CF00
3C07CF00
3C03CF00
7C03CF00
7803FF00
7803FF00
7803FF00
F801FF00
F801FF00
F801FF00
F801FE00
F800FE00
F800FE00
F800FE00
F0007C00
F0007C00
F0003800
70000000
00000000
00000000
00000000
00000000
00000000
00000000
00000000
00000000
00000000
00000000
ENDCHAR

STARTCHAR CODE079
ENCODING 79
SWIDTH 451 0
DWIDTH 32 0
BBX 32 64 0 -6
BITMAP
00000000
00000000
00000000
00000000
00000000
00000000
00000000
000FFC00
003FFF00
00FFFFC0
01FFFFE0
03FFFFF0
03FFC3F0
01FFC1F8
000F81F8
001F80FC
003F00FC
003E007C
007E007C
00FC007C
00F8007C
01F8007C
01F0007C
03F0007C
03E0007C
03E0007C
07C000F8
07C000F8
0FC000F8
0F8000F8
0F8001F0
0F8001F0
1F0001F0
1F0003F0
1F0003E0
1E0003E0
3E0007C0
3E0007C0
3E000FC0
3E000F80
3E001F80
3E001F00
3E003F00
3E003E00
1E007C00
1F01FC00
1F01F800
1F87F000
0FFFF000
0FFFE000
07FFC000
03FF0000
00FC0000
00000000
00000000
00000000
00000000
00000000
00000000
00000000
00000000
00000000
00000000
00000000
ENDCHAR

STARTCHAR CODE080
ENCODING 80
SWIDTH 451 0
DWIDTH 32 0
BBX 32 64 0 -6
BITMAP
00000000
00000000
00000000
00000000
00000000
00000000
00000000
00387E00
007FFF80
007FFFC0
007FFFE0
01FFFFF0
03FF87F0
07FE01F8
0FF800F8
0FF800FC
1FF8007C
1FF8007C
0EF8007C
00F0007C
00F0007C
00F000FC
01F000F8
01F001F8
01F001F8
01E003F0
03E007F0
03E00FE0
03E03FC0
1FE1FF80
1FFFFF00
1FFFFE00
1FFFF800
07FFE000
07C00000
0F800000
0F800000
0F800000
0F800000
0F800000
1F000000
1F000000
1F000000
1F000000
1F000000
1F000000
1F000000
3E000000
3E000000
3E000000
3E000000
3E000000
3E000000
1C000000
00000000
00000000
00000000
00000000
00000000
00000000
00000000
00000000
00000000
00000000
ENDCHAR

STARTCHAR CODE081
ENCODING 81
SWIDTH 451 0
DWIDTH 32 0
BBX 32 64 0 -6
BITMAP
00000000
00000000
00000000
00000000
00000000
00000000
00000000
003FFC00
00FFFF00
03FFFF80
03FFFFC0
03FFDFE0
01FF83F0
001F81F0
001F00F8
003F00F8
007E00F8
007C007C
00FC007C
00F8007C
01F0007C
03F0007C
03E0007C
07E0007C
07C0007C
07C000FC
0F8000FC
0F8000F8
0F8000F8
1F0001F8
1F0001F8
1F0001F0
1E0003F0
1E0003F0
3E0007E0
3E0007E0
3E000FC0
3DF00FC0
3FFC1F80
3FFE1F80
3FFF3F00
3FBFFF00
3E0FFE00
3C0FFC00
3E07FC00
3E03F800
3F07F000
1F9FF000
1FFFF000
1FFFF800
0FFFF800
07FEFC00
01F07E00
00007E00
00003F1C
00001F3C
00001FFC
00000FFC
000007F8
000001E0
00000000
00000000
00000000
00000000
ENDCHAR

STARTCHAR CODE082
ENCODING 82
SWIDTH 451 0
DWIDTH 32 0
BBX 32 64 0 -6
BITMAP
00000000
00000000
00000000
00000000
00000000
00000000
00180000
003DFF00
003FFFC0
003FFFF0
00FFFFF8
01FFE3F8
03FF00FC
03FC007C
03FC007C
03FC003C
007C003C
0078003C
0078003C
00F8007C
00F8007C
00F000FC
01F000F8
01F001F8
01E003F0
01E00FF0
03E03FE0
0FE3FFC0
0FFFFF80
0FFFFE00
0FFFF800
0FFF8000
0FE00000
0FE00000
0FF00000
0FF00000
1FF80000
1F7C0000
1F3E0000
1F3F0000
1E1F0000
3E0F8000
3E07C000
3E07E000
3E03E000
3E01F000
3C01F800
7C00FC00
7C007E00
7C003E00
7C003F00
3C001F00
38000F00
00000000
00000000
00000000
00000000
00000000
00000000
00000000
00000000
00000000
00000000
00000000
ENDCHAR

STARTCHAR CODE083
ENCODING 83
SWIDTH 451 0
DWIDTH 32 0
BBX 32 64 0 -6
BITMAP
00000000
00000000
00000000
00000000
00000000
00000000
00000000
00003FE0
0000FFF8
0003FFFC
0007FFFC
000FF87C
001FE03C
003F803C
007F007C
007E007C
00FC00FC
00F800F8
00F801F8
00F803F0
00F00FF0
00F03FE0
00F0FFC0
00F8FF80
0078FE00
00787800
007C0000
003E0000
003E0000
001F0000
000F8000
000FC000
0007E000
0003F000
0001F800
0000FC00
00007E00
07803E00
0FC03F00
1FC01F00
1F801F80
3E000F80
3E000F80
3E000F80
3E001F80
1F001F80
1F803F80
1FE0FF00
0FFFFF00
07FFFE00
01FFFC00
007FF000
00000000
00000000
00000000
00000000
00000000
00000000
00000000
00000000
00000000
00000000
00000000
00000000
ENDCHAR

STARTCHAR CODE084
ENCODING 84
SWIDTH 451 0
DWIDTH 32 0
BBX 32 64 0 -6
BITMAP
00000000
00000000
00000000
00000000
00000000
00000000
00000000
0000FFFF
001FFFFF
01FFFFFF
0FFFFFFF
7FFFFC00
FFFFC000
FFE7C000
FF0FC000
780FC000
000F8000
001F8000
001F0000
001F0000
003F0000
003E0000
003E0000
007E0000
007C0000
007C0000
00FC0000
00F80000
00F80000
00F80000
01F80000
01F00000
01F00000
03F00000
03F00000
03E00000
03E00000
03E00000
07E00000
07E00000
07E00000
07C00000
07C00000
07C00000
07C00000
0FC00000
0FC00000
0F800000
0F800000
0F800000
0F800000
0F800000
0F800000
07000000
00000000
00000000
00000000
00000000
00000000
00000000
00000000
00000000
00000000
00000000
ENDCHAR

STARTCHAR CODE085
ENCODING 85
SWIDTH 451 0
DWIDTH 32 0
BBX 32 64 0 -6
BITMAP
00000000
00000000
00000000
00000000
00000000
00000000
00000000
000F0000
001F000F
003F001F
003F001F
007F003F
00FE007F
00FC007F
01FC00FE
01F800FE
03F001FC
03F001FC
07E003FC
07E007F8
0FC007F8
0FC00FF8
1F800FF0
1F801FF0
1F001FF0
3F001FF0
3E003FE0
3E003FE0
3E007FE0
7C007FE0
7C00FBC0
7C00FBC0
7801F7C0
F801F7C0
F803E7C0
F803E780
F807E780
F807C780
F00FCF80
F00F8F80
F01F8F80
F01F0F80
F03F0F80
F03E0F80
F07E0F80
F87C0F80
F8F80F80
FDF80F80
7FF00F80
7FF00F80
7FE00F80
3FC00700
0F000000
00000000
00000000
00000000
00000000
00000000
00000000
00000000
00000000
00000000
00000000
00000000
ENDCHAR

STARTCHAR CODE086
ENCODING 86
SWIDTH 451 0
DWIDTH 32 0
BBX 32 64 0 -6
BITMAP
00000000
00000000
00000000
00000000
00000000
00000000
00000000
03800000
07C00078
07C00078
07C000F8
07C000F8
07C001F8
0FC001F8
0F8003F0
0F8003F0
0F8007E0
0F8007E0
0F800FC0
0F800FC0
0F801F80
1F801F80
1F001F00
1F003F00
1F003E00
1F007E00
1F007E00
1F007C00
1F00FC00
1F00F800
1F00F800
1F01F800
1F01F000
1F01F000
1F03E000
1F03E000
1F03E000
1F07C000
0F07C000
0F07C000
0F8F8000
0F8F8000
0F8F8000
0F9F0000
0F9F0000
079F0000
07DE0000
07FE0000
07FE0000
03FE0000
03FC0000
03FC0000
01FC0000
01F80000
00F80000
00000000
00000000
00000000
00000000
00000000
00000000
00000000
00000000
00000000
ENDCHAR

STARTCHAR CODE087
ENCODING 87
SWIDTH 451 0
DWIDTH 32 0
BBX 32 64 0 -6
BITMAP
00000000
00000000
00000000
00000000
00000000
00000006
0000000F
0E00001F
1F00003F
1F00003F
1F00007E
1F00007E
3F00007C
3F0000FC
3E0000F8
3E0000F8
3E0001F8
3E0001F0
3E0001F0
3E0001F0
3E0003E0
7E0003E0
7C0703E0
7C0F83E0
7C0F83C0
7C1F83C0
7C1F87C0
7C1F87C0
7C3F87C0
7C3F87C0
F83F87C0
F83F8780
F87F8780
F87F0F80
F87F0F80
F8FF0F80
F8FF0F80
F8FF0F80
F9FF0F00
F9FF0F00
F1EF1F00
F3EF9F00
F3EF9F00
F3CF9F00
F7CF9F00
FFCFDE00
FFC7FE00
FF87FE00
FF87FE00
FF07FE00
FF03FC00
FF03FC00
7E01F800
7E00F000
3C000000
00000000
00000000
00000000
00000000
00000000
00000000
00000000
00000000
00000000
ENDCHAR

STARTCHAR CODE088
ENCODING 88
SWIDTH 451 0
DWIDTH 32 0
BBX 32 64 0 -6
BITMAP
00000000
00000000
00000000
00000000
00000000
01C00000
01C0000E
03E0001F
03E0003F
01E0007F
01F000FE
00F001FE
00F801FC
00F803F8
007807F0
007C0FE0
007C0FE0
003C1FC0
003E3F80
003E7F00
001E7F00
001FFE00
001FFC00
000FF800
000FF800
000FF000
0007E000
000FE000
001FC000
001FE000
003FE000
003FE000
007FE000
00FDF000
00FDF000
01F8F000
01F0F800
03F0F800
03E07C00
07E07C00
0FC07C00
0FC03E00
1F803E00
1F801F00
3F001F00
3F001F80
7E000F80
7C000F80
FC0007C0
F80007C0
F80007E0
F80003E0
F00003F0
000001F0
000001F0
000000F0
000000E0
00000000
00000000
00000000
00000000
00000000
00000000
00000000
ENDCHAR

STARTCHAR CODE089
ENCODING 89
SWIDTH 451 0
DWIDTH 32 0
BBX 32 64 0 -6
BITMAP
00000000
00000000
00000000
00000000
00000000
00000000
0000003C
0000007C
001F007C
003F00FC
007F00FC
00FE01F8
01FC01F8
01F803F0
03F003F0
07E007E0
07E00FE0
0FC00FE0
0F801FC0
1F801FC0
1F003F80
1F003F80
3E007F00
3E00FF00
3E00FF00
3C01FE00
7C03FE00
7C03FC00
7C07FC00
7C0FFC00
7C0FF800
7C1FF800
7C3FF800
7EFDF000
7FFDF000
3FFBF000
3FF3E000
1FC3E000
0007E000
0007C000
0007C000
0007C000
000FC000
000F8000
000F8000
000F8000
000F8000
000F8000
001F8000
001F8000
001F0000
001F0000
001F0000
001F0000
000E0000
00000000
00000000
00000000
00000000
00000000
00000000
00000000
00000000
00000000
ENDCHAR

STARTCHAR CODE090
ENCODING 90
SWIDTH 451 0
DWIDTH 32 0
BBX 32 64 0 -6
BITMAP
00000000
00000000
00000000
00000000
00000000
00000078
00001FFE
0FFFFFFF
1FFFFFFF
1FFFFFFF
1FFFF1FE
000003FC
000003F8
000007F0
00000FE0
00001FC0
00003F80
00003F00
00007F00
0000FE00
0001FC00
0001F800
0003F000
0007F000
000FE000
000FC000
001F8000
003F8000
003F0000
007E0000
00FE0000
00FC0000
01F80000
01F80000
03F00000
07E00000
07E00000
0FC00000
0FC00000
1F800000
1F000000
3F000000
3E000F00
7E007F80
7C03FF80
7C0FFF80
7DFFFF00
7FFFF000
7FFF8000
7FFC0000
7FE00000
3F000000
00000000
00000000
00000000
00000000
00000000
00000000
00000000
00000000
00000000
00000000
00000000
00000000
ENDCHAR

STARTCHAR CODE091
ENCODING 91
SWIDTH 451 0
DWIDTH 32 0
BBX 32 64 0 -6
BITMAP
00000000
00000000
00000000
00000070
000079F8
0000FFF8
0000FFF8
0000FFF0
0001FFC0
0001F000
0001F000
0001F000
0003E000
0003E000
0003E000
0003E000
0003E000
0003E000
0007E000
0007C000
0007C000
0007C000
0007C000
0007C000
0007C000
000F8000
000F8000
000F8000
000F8000
000F8000
000F8000
000F8000
000F0000
000F0000
000F0000
001F0000
001F0000
001F0000
001F0000
001F0000
001F0000
001F0000
001E0000
001E0000
001E0000
001E0000
001E0000
001E0000
001E0000
001E0000
001E0000
001E0000
001E7E00
001FFE00
001FFE00
001FFE00
001FF000
001FC000
001F8000
001F0000
000F0000
00000000
00000000
00000000
ENDCHAR

STARTCHAR CODE092
ENCODING 92
SWIDTH 451 0
DWIDTH 32 0
BBX 32 64 0 -6
BITMAP
00000000
00000000
00000000
00000000
00000000
00000000
00000000
00000000
00000000
00000000
0000000F
01C0001F
03E0001F
03E0003F
03E0007E
03E0007E
03E0007C
03E000FC
03E000F8
03E000F8
03FFFFFC
FFFFFFFF
FFFFFFFF
FFFFFFFF
FFC3C3EF
07C7C3E0
07C7C3C0
07C787C0
07CF87C0
078F87C0
078F8780
0F9F8780
0FFFFFF8
FFFFFFFE
FFFFFFFE
FFFFFFFE
FFFFCF0E
0F7FDF00
0F7FDF00
0F7FDF00
0F7BDE00
0FFBFE00
0FFBFE00
0FF9FE00
0FF1FE00
0FF1FE00
0FF1FE00
0FF0FE00
0FE0FE00
0FE07C00
07E07C00
07C00000
00000000
00000000
00000000
00000000
00000000
00000000
00000000
00000000
00000000
00000000
00000000
00000000
ENDCHAR

STARTCHAR CODE093
ENCODING 93
SWIDTH 451 0
DWIDTH 32 0
BBX 32 64 0 -6
BITMAP
00000000
00000000
00000000
00007800
00007C00
0000FC00
0001FC00
0007FE00
003FFE00
003FFE00
003FBE00
003E3E00
00003E00
00003E00
00003E00
00003E00
00003E00
00003E00
00003E00
00003E00
00003E00
00003C00
00003C00
00003C00
00003C00
00003C00
00003C00
00007C00
00007C00
00007C00
00007C00
00007C00
00007C00
00007800
00007800
0000F800
0000F800
0000F800
0000F800
0000F800
0000F800
0001F000
0001F000
0001F000
0001F000
0001F000
0001F000
0001E000
0003E000
0003E000
0003E000
0003E000
0003C000
0003C000
0007C000
01FFC000
07FFC000
0FFF8000
0FFF8000
0FCF0000
07000000
00000000
00000000
00000000
ENDCHAR

STARTCHAR CODE094
ENCODING 94
SWIDTH 451 0
DWIDTH 32 0
BBX 32 64 0 -6
BITMAP
00000000
00000000
00000000
00000000
00000000
00000000
0003E000
0007F000
001FF800
007FFC00
01FF7E00
01FC3F00
01F01F00
01C00F00
00000000
00000000
00000000
00000000
00000000
00000000
00000000
00000000
00000000
00000000
00000000
00000000
00000000
00000000
00000000
00000000
00000000
00000000
00000000
00000000
00000000
00000000
00000000
00000000
00000000
00000000
00000000
00000000
00000000
00000000
00000000
00000000
00000000
00000000
00000000
00000000
00000000
00000000
00000000
00000000
00000000
00000000
00000000
00000000
00000000
00000000
00000000
00000000
00000000
00000000
ENDCHAR

STARTCHAR CODE095
ENCODING 95
SWIDTH 451 0
DWIDTH 32 0
BBX 32 64 0 -6
BITMAP
00000000
00000000
00000000
00000000
00000000
00000000
00000000
00000000
00000000
00000000
00000000
00000000
00000000
00000000
00000000
00000000
00000000
00000000
00000000
00000000
00000000
00000000
00000000
00000000
00000000
00000000
00000000
00000000
00000000
00000000
00000000
00000000
00000000
00000000
00000000
00000000
00000000
00000000
00000000
00000000
00000000
00000000
00000000
00000000
00000000
00000000
00000000
00000000
00000000
00000000
00000000
00000000
00000000
00000000
00000000
00000000
FFFFFFFE
FFFFFFFE
FFFFFFFE
FFFFFFFE
FFFFFFFE
00000000
00000000
00000000
ENDCHAR

STARTCHAR CODE096
ENCODING 96
SWIDTH 451 0
DWIDTH 32 0
BBX 32 64 0 -6
BITMAP
00000000
00000000
00000000
00000000
00000000
000F8000
000F8000
000F8000
000F8000
000FC000
0007C000
0007E000
0003E000
0003F000
0001F000
0000F000
00007000
00000000
00000000
00000000
00000000
00000000
00000000
00000000
00000000
00000000
00000000
00000000
00000000
00000000
00000000
00000000
00000000
00000000
00000000
00000000
00000000
00000000
00000000
00000000
00000000
00000000
00000000
00000000
00000000
00000000
00000000
00000000
00000000
00000000
00000000
00000000
00000000
00000000
00000000
00000000
00000000
00000000
00000000
00000000
00000000
00000000
00000000
00000000
ENDCHAR

STARTCHAR CODE097
ENCODING 97
SWIDTH 451 0
DWIDTH 32 0
BBX 32 64 0 -6
BITMAP
00000000
00000000
00000000
00000000
00000000
00000000
00000000
00000000
00000000
00000000
00000000
00000000
00000000
00000000
00000000
00000000
00000000
00000000
00000000
00000000
00000000
00000000
00000000
00000000
00000000
00000000
00000000
00000000
0007C000
001FE000
003FF000
007FF000
00FFF000
00FEF000
01F8F000
01F0F000
01E0F000
03E1F000
03E1F000
03C1E000
03C1E000
03C3E000
03C3E000
03C3E000
03C7E000
03EFF000
01FFF000
01FFF800
01FE7F00
00FC7F00
00383F00
00000F00
00000000
00000000
00000000
00000000
00000000
00000000
00000000
00000000
00000000
00000000
00000000
00000000
ENDCHAR

STARTCHAR CODE098
ENCODING 98
SWIDTH 451 0
DWIDTH 32 0
BBX 32 64 0 -6
BITMAP
00000000
00000000
00000000
00000000
00000000
00000000
00000000
00000000
00000000
00000000
0000F000
0000F800
0001F800
0001F800
0001F800
0001F000
0001F000
0003F000
0003E000
0003E000
0003E000
0007C000
0007C000
0007C000
00078000
000F8000
000F8000
000F0000
000F0000
001F7000
001FFC00
001FFE00
001FFE00
003FFF00
003F3F00
003E1F00
003E1F00
003C1F00
007C1F00
00781F00
00783E00
00783E00
00F03E00
00F07C00
00F07C00
00F1F800
01FFF800
01FFF000
01FFE000
01FFC000
01EF0000
00E00000
00000000
00000000
00000000
00000000
00000000
00000000
00000000
00000000
00000000
00000000
00000000
00000000
ENDCHAR

STARTCHAR CODE099
ENCODING 99
SWIDTH 451 0
DWIDTH 32 0
BBX 32 64 0 -6
BITMAP
00000000
00000000
00000000
00000000
00000000
00000000
00000000
00000000
00000000
00000000
00000000
00000000
00000000
00000000
00000000
00000000
00000000
00000000
00000000
00000000
00000000
00000000
00000000
00000000
00000000
00000000
00000000
00000000
00000000
0007E000
000FF000
001FF800
003FF800
003F7800
007EF800
00FCF800
00FDF000
00F9F000
01F1E600
01F00E00
01F00E00
01E01E00
01E03E00
01E03E00
01E07C00
01F0FC00
01FBF800
00FFF800
00FFF000
007FE000
001F8000
00000000
00000000
00000000
00000000
00000000
00000000
00000000
00000000
00000000
00000000
00000000
00000000
00000000
ENDCHAR

STARTCHAR CODE100
ENCODING 100
SWIDTH 451 0
DWIDTH 32 0
BBX 32 64 0 -6
BITMAP
00000000
00000000
00000000
00000000
00000000
00000000
00000000
00000000
00000000
00000000
00000780
000007C0
000007C0
00000FC0
00000F80
00000F80
00001F80
00001F00
00001F00
00001E00
00003E00
00003E00
00003E00
00003C00
00007C00
00007C00
00007800
00007800
0000F800
003FF800
007FF800
00FFF000
01FFF000
01F9F000
03E1F000
03E1E000
03C1E000
07C3E000
07C3E000
0783E000
0783E000
0787E000
0787E000
078FE000
07CFF000
03DFF000
03FFF800
03FE7C00
01FE7E00
00FC3E00
00781E00
00000000
00000000
00000000
00000000
00000000
00000000
00000000
00000000
00000000
00000000
00000000
00000000
00000000
ENDCHAR

STARTCHAR CODE101
ENCODING 101
SWIDTH 451 0
DWIDTH 32 0
BBX 32 64 0 -6
BITMAP
00000000
00000000
00000000
00000000
00000000
00000000
00000000
00000000
00000000
00000000
00000000
00000000
00000000
00000000
00000000
00000000
00000000
00000000
00000000
00000000
00000000
00000000
00000000
00000000
00000000
00000000
00000000
00000000
00000000
00078000
001FC000
003FC000
007FE000
00FFE000
00F9E000
01F3C000
01F3C000
03E7C000
03EF8000
03DF8700
03FF0F00
03FE0F00
03F81F00
03E03E00
03E07E00
03F1FC00
01FFF800
01FFF000
00FFC000
007F8000
00000000
00000000
00000000
00000000
00000000
00000000
00000000
00000000
00000000
00000000
00000000
00000000
00000000
00000000
ENDCHAR

STARTCHAR CODE102
ENCODING 102
SWIDTH 451 0
DWIDTH 32 0
BBX 32 64 0 -6
BITMAP
00000000
00000000
00000000
00000000
00000000
00000000
00000000
00000000
00000F00
00001F00
00003F00
00003F00
00007E00
00007E00
0000FC00
0000F800
0001F800
0001F000
0001F000
0003E000
0003E000
0007C000
0007C000
00078000
000F8000
000F0000
000F0000
001F7F80
001FFFC0
001FFFC0
003FFFC0
003F8000
007E0000
00FF0000
01FF8000
01FFC000
01FFC000
01F9E000
00F8E000
00F8F000
00F0F000
00F07000
01F07000
01F07000
01F07000
01E07000
01E07000
01E07000
03E07000
03E0F000
03E0F000
03C0F000
03C0F000
03C1F000
03C1E000
03E1E000
03E3E000
01E3E000
01FFC000
01FFC000
01FF8000
00FF0000
007C0000
00000000
ENDCHAR

STARTCHAR CODE103
ENCODING 103
SWIDTH 451 0
DWIDTH 32 0
BBX 32 64 0 -6
BITMAP
00000000
00000000
00000000
00000000
00000000
00000000
00000000
00000000
00000000
00000000
00000000
00000000
00000000
00000000
00000000
00000000
00000000
00000000
00000000
00000000
00000000
00000000
00000000
00000000
00000000
00000000
00000000
00038000
000FE000
001FF000
007FF000
007FF800
00FC7800
01F87800
01F0FC00
01F1FC00
03E3F8E0
03E3F9E0
03C1F3C0
03C3F780
03E7EF80
03FFFF00
03FFFE00
01FFFC00
00FFF800
0007F000
001FE000
007FC000
01FF8000
03FF8000
07FF8000
0FE78000
1FC78000
1F8F8000
3F0F0000
3E1F0000
3E1F0000
3C3E0000
3E7E0000
3FFC0000
1FFC0000
1FF80000
0FF00000
03C00000
ENDCHAR

STARTCHAR CODE104
ENCODING 104
SWIDTH 451 0
DWIDTH 32 0
BBX 32 64 0 -6
BITMAP
00000000
00000000
00000000
00000000
00000000
00000000
00000000
00000000
00000000
00000000
00038000
0007C000
0007C000
0007C000
0007C000
000FC000
000FC000
000F8000
000F8000
000F8000
001F0000
001F0000
001F0000
001E0000
001E0000
003E0000
003C0000
003C0000
003C0000
003C3800
0078FC00
0079FC00
007BFC00
007FFC00
00FFF800
00FFF800
00FFF000
00FFF1C0
01FDF1C0
01F9E3C0
01F9E3C0
01F1E7C0
01F3E780
03E3CF80
03E3EF80
03E3FF00
03C3FF00
03C1FE00
03C1FC00
03C07000
03C00000
00000000
00000000
00000000
00000000
00000000
00000000
00000000
00000000
00000000
00000000
00000000
00000000
00000000
ENDCHAR

STARTCHAR CODE105
ENCODING 105
SWIDTH 451 0
DWIDTH 32 0
BBX 32 64 0 -6
BITMAP
00000000
00000000
00000000
00000000
00000000
00000000
00000000
00000000
00000000
00000000
00000000
00000000
00000000
00000000
00000000
00000000
00000000
00003800
00007C00
0000FC00
0000FC00
0000FC00
0000FC00
00007800
00000000
00000000
00000000
00000000
00000000
0001C000
0001C000
0003C000
0003C000
0007C000
00078000
00078000
000F8000
000F8000
000F0000
000F0000
001F0000
001F0000
001F0000
001E0000
001E0000
003E0000
003E0000
003E0000
003E0000
003E0000
001C0000
00000000
00000000
00000000
00000000
00000000
00000000
00000000
00000000
00000000
00000000
00000000
00000000
00000000
ENDCHAR

STARTCHAR CODE106
ENCODING 106
SWIDTH 451 0
DWIDTH 32 0
BBX 32 64 0 -6
BITMAP
00000000
00000000
00000000
00000000
00000000
00000000
00000000
00000000
00000000
00000000
00000000
00000000
00000000
00000000
00000000
00000000
00000000
00000700
00000F80
00000F80
00001F80
00001F80
00001F80
00000F00
00000000
00000000
00000000
00000000
00007800
00007800
00007800
0000F800
0000F800
0000F000
0000F000
0001F1C0
0001E3C0
0001E3C0
0001E780
0001EF80
0003DF00
0003FE00
0003FC00
0003F800
0007F000
001FC000
007F8000
00FF8000
01FF8000
03FF8000
07EF8000
0FCF8000
1F8F0000
1F1F0000
3E1F0000
3E1F0000
3C3E0000
3C3E0000
3E7E0000
1FFC0000
1FFC0000
0FF80000
03E00000
00000000
ENDCHAR

STARTCHAR CODE107
ENCODING 107
SWIDTH 451 0
DWIDTH 32 0
BBX 32 64 0 -6
BITMAP
00000000
00000000
00000000
00000000
00000000
00000000
00000000
00000000
00003E00
0000FE00
0000FF00
0001FF00
0003FF00
0007EF00
0007CF00
000F9F00
000F1F00
001F1E00
001E3E00
003E3C00
003C7C00
007C7800
0078F800
00F9F000
00F3E000
00F7C000
01F7C000
01EF8000
01FF0000
01FE0000
03FCF000
03FBF800
03F7F800
07EFF000
07FF8000
07BF0000
07FE0000
07FE0000
0FFE00E0
0FFE00E0
0FFC01E0
0FDE01E0
0FDE03E0
0F9E03C0
1F1E07C0
1F1F0F80
1F0FBF80
1F0FFF00
1F07FE00
1F07FC00
0E01F800
00000000
00000000
00000000
00000000
00000000
00000000
00000000
00000000
00000000
00000000
00000000
00000000
00000000
ENDCHAR

STARTCHAR CODE108
ENCODING 108
SWIDTH 451 0
DWIDTH 32 0
BBX 32 64 0 -6
BITMAP
00000000
00000000
00000000
00000000
00000000
00000000
00000000
00000000
00000F80
00001FC0
00003FE0
00003FE0
00007FE0
0000F9E0
0000F9E0
0000F3C0
0001E3C0
0001E3C0
0003E7C0
0003C780
0007C780
00078F80
00078F00
000F9F00
000F1E00
000F3E00
001F3C00
001F7C00
001E7800
001EF800
003FF000
003FE000
003FC000
003FC000
003F8000
003F0000
007E0000
007E0000
007C7000
00787000
00787000
0078F000
0078F000
0079F000
007BE000
007FE000
007FC000
007FC000
003F8000
001E0000
00000000
00000000
00000000
00000000
00000000
00000000
00000000
00000000
00000000
00000000
00000000
00000000
00000000
00000000
ENDCHAR

STARTCHAR CODE109
ENCODING 109
SWIDTH 451 0
DWIDTH 32 0
BBX 32 64 0 -6
BITMAP
00000000
00000000
00000000
00000000
00000000
00000000
00000000
00000000
00000000
00000000
00000000
00000000
00000000
00000000
00000000
00000000
00000000
00000000
00000000
00000000
00000000
00000000
00000000
00000000
00000000
00000000
00000000
00000000
00000000
00000000
01E00780
03E38F80
03EF9F80
07DFBF80
07FFFF80
07FFFF80
07FFFF00
0FFFFE00
0FFFFE00
0FFFFC00
0FDFFC00
1FFF7C00
1FBF7800
1FBE7800
1F3E7800
1F3E7C00
1F3C3C00
1E3C3E00
1E3C1F00
1E3C1F00
1E000F00
00000000
00000000
00000000
00000000
00000000
00000000
00000000
00000000
00000000
00000000
00000000
00000000
00000000
ENDCHAR

STARTCHAR CODE110
ENCODING 110
SWIDTH 451 0
DWIDTH 32 0
BBX 32 64 0 -6
BITMAP
00000000
00000000
00000000
00000000
00000000
00000000
00000000
00000000
00000000
00000000
00000000
00000000
00000000
00000000
00000000
00000000
00000000
00000000
00000000
00000000
00000000
00000000
00000000
00000000
00000000
00000000
00000000
00000000
00000000
00000000
00007000
0070F800
0079F800
00FBF800
00FFF800
00FFF000
01FFF000
01FFE000
01FFE000
03FFC000
03FFC000
03F7C000
03E78000
03E78000
07E78000
07C78000
07C78000
07C7C000
0783C000
0783C000
0003E000
0001E000
0001F000
0000F000
00000000
00000000
00000000
00000000
00000000
00000000
00000000
00000000
00000000
00000000
ENDCHAR

STARTCHAR CODE111
ENCODING 111
SWIDTH 451 0
DWIDTH 32 0
BBX 32 64 0 -6
BITMAP
00000000
00000000
00000000
00000000
00000000
00000000
00000000
00000000
00000000
00000000
00000000
00000000
00000000
00000000
00000000
00000000
00000000
00000000
00000000
00000000
00000000
00000000
00000000
00000000
00000000
00000000
00000000
00000000
0001F000
0007F800
000FF800
001FFC00
001F7C00
003E3C00
003C3C00
007C7C00
00787C00
0078FC00
00F0FC00
00F0FC00
00F0F800
00F07800
00F07800
00F0F800
00F0F000
00F1F000
00FBE000
00FFE000
007FC000
007F8000
003E0000
00000000
00000000
00000000
00000000
00000000
00000000
00000000
00000000
00000000
00000000
00000000
00000000
00000000
ENDCHAR

STARTCHAR CODE112
ENCODING 112
SWIDTH 451 0
DWIDTH 32 0
BBX 32 64 0 -6
BITMAP
00000000
00000000
00000000
00000000
00000000
00000000
00000000
00000000
00000000
00000000
00000000
00000000
00000000
00000000
00000000
00000000
00000000
00000000
00000000
00000000
00000000
00000000
00000000
00000000
00000000
00000000
001E0000
001E0000
001E0000
003FF000
003FF800
003FFC00
007FFC00
007E7E00
007C3E00
00FC3E00
00F83E00
00F83E00
00F07C00
01F07C00
01F0FC00
01F0F800
01E1F800
03E3F000
03FFF000
03FFE000
03FFC000
07FF8000
07FE0000
07C00000
07800000
07800000
0F800000
0F800000
0F800000
0F800000
0F000000
0F000000
1F000000
1F000000
1F000000
1F000000
0E000000
00000000
ENDCHAR

STARTCHAR CODE113
ENCODING 113
SWIDTH 451 0
DWIDTH 32 0
BBX 32 64 0 -6
BITMAP
00000000
00000000
00000000
00000000
00000000
00000000
00000000
00000000
00000000
00000000
00000000
00000000
00000000
00000000
00000000
00000000
00000000
00000000
00000000
00000000
00000000
00000000
00000000
00000000
00000000
00000000
00000000
00000000
0003C000
000FF000
001FF800
003FF800
007E7C00
00FC7C00
00F87C00
00F87C00
01F0FC00
01F0F800
01E0F800
01E0F800
01E1F000
01E3F000
01F7F000
01FFF000
00FFF000
00FFE000
007DE000
0003E000
0003E000
0003C000
0003C000
0003C000
0003C000
0007C000
0007C000
0007C000
00078000
00078000
00078000
00078000
00078000
00078000
00078000
00000000
ENDCHAR

STARTCHAR CODE114
ENCODING 114
SWIDTH 451 0
DWIDTH 32 0
BBX 32 64 0 -6
BITMAP
00000000
00000000
00000000
00000000
00000000
00000000
00000000
00000000
00000000
00000000
00000000
00000000
00000000
00000000
00000000
00000000
00000000
00000000
00000000
00000000
00000000
00000000
00000000
00000000
00000000
00000000
00000000
00000000
00000000
00000000
00787800
0078F800
00F9F800
00FBF800
00F7F1C0
01FFE3C0
01FFEFC0
01FFFF80
01FDFF80
03F9FE00
03F8F800
03F00000
03F00000
03E00000
03E00000
03E00000
07C00000
07C00000
07C00000
07C00000
03800000
00000000
00000000
00000000
00000000
00000000
00000000
00000000
00000000
00000000
00000000
00000000
00000000
00000000
ENDCHAR

STARTCHAR CODE115
ENCODING 115
SWIDTH 451 0
DWIDTH 32 0
BBX 32 64 0 -6
BITMAP
00000000
00000000
00000000
00000000
00000000
00000000
00000000
00000000
00000000
00000000
00000000
00000000
00000000
00000000
00000000
00000000
00000000
00000000
00000000
00000000
00000000
00000000
00000000
00000000
00000000
00000000
00000000
0000F800
0007FE00
000FFF00
001FFF00
001F9F00
003E0F00
003C1F00
003C7F00
003DFE00
003DFC00
003FF000
001E0000
01DF0000
03CF8000
03C7C000
03C3E000
03C1E000
03C1F000
03E0F000
01F0F000
01FFF000
00FFF000
007FE000
001FC000
00000000
00000000
00000000
00000000
00000000
00000000
00000000
00000000
00000000
00000000
00000000
00000000
00000000
ENDCHAR

STARTCHAR CODE116
ENCODING 116
SWIDTH 451 0
DWIDTH 32 0
BBX 32 64 0 -6
BITMAP
00000000
00000000
00000000
00000000
00000000
00000000
00000000
00000000
00000000
00000000
00000000
00000000
00000000
00000000
00000000
00000000
00000000
0000F000
0000F000
0001F000
0001F000
0003E000
0003E000
0003DF80
0007FFC0
0007FFC0
007FFFC0
00FFF800
00FF8000
00FF8000
001F0000
001F0000
001F0000
001E0000
001E0000
003E0000
003E0000
003E0000
003C0E00
003C0E00
003C1E00
003C1E00
003C1E00
003C3E00
003E3C00
003E7C00
001FF800
001FF800
000FF000
0007C000
00000000
00000000
00000000
00000000
00000000
00000000
00000000
00000000
00000000
00000000
00000000
00000000
00000000
00000000
ENDCHAR

STARTCHAR CODE117
ENCODING 117
SWIDTH 451 0
DWIDTH 32 0
BBX 32 64 0 -6
BITMAP
00000000
00000000
00000000
00000000
00000000
00000000
00000000
00000000
00000000
00000000
00000000
00000000
00000000
00000000
00000000
00000000
00000000
00000000
00000000
00000000
00000000
00000000
00000000
00000000
00000000
00000000
00000000
00000000
00000000
00000000
00000000
003C0000
007CF000
007CF000
00F8F000
00F0F000
01F1F000
01F1F000
01E1E000
01E1E000
03E3E000
03E3E000
03C3E000
03C7E000
03C7F000
03EFF000
01FFF800
01FF7C00
01FE3F00
00FC1F00
00000700
00000000
00000000
00000000
00000000
00000000
00000000
00000000
00000000
00000000
00000000
00000000
00000000
00000000
ENDCHAR

STARTCHAR CODE118
ENCODING 118
SWIDTH 451 0
DWIDTH 32 0
BBX 32 64 0 -6
BITMAP
00000000
00000000
00000000
00000000
00000000
00000000
00000000
00000000
00000000
00000000
00000000
00000000
00000000
00000000
00000000
00000000
00000000
00000000
00000000
00000000
00000000
00000000
00000000
00000000
00000000
00000000
00000000
00000000
00000000
00000000
0038F000
003CF800
003DF800
007DF800
007DF800
0079F9E0
00F9F9E0
00F8F3E0
00F8FFE0
00F0FFC0
01F0FF80
01F1FE00
01E1E000
01E1E000
01E3E000
01F7C000
00FFC000
00FF8000
00FF8000
007F0000
003C0000
00000000
00000000
00000000
00000000
00000000
00000000
00000000
00000000
00000000
00000000
00000000
00000000
00000000
ENDCHAR

STARTCHAR CODE119
ENCODING 119
SWIDTH 451 0
DWIDTH 32 0
BBX 32 64 0 -6
BITMAP
00000000
00000000
00000000
00000000
00000000
00000000
00000000
00000000
00000000
00000000
00000000
00000000
00000000
00000000
00000000
00000000
00000000
00000000
00000000
00000000
00000000
00000000
00000000
00000000
00000000
00000000
00000000
00000000
00000000
00000780
00E007C0
01F007C0
03F1C3C0
03F3E3C0
07E7E3C0
07C7E3C0
0F8FC7C0
0F8FC7C0
0F1FC780
0F1FC780
1F3F8F80
1E7F8F00
1E7F9F00
1EFF9F00
1FFFBE00
1FF7FC00
1FF7FC00
1FE7F800
1FC3F000
0F83E000
00000000
00000000
00000000
00000000
00000000
00000000
00000000
00000000
00000000
00000000
00000000
00000000
00000000
00000000
ENDCHAR

STARTCHAR CODE120
ENCODING 120
SWIDTH 451 0
DWIDTH 32 0
BBX 32 64 0 -6
BITMAP
00000000
00000000
00000000
00000000
00000000
00000000
00000000
00000000
00000000
00000000
00000000
00000000
00000000
00000000
00000000
00000000
00000000
00000000
00000000
00000000
00000000
00000000
00000000
00000000
00000000
00000000
00000000
00000000
00000000
00F07000
00F0F000
00F1F000
00F9F000
007BE000
007FC000
007F8000
007F8000
007F0E00
003E0E00
003E0E00
003E1E00
007E1E00
00FE1E00
00FE3C00
01FF3C00
01FFFC00
03EFF800
07EFF800
07C7F000
0783E000
07800000
00000000
00000000
00000000
00000000
00000000
00000000
00000000
00000000
00000000
00000000
00000000
00000000
00000000
ENDCHAR

STARTCHAR CODE121
ENCODING 121
SWIDTH 451 0
DWIDTH 32 0
BBX 32 64 0 -6
BITMAP
00000000
00000000
00000000
00000000
00000000
00000000
00000000
00000000
00000000
00000000
00000000
00000000
00000000
00000000
00000000
00000000
00000000
00000000
00000000
00000000
00000000
00000000
00000000
00000000
00000000
00000000
00000000
00000000
00000000
00003800
00007C00
00707C00
00F87C00
01F8FC00
01F8FC00
03F1F800
03E1F860
07C3F8E0
07C7F8E0
078FF9E0
079FF3E0
07FFF7C0
07FEFFC0
03FDFF80
01F9FF00
0003FE00
001FFC00
003FF000
00FFE000
01FFE000
03FBE000
07E3C000
07C3C000
0787C000
0F87C000
0F078000
0F0F8000
0F0F8000
0F9F0000
07FF0000
07FE0000
03FC0000
00F80000
00000000
ENDCHAR

STARTCHAR CODE122
ENCODING 122
SWIDTH 451 0
DWIDTH 32 0
BBX 32 64 0 -6
BITMAP
00000000
00000000
00000000
00000000
00000000
00000000
00000000
00000000
00000000
00000000
00000000
00000000
00000000
00000000
00000000
00000000
00000000
00000000
00000000
00000000
00000000
00000000
00000000
00000000
00000000
00000000
00000000
00000000
00000000
00F0F800
00FFFC00
00FFFC00
00FFFC00
001FFC00
0003F800
0007F000
000FE000
000FC000
001F8000
003F0000
003E0000
007C0000
007C0000
00F80000
00F9F000
01FFF800
01FFF800
01FFF800
01FFF000
00F80000
00000000
00000000
00000000
00000000
00000000
00000000
00000000
00000000
00000000
00000000
00000000
00000000
00000000
00000000
ENDCHAR

STARTCHAR CODE123
ENCODING 123
SWIDTH 451 0
DWIDTH 32 0
BBX 32 64 0 -6
BITMAP
00000000
00000000
00000000
0000007F
000003FF
00000FFF
00001FFF
00003FC0
00007F00
00007E00
0000FC00
0000F800
0001F000
0001F000
0001F000
0001E000
0003E000
0003E000
0003E000
0003E000
0007E000
0007E000
000FC000
000FC000
001F8000
003F8000
007F0000
01FE0000
07FC0000
1FF80000
7FF00000
FFC00000
FF000000
FF800000
3FC00000
0FE00000
07F00000
03F80000
01F80000
00FC0000
00FC0000
007C0000
007C0000
007C0000
007C0000
007C0000
007C0000
007C0000
00780000
00F80000
00F80000
00F80000
00F80000
00F80000
00FC0000
007E0000
007F0000
003FC000
001FFE00
0007FE00
0001FE00
00000000
00000000
00000000
ENDCHAR

STARTCHAR CODE124
ENCODING 124
SWIDTH 451 0
DWIDTH 32 0
BBX 32 64 0 -6
BITMAP
00000000
00000000
00000000
00000000
00000000
00000000
00000000
00003C00
00007E00
00007E00
00007E00
00007E00
00007C00
00007C00
00007C00
0000FC00
0000F800
0000F800
0000F800
0000F800
0000F800
0001F000
0001F000
0001F000
0001F000
0001F000
0001F000
0003E000
0003E000
0003E000
0003E000
0007E000
0007C000
0007C000
0007C000
0007C000
000F8000
000F8000
000F8000
000F8000
001F8000
001F8000
001F0000
001F0000
003F0000
003F0000
003E0000
003E0000
007E0000
007E0000
007E0000
007C0000
00FC0000
00FC0000
00FC0000
00F80000
00780000
00000000
00000000
00000000
00000000
00000000
00000000
00000000
ENDCHAR

STARTCHAR CODE125
ENCODING 125
SWIDTH 451 0
DWIDTH 32 0
BBX 32 64 0 -6
BITMAP
00000000
00000000
00000000
007F8000
007FE000
007FF800
0003FC00
0000FE00
00007E00
00003F00
00001F00
00001F00
00001F00
00001F00
00001F00
00001E00
00003E00
00003E00
00003E00
00003E00
00003E00
00003E00
00003E00
00003F00
00003F00
00001F80
00001FC0
00000FE0
000007F0
000003FC
000001FF
000000FF
000003FF
00000FFE
00001FF8
00003FE0
00007F80
0000FE00
0001FC00
0001F800
0003F000
0003F000
0007E000
0007E000
0007C000
0007C000
0007C000
0007C000
00078000
000F8000
000F8000
000F8000
001F0000
003F0000
007E0000
00FE0000
03FC0000
FFF80000
FFF00000
FFC00000
FE000000
00000000
00000000
00000000
ENDCHAR

STARTCHAR CODE126
ENCODING 126
SWIDTH 451 0
DWIDTH 32 0
BBX 32 64 0 -6
BITMAP
00000000
00000000
00000000
00000000
00000000
00000000
00000000
00000000
00000000
00000000
00000000
00000000
00000000
00000000
00000000
00000000
00000000
00000000
00000000
00000000
00000000
00000000
00000000
00000000
00000000
00000000
00000000
00780000
00FE0180
01FF8380
01FFEF80
01C7FF80
0181FF00
00007C00
00000000
00000000
00000000
00000000
00000000
00000000
00000000
00000000
00000000
00000000
00000000
00000000
00000000
00000000
00000000
00000000
00000000
00000000
00000000
00000000
00000000
00000000
00000000
00000000
00000000
00000000
00000000
00000000
00000000
00000000
ENDCHAR

STARTCHAR CODE127
ENCODING 127
SWIDTH 451 0
DWIDTH 32 0
BBX 32 64 0 -6
BITMAP
00000000
00000000
00000000
00000000
00000000
00000000
00000000
00000000
00000000
00000000
00000000
00000000
00000000
00000000
00000000
00000000
00000000
00000000
00000000
00000000
00000000
00000000
00000000
00000000
00000000
00000000
00000000
00000000
00000000
00000000
00000000
00000000
00000000
00000000
00000000
00000000
00000000
00000000
00000000
00000000
00000000
00000000
00000000
00000000
00000000
00000000
00000000
00000000
00000000
00000000
00000000
00000000
00000000
00000000
00000000
00000000
00000000
00000000
00000000
00000000
00000000
00000000
00000000
00000000
ENDCHAR

STARTCHAR CODE128
ENCODING 128
SWIDTH 451 0
DWIDTH 32 0
BBX 32 64 0 -6
BITMAP
00000000
00000000
00000000
00000000
00000000
00000000
00000000
00000FC0
00003FE0
0000FFF0
0001FFF8
0003FE78
0007F838
0007F03C
000FE03C
001FC07C
003F807C
003F00FC
007E00F8
00FE01F8
00FC03F8
01F807F0
01F80FE0
03F00FE0
03F00FC0
03E00F80
07E00700
07E00000
07C00000
0FC00000
0FC00000
0F800000
0F800000
0F800030
1F800030
1F000070
1F000070
1F0000F0
1F0000E0
1F0001E0
1F0001E0
1F8003C0
0F8003C0
0F800780
0FC00F80
07E01F00
07F87E00
03FFFC00
01FFF800
00FFF000
003FC000
00070000
000F0000
001F8000
001FC000
001FE000
0003E000
0001E000
0001E000
0001C000
0003C000
00078000
00070000
00000000
ENDCHAR

STARTCHAR CODE129
ENCODING 129
SWIDTH 451 0
DWIDTH 32 0
BBX 32 64 0 -6
BITMAP
00000000
00000000
00000000
00000000
00000000
00000000
00000000
00000000
00000000
00000000
00000000
00000000
00000000
00000000
00000000
00000000
00000000
001E3C00
001F3E00
003F7E00
003F7E00
003F7E00
003E7C00
001E3C00
00000000
00000000
00000000
00000000
00000000
00000000
00000000
003C0000
007CF000
007CF000
00F8F000
00F0F000
01F1F000
01F1F000
01E1E000
01E1E000
03E3E000
03E3E000
03C3E000
03C7E000
03C7F000
03EFF000
01FFF800
01FF7C00
01FE3F00
00FC1F00
00000700
00000000
00000000
00000000
00000000
00000000
00000000
00000000
00000000
00000000
00000000
00000000
00000000
00000000
ENDCHAR

STARTCHAR CODE130
ENCODING 130
SWIDTH 451 0
DWIDTH 32 0
BBX 32 64 0 -6
BITMAP
00000000
00000000
00000000
00000000
00000000
00000000
00000000
00000000
00000000
00000000
00000000
00000000
00000000
00000000
00000000
00000000
00000000
00000000
0000F000
0000F000
0000F000
0001F000
0001E000
0003E000
0003C000
00078000
00070000
00000000
00000000
00078000
001FC000
003FC000
007FE000
00FFE000
00F9E000
01F3C000
01F3C000
03E7C000
03EF8000
03DF8700
03FF0F00
03FE0F00
03F81F00
03E03E00
03E07E00
03F1FC00
01FFF800
01FFF000
00FFC000
007F8000
00000000
00000000
00000000
00000000
00000000
00000000
00000000
00000000
00000000
00000000
00000000
00000000
00000000
00000000
ENDCHAR

STARTCHAR CODE131
ENCODING 131
SWIDTH 451 0
DWIDTH 32 0
BBX 32 64 0 -6
BITMAP
00000000
00000000
00000000
00000000
00000000
00000000
00000000
00000000
00000000
00000000
00000000
00000000
00000000
00000000
00000000
00000000
00000000
00000000
00000000
00000000
0003F800
0007FE00
000FFF00
000F9F80
000F0F80
00000780
00000780
00000000
0007C000
001FE000
003FF000
007FF000
00FFF000
00FEF000
01F8F000
01F0F000
01E0F000
03E1F000
03E1F000
03C1E000
03C1E000
03C3E000
03C3E000
03C3E000
03C7E000
03EFF000
01FFF000
01FFF800
01FE7F00
00FC7F00
00383F00
00000F00
00000000
00000000
00000000
00000000
00000000
00000000
00000000
00000000
00000000
00000000
00000000
00000000
ENDCHAR

STARTCHAR CODE132
ENCODING 132
SWIDTH 451 0
DWIDTH 32 0
BBX 32 64 0 -6
BITMAP
00000000
00000000
00000000
00000000
00000000
00000000
00000000
00000000
00000000
00000000
00000000
00000000
00000000
00000000
00000000
00000000
00000000
000F1E00
000F9F00
001FBF00
001FBF00
001FBF00
001F3E00
000F1E00
00000000
00000000
00000000
00000000
0007C000
001FE000
003FF000
007FF000
00FFF000
00FEF000
01F8F000
01F0F000
01E0F000
03E1F000
03E1F000
03C1E000
03C1E000
03C3E000
03C3E000
03C3E000
03C7E000
03EFF000
01FFF000
01FFF800
01FE7F00
00FC7F00
00383F00
00000F00
00000000
00000000
00000000
00000000
00000000
00000000
00000000
00000000
00000000
00000000
00000000
00000000
ENDCHAR

STARTCHAR CODE133
ENCODING 133
SWIDTH 451 0
DWIDTH 32 0
BBX 32 64 0 -6
BITMAP
00000000
00000000
00000000
00000000
00000000
00000000
00000000
00000000
00000000
00000000
00000000
00000000
00000000
00000000
00000000
00000000
00000000
00000000
00000000
0000F000
0000F800
0000FC00
00007E00
00003F00
00001F80
00000F80
00000780
00000000
0007C000
001FE000
003FF000
007FF000
00FFF000
00FEF000
01F8F000
01F0F000
01E0F000
03E1F000
03E1F000
03C1E000
03C1E000
03C3E000
03C3E000
03C3E000
03C7E000
03EFF000
01FFF000
01FFF800
01FE7F00
00FC7F00
00383F00
00000F00
00000000
00000000
00000000
00000000
00000000
00000000
00000000
00000000
00000000
00000000
00000000
00000000
ENDCHAR

STARTCHAR CODE134
ENCODING 134
SWIDTH 451 0
DWIDTH 32 0
BBX 32 64 0 -6
BITMAP
00000000
00000000
00000000
00000000
00000000
00000000
00000000
00000000
00000000
00000000
00000000
00000000
00000000
00000000
00000000
00000000
00000000
00007800
0000FC00
0001FC00
0003CC00
00038C00
00031C00
0003BC00
0003F800
0001F000
00000000
00000000
0007C000
001FE000
003FF000
007FF000
00FFF000
00FEF000
01F8F000
01F0F000
01E0F000
03E1F000
03E1F000
03C1E000
03C1E000
03C3E000
03C3E000
03C3E000
03C7E000
03EFF000
01FFF000
01FFF800
01FE7F00
00FC7F00
00383F00
00000F00
00000000
00000000
00000000
00000000
00000000
00000000
00000000
00000000
00000000
00000000
00000000
00000000
ENDCHAR

STARTCHAR CODE135
ENCODING 135
SWIDTH 451 0
DWIDTH 32 0
BBX 32 64 0 -6
BITMAP
00000000
00000000
00000000
00000000
00000000
00000000
00000000
00000000
00000000
00000000
00000000
00000000
00000000
00000000
00000000
00000000
00000000
00000000
00000000
00000000
00000000
00000000
00000000
00000000
00000000
00000000
00000000
00000000
00000000
0003E000
000FF000
001FF000
003FF000
007F7000
007EF000
00FCF000
00F9F000
00F9E000
01F1E600
01F00600
01E00E00
01E00E00
01E01E00
01E01E00
01E03C00
01F07C00
01F9F800
00FFF000
00FFE000
007FC000
001F0000
000E0000
001E0000
001E0000
003F0000
003F8000
003F8000
00078000
00038000
00078000
00070000
000E0000
000C0000
00000000
ENDCHAR

STARTCHAR CODE136
ENCODING 136
SWIDTH 451 0
DWIDTH 32 0
BBX 32 64 0 -6
BITMAP
00000000
00000000
00000000
00000000
00000000
00000000
00000000
00000000
00000000
00000000
00000000
00000000
00000000
00000000
00000000
00000000
00000000
00000000
00000000
00000000
0001F000
0007FC00
000FFE00
000FFE00
000F9F00
00070F00
00000F00
00000000
00000000
00078000
001FC000
003FC000
007FE000
00FFE000
00F9E000
01F3C000
01F3C000
03E7C000
03EF8000
03DF8700
03FF0F00
03FE0F00
03F81F00
03E03E00
03E07E00
03F1FC00
01FFF800
01FFF000
00FFC000
003F8000
00000000
00000000
00000000
00000000
00000000
00000000
00000000
00000000
00000000
00000000
00000000
00000000
00000000
00000000
ENDCHAR

STARTCHAR CODE137
ENCODING 137
SWIDTH 451 0
DWIDTH 32 0
BBX 32 64 0 -6
BITMAP
00000000
00000000
00000000
00000000
00000000
00000000
00000000
00000000
00000000
00000000
00000000
00000000
00000000
00000000
00000000
00000000
00000000
000F1E00
000F9F00
001FBF00
001FBF00
001FBF00
001F3E00
000F1E00
00000000
00000000
00000000
00000000
00000000
00078000
001FC000
003FC000
007FE000
00FFE000
00F9E000
01F3C000
01F3C000
03E7C000
03EF8000
03DF8700
03FF0F00
03FE0F00
03F81F00
03E03E00
03E07E00
03F1FC00
01FFF800
01FFF000
00FFC000
003F8000
00000000
00000000
00000000
00000000
00000000
00000000
00000000
00000000
00000000
00000000
00000000
00000000
00000000
00000000
ENDCHAR

STARTCHAR CODE138
ENCODING 138
SWIDTH 451 0
DWIDTH 32 0
BBX 32 64 0 -6
BITMAP
00000000
00000000
00000000
00000000
00000000
00000000
00000000
00000000
00000000
00000000
00000000
00000000
00000000
00000000
00000000
00000000
00000000
00000000
00038000
0003C000
0003E000
0003F000
0001F800
0000FC00
00007C00
00003C00
00001C00
00000000
00000000
00078000
001FC000
003FC000
007FE000
00FFE000
00F9E000
01F3C000
01F3C000
03E7C000
03EF8000
03DF8700
03FF0F00
03FE0F00
03F81F00
03E03E00
03E07E00
03F1FC00
01FFF800
01FFF000
00FFC000
003F8000
00000000
00000000
00000000
00000000
00000000
00000000
00000000
00000000
00000000
00000000
00000000
00000000
00000000
00000000
ENDCHAR

STARTCHAR CODE139
ENCODING 139
SWIDTH 451 0
DWIDTH 32 0
BBX 32 64 0 -6
BITMAP
00000000
00000000
00000000
00000000
00000000
00000000
00000000
00000000
00000000
00000000
00000000
00000000
00000000
00000000
00000000
00000000
00000000
000F1E00
000F9F00
001FBF00
001FBF00
001FBF00
001F3E00
000F1E00
00000000
00000000
00000000
00000000
00000000
0001C000
0001C000
0003C000
0003C000
0007C000
00078000
00078000
000F8000
000F8000
000F0000
000F0000
001F0000
001F0000
001F0000
001E0000
001E0000
003E0000
003E0000
003E0000
003E0000
003E0000
001C0000
00000000
00000000
00000000
00000000
00000000
00000000
00000000
00000000
00000000
00000000
00000000
00000000
00000000
ENDCHAR

STARTCHAR CODE140
ENCODING 140
SWIDTH 451 0
DWIDTH 32 0
BBX 32 64 0 -6
BITMAP
00000000
00000000
00000000
00000000
00000000
00000000
00000000
00000000
00000000
00000000
00000000
00000000
00000000
00000000
00000000
00000000
00000000
00000000
00000000
00000000
0001F000
0007FC00
000FFE00
000FFE00
000F9F00
00070F00
00000F00
00000000
00000000
0001C000
0001C000
0003C000
0003C000
0007C000
00078000
00078000
000F8000
000F8000
000F0000
000F0000
001F0000
001F0000
001F0000
001E0000
001E0000
003E0000
003E0000
003E0000
003E0000
003E0000
001C0000
00000000
00000000
00000000
00000000
00000000
00000000
00000000
00000000
00000000
00000000
00000000
00000000
00000000
ENDCHAR

STARTCHAR CODE141
ENCODING 141
SWIDTH 451 0
DWIDTH 32 0
BBX 32 64 0 -6
BITMAP
00000000
00000000
00000000
00000000
00000000
00000000
00000000
00000000
00000000
00000000
00000000
00000000
00000000
00000000
00000000
00000000
00000000
00000000
00038000
0003C000
0003E000
0003F000
0001F800
0000FC00
00007C00
00003C00
00001C00
00000000
00000000
0001C000
0001C000
0003C000
0003C000
0007C000
00078000
00078000
000F8000
000F8000
000F0000
000F0000
001F0000
001F0000
001F0000
001E0000
001E0000
003E0000
003E0000
003E0000
003E0000
003E0000
001C0000
00000000
00000000
00000000
00000000
00000000
00000000
00000000
00000000
00000000
00000000
00000000
00000000
00000000
ENDCHAR

STARTCHAR CODE142
ENCODING 142
SWIDTH 451 0
DWIDTH 32 0
BBX 32 64 0 -6
BITMAP
00000000
000078F0
00007CF8
0000FDF8
0000FDF8
0000FDF8
0000F9F0
000078F0
00000000
00000000
00000000
00000000
000001E0
000003E0
00000FF0
00001FF0
00003FF0
00007FF0
00007FF0
0000FDE0
0001FBE0
0003FBE0
0003F3E0
0007E3E0
000FC3E0
000FC3E0
001F83E0
001F03E0
003F03E0
003E03FE
007E0FFF
007CFFFF
00FFFFFF
00FFFFFC
03FFFFE0
1FFFF3E0
FFFF83E0
FFF803E0
FFE003E0
7FE003E0
7FE001F0
07C001F0
0FC001F0
0FC001F0
0F8001F0
1F8001F0
1F0000F8
1F0000F8
3F0000F8
3E0000F8
3E00007C
3E00007C
3E00003C
1C000000
00000000
00000000
00000000
00000000
00000000
00000000
00000000
00000000
00000000
00000000
ENDCHAR

STARTCHAR CODE143
ENCODING 143
SWIDTH 451 0
DWIDTH 32 0
BBX 32 64 0 -6
BITMAP
00000000
00000F80
00001FC0
00001FC0
00003DC0
000039C0
000039C0
00003BC0
00003FC0
00003F80
00001F00
00000000
000001E0
000003E0
00000FF0
00001FF0
00003FF0
00007FF0
00007FF0
0000FDE0
0001FBE0
0003FBE0
0003F3E0
0007E3E0
000FC3E0
000FC3E0
001F83E0
001F03E0
003F03E0
003E03FE
007E0FFF
007CFFFF
00FFFFFF
00FFFFFC
03FFFFE0
1FFFF3E0
FFFF83E0
FFF803E0
FFE003E0
7FE003E0
7FE001F0
07C001F0
0FC001F0
0FC001F0
0F8001F0
1F8001F0
1F0000F8
1F0000F8
3F0000F8
3E0000F8
3E00007C
3E00007C
3E00003C
1C000000
00000000
00000000
00000000
00000000
00000000
00000000
00000000
00000000
00000000
00000000
ENDCHAR

STARTCHAR CODE144
ENCODING 144
SWIDTH 451 0
DWIDTH 32 0
BBX 32 64 0 -6
BITMAP
00000000
00000E00
00001E00
00003E00
00003E00
00007E00
0000FC00
0000F800
0000F800
0000F000
00000000
00000000
00000FFC
0003FFFE
003FFFFE
00FFFFFE
00FFFFFC
00FFE000
00FE0000
007E0000
007C0000
007C0000
00FC0000
00F80000
00F80000
01F80000
01F00000
01F7FF00
03FFFF80
03FFFF80
03FFFF80
03FF0000
07F00000
07C00000
07C00000
07C00000
07800000
0F800000
0F800000
0F800000
0F800000
0F000000
0F000000
1F007F80
1F1FFF80
1FFFFF80
1FFFFF00
1FFFE000
1FFC0000
1FE00000
0F800000
00000000
00000000
00000000
00000000
00000000
00000000
00000000
00000000
00000000
00000000
00000000
00000000
00000000
ENDCHAR

STARTCHAR CODE145
ENCODING 145
SWIDTH 451 0
DWIDTH 32 0
BBX 32 64 0 -6
BITMAP
00000000
00000000
00000000
00000000
00000000
00000000
00000000
00000000
00000000
00000000
00000000
00000000
00000000
00000000
00000000
00000000
00000000
00000000
00000000
00000000
00000000
00000000
00000000
00000000
00000000
00000000
00000000
00000000
01FC3C00
07FEFE00
0FFFFF00
0FFFFF00
0F8FFF80
060FE780
000FC780
000FC780
07FF8F00
0FFF9F00
1FFFFF70
1FBFFE70
3E1FFCF0
3E1FF0F0
3C1F01F0
3C1F01E0
3C3F83E0
3C7F87C0
3FFFFFC0
3FFFFF80
1FF3FF00
0FE1FE00
07C0F800
00000000
00000000
00000000
00000000
00000000
00000000
00000000
00000000
00000000
00000000
00000000
00000000
00000000
ENDCHAR

STARTCHAR CODE146
ENCODING 146
SWIDTH 451 0
DWIDTH 32 0
BBX 32 64 0 -6
BITMAP
00000000
00000000
00000000
00000000
00000000
00000000
000001FE
00001FFF
0001FFFF
001FFFFF
003FFFFF
003FFF00
003FFE00
001FFE00
000FFE00
000FFE00
001FBE00
001FBE00
003F7E00
003F7E00
007E7C00
007E7C00
00FC7C00
00FC7C00
01F87FFC
01F8FFFC
03FFFFFC
0FFFFFFC
FFFFFF80
FFFFFC00
FFFCF800
FFC0F800
0FC0F800
0FC0F800
0F80F800
1F80F800
1F80F800
1F00F800
3F01F000
3F01F000
3F01F000
3E01F000
7E01F000
7E01F000
7E01F07E
7C01F7FF
FC01FFFF
FC01FFFF
FC00FFFC
F800FFC0
78007E00
00003800
00000000
00000000
00000000
00000000
00000000
00000000
00000000
00000000
00000000
00000000
00000000
00000000
ENDCHAR

STARTCHAR CODE147
ENCODING 147
SWIDTH 451 0
DWIDTH 32 0
BBX 32 64 0 -6
BITMAP
00000000
00000000
00000000
00000000
00000000
00000000
00000000
00000000
00000000
00000000
00000000
00000000
00000000
00000000
00000000
00000000
00000000
00000000
00000000
00000000
0001F800
0007FC00
000FFE00
000FFE00
000F9F00
00070F00
00000F00
00000000
0001F000
0007F800
000FF800
001FFC00
001F7C00
003E3C00
003C3C00
007C7C00
00787C00
0078FC00
00F0FC00
00F0FC00
00F0F800
00F07800
00F07800
00F0F800
00F0F000
00F1F000
00FBE000
00FFE000
007FC000
007F8000
003E0000
00000000
00000000
00000000
00000000
00000000
00000000
00000000
00000000
00000000
00000000
00000000
00000000
00000000
ENDCHAR

STARTCHAR CODE148
ENCODING 148
SWIDTH 451 0
DWIDTH 32 0
BBX 32 64 0 -6
BITMAP
00000000
00000000
00000000
00000000
00000000
00000000
00000000
00000000
00000000
00000000
00000000
00000000
00000000
00000000
00000000
00000000
00000000
000F1E00
000F9F00
001FBF00
001FBF00
001FBF00
001F3E00
000F1E00
00000000
00000000
00000000
00000000
0001F000
0007F800
000FF800
001FFC00
001F7C00
003E3C00
003C3C00
007C7C00
00787C00
0078FC00
00F0FC00
00F0FC00
00F0F800
00F07800
00F07800
00F0F800
00F0F000
00F1F000
00FBE000
00FFE000
007FC000
007F8000
003E0000
00000000
00000000
00000000
00000000
00000000
00000000
00000000
00000000
00000000
00000000
00000000
00000000
00000000
ENDCHAR

STARTCHAR CODE149
ENCODING 149
SWIDTH 451 0
DWIDTH 32 0
BBX 32 64 0 -6
BITMAP
00000000
00000000
00000000
00000000
00000000
00000000
00000000
00000000
00000000
00000000
00000000
00000000
00000000
00000000
00000000
00000000
00000000
00000000
00000000
0003C000
0003E000
0003F000
0001F800
0000FC00
00007E00
00003E00
00001E00
00000000
0001F000
0007F800
000FF800
001FFC00
001F7C00
003E3C00
003C3C00
007C7C00
00787C00
0078FC00
00F0FC00
00F0FC00
00F0F800
00F07800
00F07800
00F0F800
00F0F000
00F1F000
00FBE000
00FFE000
007FC000
007F8000
003E0000
00000000
00000000
00000000
00000000
00000000
00000000
00000000
00000000
00000000
00000000
00000000
00000000
00000000
ENDCHAR

STARTCHAR CODE150
ENCODING 150
SWIDTH 451 0
DWIDTH 32 0
BBX 32 64 0 -6
BITMAP
00000000
00000000
00000000
00000000
00000000
00000000
00000000
00000000
00000000
00000000
00000000
00000000
00000000
00000000
00000000
00000000
00000000
00000000
00000000
00000000
0001F000
0007FC00
000FFE00
000FFE00
000F9F00
00070F00
00000F00
00000000
00000000
00000000
00000000
003C0000
007CF000
007CF000
00F8F000
00F0F000
01F1F000
01F1F000
01E1E000
01E1E000
03E3E000
03E3E000
03C3E000
03C7E000
03C7F000
03EFF000
01FFF800
01FF7C00
01FE3F00
00FC1F00
00000700
00000000
00000000
00000000
00000000
00000000
00000000
00000000
00000000
00000000
00000000
00000000
00000000
00000000
ENDCHAR

STARTCHAR CODE151
ENCODING 151
SWIDTH 451 0
DWIDTH 32 0
BBX 32 64 0 -6
BITMAP
00000000
00000000
00000000
00000000
00000000
00000000
00000000
00000000
00000000
00000000
00000000
00000000
00000000
00000000
00000000
00000000
00000000
00000000
00000000
0003C000
0003E000
0003F000
0001F800
0000FC00
00007E00
00003E00
00001E00
00000000
00000000
00000000
00000000
003C0000
007CF000
007CF000
00F8F000
00F0F000
01F1F000
01F1F000
01E1E000
01E1E000
03E3E000
03E3E000
03C3E000
03C7E000
03C7F000
03EFF000
01FFF800
01FF7C00
01FE3F00
00FC1F00
00000700
00000000
00000000
00000000
00000000
00000000
00000000
00000000
00000000
00000000
00000000
00000000
00000000
00000000
ENDCHAR

STARTCHAR CODE152
ENCODING 152
SWIDTH 451 0
DWIDTH 32 0
BBX 32 64 0 -6
BITMAP
00000000
00000000
00000000
00000000
00000000
00000000
00000000
00000000
00000000
00000000
00000000
00000000
00000000
00000000
00000000
00000000
00000000
000F1E00
000F9F00
001FBF00
001FBF00
001FBF00
001F3E00
000F1E00
00000000
00000000
00000000
00000000
00000000
00003800
00007C00
00707C00
00F87C00
01F8FC00
01F8FC00
03F1F800
03E1F860
07C3F8E0
07C7F8E0
078FF9E0
079FF3E0
07FFF7C0
07FEFFC0
03FDFF80
01F9FF00
0003FE00
001FFC00
003FF000
00FFE000
01FFE000
03FBE000
07E3C000
07C3C000
0787C000
0F87C000
0F078000
0F0F8000
0F0F8000
0F9F0000
07FF0000
07FE0000
03FC0000
00F80000
00000000
ENDCHAR

STARTCHAR CODE153
ENCODING 153
SWIDTH 451 0
DWIDTH 32 0
BBX 32 64 0 -6
BITMAP
00000000
0000F1E0
0000F9F0
0001FBF0
0001FBF0
0001FBF0
0001F3E0
0000F1E0
00000000
00000000
00000000
00000000
000FF000
007FFE00
01FFFF80
03FFFFC0
07FFFFE0
07EF8FE0
079F83F0
001F01F0
003E01F0
007C00F8
00FC00F8
00F800F8
01F000F8
03F000F8
03E000F8
07C000F8
07C000F8
0F8000F8
0F8000F8
0F0001F8
1F0001F0
1F0001F0
1F0001F0
3E0003F0
3E0003E0
3E0007E0
3E0007C0
3E000FC0
3E000F80
3E001F80
3E003F00
3E003F00
3E007E00
1E00FC00
1F01FC00
1F83F800
0FCFF000
0FFFE000
07FFC000
03FF8000
00FE0000
00000000
00000000
00000000
00000000
00000000
00000000
00000000
00000000
00000000
00000000
00000000
ENDCHAR

STARTCHAR CODE154
ENCODING 154
SWIDTH 451 0
DWIDTH 32 0
BBX 32 64 0 -6
BITMAP
00000000
0000F1E0
0000F9F0
0001FBF0
0001FBF0
0001FBF0
0001F3E0
0000F1E0
00000000
00000000
00000000
00000000
001C0000
003E000E
007E001F
007E003F
00FC003F
01FC007F
01F800FE
03F000FE
03F001FC
07E001FC
07E003FC
0FC003F8
0FC007F8
0F8007F8
1F800FF8
1F800FF0
1F001FF0
1F001FF0
3F003FF0
3E003FF0
3E007DE0
3E007FE0
3E00FBE0
7C00FBE0
7C01F3E0
7C01F3E0
7C03F3E0
7C03E3E0
7C07E3E0
7C07C3E0
7C0FC3E0
7C0F83E0
7C1F03E0
7C3F03E0
3C3E03F0
3E7E01F0
3FFC01F0
1FF801F0
1FF801F0
0FE000E0
07C00000
00000000
00000000
00000000
00000000
00000000
00000000
00000000
00000000
00000000
00000000
00000000
ENDCHAR

STARTCHAR CODE155
ENCODING 155
SWIDTH 451 0
DWIDTH 32 0
BBX 32 64 0 -6
BITMAP
00000000
00000000
00000000
00000000
00000000
00000000
00000000
00000000
00000000
00000000
00000000
00000000
00000000
00000000
00000000
00000000
00000000
00000000
00000000
00007000
00007000
0000F000
0000F000
0001F000
0007F800
001FFC00
003FFE00
007FFE00
00FFDE00
00FBDE00
01F39E00
01F7BC00
01E7BC00
03E7B800
03E70000
03CF0300
03CF0300
03CE0700
03DE0F00
03DE1F00
03FCFE00
01FFFC00
01FFF800
00FFF000
007FC000
00380000
00780000
00780000
00780000
00700000
00700000
00700000
00000000
00000000
00000000
00000000
00000000
00000000
00000000
00000000
00000000
00000000
00000000
00000000
ENDCHAR

STARTCHAR CODE156
ENCODING 156
SWIDTH 451 0
DWIDTH 32 0
BBX 32 64 0 -6
BITMAP
00000000
00000000
00000000
00000000
00000000
00000000
00000000
00000000
00000000
00000000
00000000
00000000
00000000
00000000
00001FF0
00007FF0
0000FFF0
0001FFE0
0001FC00
0003F000
0003E000
0003E000
0007C000
0007C000
0007C000
000F8000
000F8000
000F8000
000F9F80
000FFFC0
007FFFC0
0FFFFFC0
0FFFFF80
0FFF8000
0FFF0000
003F0000
003E0000
003E0000
003E0000
007E0000
007E0000
007C0000
007C0000
00FC0000
00F83F80
01FBFFC0
01FFFFC0
03FFFFC0
0FFFFF80
3FFFF000
3FFE0000
3FF00000
3F800000
1E000000
00000000
00000000
00000000
00000000
00000000
00000000
00000000
00000000
00000000
00000000
ENDCHAR

STARTCHAR CODE157
ENCODING 157
SWIDTH 451 0
DWIDTH 32 0
BBX 32 64 0 -6
BITMAP
00000000
00000000
00000000
00000000
00000000
00000000
00000000
00000000
00000000
00000000
00000000
00000000
00000000
00000038
01C0007C
03E000FC
03E001FC
03F003FC
01F003F8
01F807F0
00F80FE0
00F80FC0
007C1F80
007C1F80
003E3F00
003E3F00
003E7E00
001F7C00
001FFC00
001FF800
000FF800
000FF000
000FF000
0007E000
0007FF80
0007FF80
1FFFFF80
1FFFFF80
1FFF8000
1FFFFE00
003FFE00
7FFFFE00
7FFFFE00
7FFE0000
7FFC0000
00FC0000
00F80000
01F80000
01F00000
01F00000
03F00000
03E00000
03E00000
03E00000
03E00000
01C00000
00000000
00000000
00000000
00000000
00000000
00000000
00000000
00000000
ENDCHAR

STARTCHAR CODE158
ENCODING 158
SWIDTH 451 0
DWIDTH 32 0
BBX 32 64 0 -6
BITMAP
00000000
00000000
00000000
00000000
00000000
00000000
00000000
01C00000
03E00000
03F80000
07FE0000
1FFF0000
3FFF8000
3FFFC000
3FDFC000
1FC7E000
03C3E000
07C3E0E0
07C1E0F0
0781E1F0
0781E1F0
0783E3F0
0F83E3E0
0F83E3E0
0F87C7DF
0F07C7FF
0F0FFFFF
1F0FFFFF
1F1FFFF8
FF7F7F80
FFFE0F00
FFFC1F00
7FF81F00
3FE01E00
3E001E00
3C001E00
7C003E00
7C003E00
7C003C1C
7C003C1C
78003C1C
78003C3C
78003C3C
F8003C38
F8003C78
F8003EF8
F8001FF0
F8001FF0
F8000FE0
F80003C0
F8000000
F8000000
F8000000
70000000
00000000
00000000
00000000
00000000
00000000
00000000
00000000
00000000
00000000
00000000
ENDCHAR

STARTCHAR CODE159
ENCODING 159
SWIDTH 451 0
DWIDTH 32 0
BBX 32 64 0 -6
BITMAP
00000000
00000000
00000000
00000000
00000000
00000000
00000000
00000000
00000000
00000000
000001FF
000007FF
00000FFF
00001FFF
00001FC0
00003F00
00003E00
00007E00
00007C00
00007C00
00007C00
00007800
0000F800
0000F800
0000F800
0000F800
0000FFF0
0000FFF0
003FFFF0
003FFFF0
003FF800
003FF000
0001E000
0003E000
0003E000
0003E000
0003C000
0003C000
0007C000
0007C000
0007C000
00078000
00078000
00078000
000F8000
000F8000
000F8000
000F0000
000F0000
001F0000
001F0000
001F0000
001E0000
003E0000
003E0000
003E0000
007E0000
00FC0000
03FC0000
FFF80000
FFF00000
FFE00000
FF800000
00000000
ENDCHAR

STARTCHAR CODE160
ENCODING 160
SWIDTH 451 0
DWIDTH 32 0
BBX 32 64 0 -6
BITMAP
00000000
00000000
00000000
00000000
00000000
00000000
00000000
00000000
00000000
00000000
00000000
00000000
00000000
00000000
00000000
00000000
00000000
00007800
00007800
00007800
0000F800
0000F000
0001F000
0001E000
0003E000
0003C000
00038000
00000000
0007C000
001FE000
003FF000
007FF000
00FFF000
00FEF000
01F8F000
01F0F000
01E0F000
03E1F000
03E1F000
03C1E000
03C1E000
03C3E000
03C3E000
03C3E000
03C7E000
03EFF000
01FFF000
01FFF800
01FE7F00
00FC7F00
00383F00
00000F00
00000000
00000000
00000000
00000000
00000000
00000000
00000000
00000000
00000000
00000000
00000000
00000000
ENDCHAR

STARTCHAR CODE161
ENCODING 161
SWIDTH 451 0
DWIDTH 32 0
BBX 32 64 0 -6
BITMAP
00000000
00000000
00000000
00000000
00000000
00000000
00000000
00000000
00000000
00000000
00000000
00000000
00000000
00000000
00000000
00000000
00000000
00007800
00007800
00007800
0000F800
0000F000
0001F000
0001E000
0003E000
0003C000
00038000
00000000
00000000
0001C000
0001C000
0003C000
0003C000
0007C000
00078000
00078000
000F8000
000F8000
000F0000
000F0000
001F0000
001F0000
001F0000
001E0000
001E0000
003E0000
003E0000
003E0000
003E0000
003E0000
001C0000
00000000
00000000
00000000
00000000
00000000
00000000
00000000
00000000
00000000
00000000
00000000
00000000
00000000
ENDCHAR

STARTCHAR CODE162
ENCODING 162
SWIDTH 451 0
DWIDTH 32 0
BBX 32 64 0 -6
BITMAP
00000000
00000000
00000000
00000000
00000000
00000000
00000000
00000000
00000000
00000000
00000000
00000000
00000000
00000000
00000000
00000000
00000000
00007800
00007800
00007800
0000F800
0000F000
0001F000
0001E000
0003E000
0003C000
00038000
00000000
0001F000
0007F800
000FF800
001FFC00
001F7C00
003E3C00
003C3C00
007C7C00
00787C00
0078FC00
00F0FC00
00F0FC00
00F0F800
00F07800
00F07800
00F0F800
00F0F000
00F1F000
00FBE000
00FFE000
007FC000
007F8000
003E0000
00000000
00000000
00000000
00000000
00000000
00000000
00000000
00000000
00000000
00000000
00000000
00000000
00000000
ENDCHAR

STARTCHAR CODE163
ENCODING 163
SWIDTH 451 0
DWIDTH 32 0
BBX 32 64 0 -6
BITMAP
00000000
00000000
00000000
00000000
00000000
00000000
00000000
00000000
00000000
00000000
00000000
00000000
00000000
00000000
00000000
00000000
00000000
0000F000
0000F000
0000F000
0001F000
0001E000
0003E000
0003C000
0007C000
00078000
00070000
00000000
00000000
00000000
00000000
003C0000
007CF000
007CF000
00F8F000
00F0F000
01F1F000
01F1F000
01E1E000
01E1E000
03E3E000
03E3E000
03C3E000
03C7E000
03C7F000
03EFF000
01FFF800
01FF7C00
01FE3F00
00FC1F00
00000700
00000000
00000000
00000000
00000000
00000000
00000000
00000000
00000000
00000000
00000000
00000000
00000000
00000000
ENDCHAR

STARTCHAR CODE164
ENCODING 164
SWIDTH 451 0
DWIDTH 32 0
BBX 32 64 0 -6
BITMAP
00000000
00000000
00000000
00000000
00000000
00000000
00000000
00000000
00000000
00000000
00000000
00000000
00000000
00000000
00000000
00000000
00000000
00000000
00000000
00000000
001F8700
003FE700
003FFF00
0039FF00
00387E00
00000000
00000000
00000000
00000000
00000000
00007000
0070F800
0079F800
00FBF800
00FFF800
00FFF000
01FFF000
01FFE000
01FFE000
03FFC000
03FFC000
03F7C000
03E78000
03E78000
07E78000
07C78000
07C78000
07C7C000
0783C000
0783C000
0003E000
0001E000
0001F000
0000F000
00000000
00000000
00000000
00000000
00000000
00000000
00000000
00000000
00000000
00000000
ENDCHAR

STARTCHAR CODE165
ENCODING 165
SWIDTH 451 0
DWIDTH 32 0
BBX 32 64 0 -6
BITMAP
00000000
00000000
00000000
0003E000
0007F830
0007FC78
0007FFF8
00071FF8
00030FF0
000003E0
00000000
00000000
0000001C
0000001E
001C003E
003E003E
003E003E
007E007E
007E007C
00FE007C
00FE00F8
01FE00F8
01FE00F8
01FE00F0
03FE01F0
03DF01F0
03DF01F0
079F01E0
078F03E0
078F03E0
0F0F03E0
0F0F83C0
0F0F83C0
0E0787C0
1E0787C0
1E07C7C0
1E07C780
1E03C780
3E03E780
3E03E780
3C03E780
3C01FF80
3C01FF80
3C01FF80
3C00FF80
7C00FF00
7C00FF00
7C007F00
7C007F00
7C007F00
7C003F00
7C003F00
7C001E00
38000000
00000000
00000000
00000000
00000000
00000000
00000000
00000000
00000000
00000000
00000000
ENDCHAR

STARTCHAR CODE166
ENCODING 166
SWIDTH 451 0
DWIDTH 32 0
BBX 32 64 0 -6
BITMAP
00000000
00000000
00000000
00000000
00000000
00000000
00000000
0000F800
0001FC00
0003FC00
0007FC00
0007BC00
000F3C00
000F7C00
000E7800
000E7800
000EFC00
000FFC00
000FFE00
0007DF00
00000F00
00000000
000FFF00
000FFF00
000FFF00
00000000
00000000
00000000
00000000
00000000
00000000
00000000
00000000
00000000
00000000
00000000
00000000
00000000
00000000
00000000
00000000
00000000
00000000
00000000
00000000
00000000
00000000
00000000
00000000
00000000
00000000
00000000
00000000
00000000
00000000
00000000
00000000
00000000
00000000
00000000
00000000
00000000
00000000
00000000
ENDCHAR

STARTCHAR CODE167
ENCODING 167
SWIDTH 451 0
DWIDTH 32 0
BBX 32 64 0 -6
BITMAP
00000000
00000000
00000000
00000000
00000000
00000000
00000000
00007C00
0000FE00
0001FE00
0001EE00
0003CE00
00038E00
00039E00
00079C00
00071C00
00073C00
00077800
0007F800
0007F000
0003E000
00000000
001FFE00
001FFE00
001FFE00
00000000
00000000
00000000
00000000
00000000
00000000
00000000
00000000
00000000
00000000
00000000
00000000
00000000
00000000
00000000
00000000
00000000
00000000
00000000
00000000
00000000
00000000
00000000
00000000
00000000
00000000
00000000
00000000
00000000
00000000
00000000
00000000
00000000
00000000
00000000
00000000
00000000
00000000
00000000
ENDCHAR

STARTCHAR CODE168
ENCODING 168
SWIDTH 451 0
DWIDTH 32 0
BBX 32 64 0 -6
BITMAP
00000000
00000000
00000000
00000000
00000000
00000000
00000000
00000000
00000000
00000000
00000000
00000000
00000000
00000000
00000000
00007800
0000FC00
0000FC00
0001FC00
0001FC00
0001F800
0001F800
0000F000
00000000
00000000
00000000
00000000
00000000
0000E000
0001F000
0001F000
0001F000
0001F000
0001F000
0001F000
0003F000
0007E000
0007E000
000FC000
001FC000
003F8000
007F0000
00FE0000
01FC0000
03F80000
07F00000
0FE00000
1FC00000
3F000000
3E000C00
7C001E00
7C001E00
78003E00
78007E00
7800FC00
7C03FC00
3C07F800
3F3FF000
1FFFE000
0FFF8000
03FE0000
00000000
00000000
00000000
ENDCHAR

STARTCHAR CODE169
ENCODING 169
SWIDTH 451 0
DWIDTH 32 0
BBX 32 64 0 -6
BITMAP
00000000
00000000
00000000
00000000
00000000
00000000
00000000
00000000
00000000
00000000
00000000
00000000
00000000
00000000
00000000
00000000
00000000
00000000
00000000
00000000
00000000
00000000
00000000
00000000
1FFFFFF8
1FFFFFF8
1FFFFFF8
1FFFFFF8
1C000000
1C000000
1C000000
1C000000
1C000000
1C000000
1C000000
1C000000
1C000000
1C000000
1C000000
00000000
00000000
00000000
00000000
00000000
00000000
00000000
00000000
00000000
00000000
00000000
00000000
00000000
00000000
00000000
00000000
00000000
00000000
00000000
00000000
00000000
00000000
00000000
00000000
00000000
ENDCHAR

STARTCHAR CODE170
ENCODING 170
SWIDTH 451 0
DWIDTH 32 0
BBX 32 64 0 -6
BITMAP
00000000
00000000
00000000
00000000
00000000
00000000
00000000
00000000
00000000
00000000
00000000
00000000
00000000
00000000
00000000
00000000
00000000
00000000
00000000
00000000
00000000
00000000
00000000
00000000
1FFFFFF8
1FFFFFF8
1FFFFFF8
1FFFFFF8
00000038
00000038
00000038
00000038
00000038
00000038
00000038
00000038
00000038
00000038
00000038
00000000
00000000
00000000
00000000
00000000
00000000
00000000
00000000
00000000
00000000
00000000
00000000
00000000
00000000
00000000
00000000
00000000
00000000
00000000
00000000
00000000
00000000
00000000
00000000
00000000
ENDCHAR

STARTCHAR CODE171
ENCODING 171
SWIDTH 451 0
DWIDTH 32 0
BBX 32 64 0 -6
BITMAP
00000000
00000000
00000380
000007C0
00001FC0
00003FC0
0000FFC0
0007FF80
0007FF80
0003EF80
00001F00
00001F00
00001E00
00003E00
00003E00
00003C00
00007C00
00007C00
00007800
00007800
0000F800
0000F800
0000F000
0000F000
0000F000
00007000
00000000
00000000
007FFFC0
0FFFFFFE
0FFFFFFE
0FFFFFFE
0FC0007E
00000000
00000000
00000000
0007F000
001FFC00
003FFE00
007FFF00
00FE3F00
00F81F00
00F01F00
00F01F00
00003F00
00003E00
00007E00
0001FC00
0003F800
0007F000
000FC000
001F8000
003F0000
007E0000
00FC0000
01FBFE00
01FFFE00
01FFFE00
01FFFE00
00FE0000
00000000
00000000
00000000
00000000
ENDCHAR

STARTCHAR CODE172
ENCODING 172
SWIDTH 451 0
DWIDTH 32 0
BBX 32 64 0 -6
BITMAP
00000000
00000000
00000380
000007C0
00001FC0
00003FC0
0000FFC0
0007FF80
0007FF80
0003EF80
00001F00
00001F00
00001E00
00003E00
00003E00
00003C00
00007C00
00007C00
00007800
00007800
0000F800
0000F800
0000F000
0000F000
0000F000
00007000
00000000
00000000
007FFFC0
0FFFFFFE
0FFFFFFE
0FFFFFFE
0FC0007E
00000000
00000000
00000700
00001F00
00007F00
0000FF00
0001FF00
0003FF00
0007FE00
000FDE00
001FBE00
001F3C00
003E7C00
007C7C00
00FC7800
00F8FFC0
01FFFFC0
03FFFFC0
03FFFFC0
03FFF000
01F1F000
0001E000
0003E000
0003E000
0003E000
0003E000
0003E000
0001C000
00000000
00000000
00000000
ENDCHAR

STARTCHAR CODE173
ENCODING 173
SWIDTH 451 0
DWIDTH 32 0
BBX 32 64 0 -6
BITMAP
00000000
00000000
00000000
00000000
00000000
00000000
00000000
00000000
00000000
00000000
00000000
00000000
00000000
00000000
00000000
00003C00
00003C00
00007C00
00007C00
00007C00
00007800
00007800
00000000
00000000
0001E000
0003E000
0003E000
0003E000
0007E000
0007E000
0007C000
000FC000
000FC000
000F8000
001F8000
001F8000
001F0000
003F0000
003F0000
003E0000
003E0000
007E0000
007C0000
007C0000
00FC0000
00FC0000
00F80000
01F80000
01F80000
01F00000
01F00000
03F00000
03E00000
03E00000
07E00000
07E00000
07C00000
07C00000
07C00000
07800000
07800000
00000000
00000000
00000000
ENDCHAR

STARTCHAR CODE174
ENCODING 174
SWIDTH 451 0
DWIDTH 32 0
BBX 32 64 0 -6
BITMAP
00000000
00000000
00000000
00000000
00000000
00000000
00000000
00000000
00000000
00000000
00000000
00000000
00000000
00000000
00000000
00000000
00000000
00000000
00000000
00000000
00000000
00000000
00000000
000E0E00
001F1F00
003F3F00
007F7F00
00FEFE00
00FCFC00
01F9F800
01F1F000
01F9F800
00FCFC00
00FEFE00
007F7F00
003F3F00
001F1F00
000E0E00
00000000
00000000
00000000
00000000
00000000
00000000
00000000
00000000
00000000
00000000
00000000
00000000
00000000
00000000
00000000
00000000
00000000
00000000
00000000
00000000
00000000
00000000
00000000
00000000
00000000
00000000
ENDCHAR

STARTCHAR CODE175
ENCODING 175
SWIDTH 451 0
DWIDTH 32 0
BBX 32 64 0 -6
BITMAP
00000000
00000000
00000000
00000000
00000000
00000000
00000000
00000000
00000000
00000000
00000000
00000000
00000000
00000000
00000000
00000000
00000000
00000000
00000000
00000000
00000000
00000000
00000000
00000000
00E0E000
01F1F000
01F9F800
01FDFC00
00FEFE00
007E7E00
003F3F00
001F1F00
003F3F00
007E7E00
00FEFE00
00FCFC00
00F8F800
00707000
00000000
00000000
00000000
00000000
00000000
00000000
00000000
00000000
00000000
00000000
00000000
00000000
00000000
00000000
00000000
00000000
00000000
00000000
00000000
00000000
00000000
00000000
00000000
00000000
00000000
00000000
ENDCHAR

STARTCHAR CODE176
ENCODING 176
SWIDTH 451 0
DWIDTH 32 0
BBX 32 64 0 -6
BITMAP
66666666
66666666
00000000
00000000
66666666
66666666
00000000
00000000
66666666
66666666
00000000
00000000
66666666
66666666
00000000
00000000
66666666
66666666
00000000
00000000
66666666
66666666
00000000
00000000
66666666
66666666
00000000
00000000
66666666
66666666
00000000
00000000
66666666
66666666
00000000
00000000
66666666
66666666
00000000
00000000
66666666
66666666
00000000
00000000
66666666
66666666
00000000
00000000
66666666
66666666
00000000
00000000
66666666
66666666
00000000
00000000
66666666
66666666
00000000
00000000
66666666
66666666
00000000
00000000
ENDCHAR

STARTCHAR CODE177
ENCODING 177
SWIDTH 451 0
DWIDTH 32 0
BBX 32 64 0 -6
BITMAP
FFFFFFFF
FFFFFFFF
66666666
66666666
FFFFFFFF
FFFFFFFF
66666666
66666666
FFFFFFFF
FFFFFFFF
66666666
66666666
FFFFFFFF
FFFFFFFF
66666666
66666666
FFFFFFFF
FFFFFFFF
66666666
66666666
FFFFFFFF
FFFFFFFF
66666666
66666666
FFFFFFFF
FFFFFFFF
66666666
66666666
FFFFFFFF
FFFFFFFF
66666666
66666666
FFFFFFFF
FFFFFFFF
66666666
66666666
FFFFFFFF
FFFFFFFF
66666666
66666666
FFFFFFFF
FFFFFFFF
66666666
66666666
FFFFFFFF
FFFFFFFF
66666666
66666666
FFFFFFFF
FFFFFFFF
66666666
66666666
FFFFFFFF
FFFFFFFF
66666666
66666666
FFFFFFFF
FFFFFFFF
66666666
66666666
FFFFFFFF
FFFFFFFF
66666666
00000000
ENDCHAR

STARTCHAR CODE178
ENCODING 178
SWIDTH 451 0
DWIDTH 32 0
BBX 32 64 0 -6
BITMAP
00000000
1C1C1C1C
3E3E3E3E
3E3E3E3E
3E3E3E3E
1C1C1C1C
00000000
00000000
00000000
1C1C1C1C
3E3E3E3E
3E3E3E3E
3E3E3E3E
1C1C1C1C
00000000
00000000
00000000
1C1C1C1C
3E3E3E3E
3E3E3E3E
3E3E3E3E
1C1C1C1C
00000000
00000000
00000000
1C1C1C1C
3E3E3E3E
3E3E3E3E
3E3E3E3E
1C1C1C1C
00000000
00000000
00000000
1C1C1C1C
3E3E3E3E
3E3E3E3E
3E3E3E3E
1C1C1C1C
00000000
00000000
00000000
1C1C1C1C
3E3E3E3E
3E3E3E3E
3E3E3E3E
1C1C1C1C
00000000
00000000
00000000
1C1C1C1C
3E3E3E3E
3E3E3E3E
3E3E3E3E
1C1C1C1C
00000000
00000000
00000000
1C1C1C1C
3E3E3E3E
3E3E3E3E
3E3E3E3E
1C1C1C1C
00000000
00000000
ENDCHAR

STARTCHAR CODE179
ENCODING 179
SWIDTH 451 0
DWIDTH 32 0
BBX 32 64 0 -6
BITMAP
0001C000
0001C000
0001C000
0001C000
0001C000
0001C000
0001C000
0001C000
0001C000
0001C000
0001C000
0001C000
0001C000
0001C000
0001C000
0001C000
0001C000
0001C000
0001C000
0001C000
0001C000
0001C000
0001C000
0001C000
0001C000
0001C000
0001C000
0001C000
0001C000
0001C000
0001C000
0001C000
0001C000
0001C000
0001C000
0001C000
0001C000
0001C000
0001C000
0001C000
0001C000
0001C000
0001C000
0001C000
0001C000
0001C000
0001C000
0001C000
0001C000
0001C000
0001C000
0001C000
0001C000
0001C000
0001C000
0001C000
0001C000
0001C000
0001C000
0001C000
0001C000
0001C000
0001C000
0001C000
ENDCHAR

STARTCHAR CODE180
ENCODING 180
SWIDTH 451 0
DWIDTH 32 0
BBX 32 64 0 -6
BITMAP
0001C000
0001C000
0001C000
0001C000
0001C000
0001C000
0001C000
0001C000
0001C000
0001C000
0001C000
0001C000
0001C000
0001C000
0001C000
0001C000
0001C000
0001C000
0001C000
0001C000
0001C000
0001C000
0001C000
0001C000
0001C000
0001C000
0001C000
0001C000
0001C000
0001C000
FFFFC000
FFFFC000
FFFFC000
0001C000
0001C000
0001C000
0001C000
0001C000
0001C000
0001C000
0001C000
0001C000
0001C000
0001C000
0001C000
0001C000
0001C000
0001C000
0001C000
0001C000
0001C000
0001C000
0001C000
0001C000
0001C000
0001C000
0001C000
0001C000
0001C000
0001C000
0001C000
0001C000
0001C000
0001C000
ENDCHAR

STARTCHAR CODE181
ENCODING 181
SWIDTH 451 0
DWIDTH 32 0
BBX 32 64 0 -6
BITMAP
0001C000
0001C000
0001C000
0001C000
0001C000
0001C000
0001C000
0001C000
0001C000
0001C000
0001C000
0001C000
0001C000
0001C000
0001C000
0001C000
0001C000
0001C000
0001C000
0001C000
0001C000
0001C000
0001C000
0001C000
0001C000
0001C000
0001C000
FFFFC000
FFFFC000
FFFFC000
0001C000
0001C000
0001C000
FFFFC000
FFFFC000
FFFFC000
0001C000
0001C000
0001C000
0001C000
0001C000
0001C000
0001C000
0001C000
0001C000
0001C000
0001C000
0001C000
0001C000
0001C000
0001C000
0001C000
0001C000
0001C000
0001C000
0001C000
0001C000
0001C000
0001C000
0001C000
0001C000
0001C000
0001C000
0001C000
ENDCHAR

STARTCHAR CODE182
ENCODING 182
SWIDTH 451 0
DWIDTH 32 0
BBX 32 64 0 -6
BITMAP
000E3800
000E3800
000E3800
000E3800
000E3800
000E3800
000E3800
000E3800
000E3800
000E3800
000E3800
000E3800
000E3800
000E3800
000E3800
000E3800
000E3800
000E3800
000E3800
000E3800
000E3800
000E3800
000E3800
000E3800
000E3800
000E3800
000E3800
000E3800
000E3800
000E3800
FFFE3800
FFFE3800
FFFE3800
000E3800
000E3800
000E3800
000E3800
000E3800
000E3800
000E3800
000E3800
000E3800
000E3800
000E3800
000E3800
000E3800
000E3800
000E3800
000E3800
000E3800
000E3800
000E3800
000E3800
000E3800
000E3800
000E3800
000E3800
000E3800
000E3800
000E3800
000E3800
000E3800
000E3800
000E3800
ENDCHAR

STARTCHAR CODE183
ENCODING 183
SWIDTH 451 0
DWIDTH 32 0
BBX 32 64 0 -6
BITMAP
00000000
00000000
00000000
00000000
00000000
00000000
00000000
00000000
00000000
00000000
00000000
00000000
00000000
00000000
00000000
00000000
00000000
00000000
00000000
00000000
00000000
00000000
00000000
00000000
00000000
00000000
00000000
00000000
00000000
00000000
FFFFF800
FFFFF800
FFFFF800
000E3800
000E3800
000E3800
000E3800
000E3800
000E3800
000E3800
000E3800
000E3800
000E3800
000E3800
000E3800
000E3800
000E3800
000E3800
000E3800
000E3800
000E3800
000E3800
000E3800
000E3800
000E3800
000E3800
000E3800
000E3800
000E3800
000E3800
000E3800
000E3800
000E3800
000E3800
ENDCHAR

STARTCHAR CODE184
ENCODING 184
SWIDTH 451 0
DWIDTH 32 0
BBX 32 64 0 -6
BITMAP
00000000
00000000
00000000
00000000
00000000
00000000
00000000
00000000
00000000
00000000
00000000
00000000
00000000
00000000
00000000
00000000
00000000
00000000
00000000
00000000
00000000
00000000
00000000
00000000
00000000
00000000
00000000
FFFFC000
FFFFC000
FFFFC000
0001C000
0001C000
0001C000
FFFFC000
FFFFC000
FFFFC000
0001C000
0001C000
0001C000
0001C000
0001C000
0001C000
0001C000
0001C000
0001C000
0001C000
0001C000
0001C000
0001C000
0001C000
0001C000
0001C000
0001C000
0001C000
0001C000
0001C000
0001C000
0001C000
0001C000
0001C000
0001C000
0001C000
0001C000
0001C000
ENDCHAR

STARTCHAR CODE185
ENCODING 185
SWIDTH 451 0
DWIDTH 32 0
BBX 32 64 0 -6
BITMAP
000E3800
000E3800
000E3800
000E3800
000E3800
000E3800
000E3800
000E3800
000E3800
000E3800
000E3800
000E3800
000E3800
000E3800
000E3800
000E3800
000E3800
000E3800
000E3800
000E3800
000E3800
000E3800
000E3800
000E3800
000E3800
000E3800
000E3800
FFFE3800
FFFE3800
FFFE3800
00003800
00003800
00003800
FFFE3800
FFFE3800
FFFE3800
000E3800
000E3800
000E3800
000E3800
000E3800
000E3800
000E3800
000E3800
000E3800
000E3800
000E3800
000E3800
000E3800
000E3800
000E3800
000E3800
000E3800
000E3800
000E3800
000E3800
000E3800
000E3800
000E3800
000E3800
000E3800
000E3800
000E3800
000E3800
ENDCHAR

STARTCHAR CODE186
ENCODING 186
SWIDTH 451 0
DWIDTH 32 0
BBX 32 64 0 -6
BITMAP
000E3800
000E3800
000E3800
000E3800
000E3800
000E3800
000E3800
000E3800
000E3800
000E3800
000E3800
000E3800
000E3800
000E3800
000E3800
000E3800
000E3800
000E3800
000E3800
000E3800
000E3800
000E3800
000E3800
000E3800
000E3800
000E3800
000E3800
000E3800
000E3800
000E3800
000E3800
000E3800
000E3800
000E3800
000E3800
000E3800
000E3800
000E3800
000E3800
000E3800
000E3800
000E3800
000E3800
000E3800
000E3800
000E3800
000E3800
000E3800
000E3800
000E3800
000E3800
000E3800
000E3800
000E3800
000E3800
000E3800
000E3800
000E3800
000E3800
000E3800
000E3800
000E3800
000E3800
000E3800
ENDCHAR

STARTCHAR CODE187
ENCODING 187
SWIDTH 451 0
DWIDTH 32 0
BBX 32 64 0 -6
BITMAP
00000000
00000000
00000000
00000000
00000000
00000000
00000000
00000000
00000000
00000000
00000000
00000000
00000000
00000000
00000000
00000000
00000000
00000000
00000000
00000000
00000000
00000000
00000000
00000000
00000000
00000000
00000000
FFFFF800
FFFFF800
FFFFF800
00003800
00003800
00003800
FFFE3800
FFFE3800
FFFE3800
000E3800
000E3800
000E3800
000E3800
000E3800
000E3800
000E3800
000E3800
000E3800
000E3800
000E3800
000E3800
000E3800
000E3800
000E3800
000E3800
000E3800
000E3800
000E3800
000E3800
000E3800
000E3800
000E3800
000E3800
000E3800
000E3800
000E3800
000E3800
ENDCHAR

STARTCHAR CODE188
ENCODING 188
SWIDTH 451 0
DWIDTH 32 0
BBX 32 64 0 -6
BITMAP
000E3800
000E3800
000E3800
000E3800
000E3800
000E3800
000E3800
000E3800
000E3800
000E3800
000E3800
000E3800
000E3800
000E3800
000E3800
000E3800
000E3800
000E3800
000E3800
000E3800
000E3800
000E3800
000E3800
000E3800
000E3800
000E3800
000E3800
FFFE3800
FFFE3800
FFFE3800
00003800
00003800
00003800
FFFFF800
FFFFF800
FFFFF800
00000000
00000000
00000000
00000000
00000000
00000000
00000000
00000000
00000000
00000000
00000000
00000000
00000000
00000000
00000000
00000000
00000000
00000000
00000000
00000000
00000000
00000000
00000000
00000000
00000000
00000000
00000000
00000000
ENDCHAR

STARTCHAR CODE189
ENCODING 189
SWIDTH 451 0
DWIDTH 32 0
BBX 32 64 0 -6
BITMAP
000E3800
000E3800
000E3800
000E3800
000E3800
000E3800
000E3800
000E3800
000E3800
000E3800
000E3800
000E3800
000E3800
000E3800
000E3800
000E3800
000E3800
000E3800
000E3800
000E3800
000E3800
000E3800
000E3800
000E3800
000E3800
000E3800
000E3800
000E3800
000E3800
000E3800
FFFFF800
FFFFF800
FFFFF800
00000000
00000000
00000000
00000000
00000000
00000000
00000000
00000000
00000000
00000000
00000000
00000000
00000000
00000000
00000000
00000000
00000000
00000000
00000000
00000000
00000000
00000000
00000000
00000000
00000000
00000000
00000000
00000000
00000000
00000000
00000000
ENDCHAR

STARTCHAR CODE190
ENCODING 190
SWIDTH 451 0
DWIDTH 32 0
BBX 32 64 0 -6
BITMAP
0001C000
0001C000
0001C000
0001C000
0001C000
0001C000
0001C000
0001C000
0001C000
0001C000
0001C000
0001C000
0001C000
0001C000
0001C000
0001C000
0001C000
0001C000
0001C000
0001C000
0001C000
0001C000
0001C000
0001C000
0001C000
0001C000
0001C000
FFFFC000
FFFFC000
FFFFC000
0001C000
0001C000
0001C000
FFFFC000
FFFFC000
FFFFC000
00000000
00000000
00000000
00000000
00000000
00000000
00000000
00000000
00000000
00000000
00000000
00000000
00000000
00000000
00000000
00000000
00000000
00000000
00000000
00000000
00000000
00000000
00000000
00000000
00000000
00000000
00000000
00000000
ENDCHAR

STARTCHAR CODE191
ENCODING 191
SWIDTH 451 0
DWIDTH 32 0
BBX 32 64 0 -6
BITMAP
00000000
00000000
00000000
00000000
00000000
00000000
00000000
00000000
00000000
00000000
00000000
00000000
00000000
00000000
00000000
00000000
00000000
00000000
00000000
00000000
00000000
00000000
00000000
00000000
00000000
00000000
00000000
00000000
00000000
00000000
FFFFC000
FFFFC000
FFFFC000
0001C000
0001C000
0001C000
0001C000
0001C000
0001C000
0001C000
0001C000
0001C000
0001C000
0001C000
0001C000
0001C000
0001C000
0001C000
0001C000
0001C000
0001C000
0001C000
0001C000
0001C000
0001C000
0001C000
0001C000
0001C000
0001C000
0001C000
0001C000
0001C000
0001C000
0001C000
ENDCHAR

STARTCHAR CODE192
ENCODING 192
SWIDTH 451 0
DWIDTH 32 0
BBX 32 64 0 -6
BITMAP
0001C000
0001C000
0001C000
0001C000
0001C000
0001C000
0001C000
0001C000
0001C000
0001C000
0001C000
0001C000
0001C000
0001C000
0001C000
0001C000
0001C000
0001C000
0001C000
0001C000
0001C000
0001C000
0001C000
0001C000
0001C000
0001C000
0001C000
0001C000
0001C000
0001C000
0001FFFF
0001FFFF
0001FFFF
00000000
00000000
00000000
00000000
00000000
00000000
00000000
00000000
00000000
00000000
00000000
00000000
00000000
00000000
00000000
00000000
00000000
00000000
00000000
00000000
00000000
00000000
00000000
00000000
00000000
00000000
00000000
00000000
00000000
00000000
00000000
ENDCHAR

STARTCHAR CODE193
ENCODING 193
SWIDTH 451 0
DWIDTH 32 0
BBX 32 64 0 -6
BITMAP
0001C000
0001C000
0001C000
0001C000
0001C000
0001C000
0001C000
0001C000
0001C000
0001C000
0001C000
0001C000
0001C000
0001C000
0001C000
0001C000
0001C000
0001C000
0001C000
0001C000
0001C000
0001C000
0001C000
0001C000
0001C000
0001C000
0001C000
0001C000
0001C000
0001C000
FFFFFFFF
FFFFFFFF
FFFFFFFF
00000000
00000000
00000000
00000000
00000000
00000000
00000000
00000000
00000000
00000000
00000000
00000000
00000000
00000000
00000000
00000000
00000000
00000000
00000000
00000000
00000000
00000000
00000000
00000000
00000000
00000000
00000000
00000000
00000000
00000000
00000000
ENDCHAR

STARTCHAR CODE194
ENCODING 194
SWIDTH 451 0
DWIDTH 32 0
BBX 32 64 0 -6
BITMAP
00000000
00000000
00000000
00000000
00000000
00000000
00000000
00000000
00000000
00000000
00000000
00000000
00000000
00000000
00000000
00000000
00000000
00000000
00000000
00000000
00000000
00000000
00000000
00000000
00000000
00000000
00000000
00000000
00000000
00000000
FFFFFFFF
FFFFFFFF
FFFFFFFF
0001C000
0001C000
0001C000
0001C000
0001C000
0001C000
0001C000
0001C000
0001C000
0001C000
0001C000
0001C000
0001C000
0001C000
0001C000
0001C000
0001C000
0001C000
0001C000
0001C000
0001C000
0001C000
0001C000
0001C000
0001C000
0001C000
0001C000
0001C000
0001C000
0001C000
0001C000
ENDCHAR

STARTCHAR CODE195
ENCODING 195
SWIDTH 451 0
DWIDTH 32 0
BBX 32 64 0 -6
BITMAP
0001C000
0001C000
0001C000
0001C000
0001C000
0001C000
0001C000
0001C000
0001C000
0001C000
0001C000
0001C000
0001C000
0001C000
0001C000
0001C000
0001C000
0001C000
0001C000
0001C000
0001C000
0001C000
0001C000
0001C000
0001C000
0001C000
0001C000
0001C000
0001C000
0001C000
0001FFFF
0001FFFF
0001FFFF
0001C000
0001C000
0001C000
0001C000
0001C000
0001C000
0001C000
0001C000
0001C000
0001C000
0001C000
0001C000
0001C000
0001C000
0001C000
0001C000
0001C000
0001C000
0001C000
0001C000
0001C000
0001C000
0001C000
0001C000
0001C000
0001C000
0001C000
0001C000
0001C000
0001C000
0001C000
ENDCHAR

STARTCHAR CODE196
ENCODING 196
SWIDTH 451 0
DWIDTH 32 0
BBX 32 64 0 -6
BITMAP
00000000
00000000
00000000
00000000
00000000
00000000
00000000
00000000
00000000
00000000
00000000
00000000
00000000
00000000
00000000
00000000
00000000
00000000
00000000
00000000
00000000
00000000
00000000
00000000
00000000
00000000
00000000
00000000
00000000
00000000
FFFFFFFF
FFFFFFFF
FFFFFFFF
00000000
00000000
00000000
00000000
00000000
00000000
00000000
00000000
00000000
00000000
00000000
00000000
00000000
00000000
00000000
00000000
00000000
00000000
00000000
00000000
00000000
00000000
00000000
00000000
00000000
00000000
00000000
00000000
00000000
00000000
00000000
ENDCHAR

STARTCHAR CODE197
ENCODING 197
SWIDTH 451 0
DWIDTH 32 0
BBX 32 64 0 -6
BITMAP
0001C000
0001C000
0001C000
0001C000
0001C000
0001C000
0001C000
0001C000
0001C000
0001C000
0001C000
0001C000
0001C000
0001C000
0001C000
0001C000
0001C000
0001C000
0001C000
0001C000
0001C000
0001C000
0001C000
0001C000
0001C000
0001C000
0001C000
0001C000
0001C000
0001C000
FFFFFFFF
FFFFFFFF
FFFFFFFF
0001C000
0001C000
0001C000
0001C000
0001C000
0001C000
0001C000
0001C000
0001C000
0001C000
0001C000
0001C000
0001C000
0001C000
0001C000
0001C000
0001C000
0001C000
0001C000
0001C000
0001C000
0001C000
0001C000
0001C000
0001C000
0001C000
0001C000
0001C000
0001C000
0001C000
0001C000
ENDCHAR

STARTCHAR CODE198
ENCODING 198
SWIDTH 451 0
DWIDTH 32 0
BBX 32 64 0 -6
BITMAP
0001C000
0001C000
0001C000
0001C000
0001C000
0001C000
0001C000
0001C000
0001C000
0001C000
0001C000
0001C000
0001C000
0001C000
0001C000
0001C000
0001C000
0001C000
0001C000
0001C000
0001C000
0001C000
0001C000
0001C000
0001C000
0001C000
0001C000
0001FFFF
0001FFFF
0001FFFF
0001C000
0001C000
0001C000
0001FFFF
0001FFFF
0001FFFF
0001C000
0001C000
0001C000
0001C000
0001C000
0001C000
0001C000
0001C000
0001C000
0001C000
0001C000
0001C000
0001C000
0001C000
0001C000
0001C000
0001C000
0001C000
0001C000
0001C000
0001C000
0001C000
0001C000
0001C000
0001C000
0001C000
0001C000
0001C000
ENDCHAR

STARTCHAR CODE199
ENCODING 199
SWIDTH 451 0
DWIDTH 32 0
BBX 32 64 0 -6
BITMAP
000E3800
000E3800
000E3800
000E3800
000E3800
000E3800
000E3800
000E3800
000E3800
000E3800
000E3800
000E3800
000E3800
000E3800
000E3800
000E3800
000E3800
000E3800
000E3800
000E3800
000E3800
000E3800
000E3800
000E3800
000E3800
000E3800
000E3800
000E3800
000E3800
000E3800
000E3FFF
000E3FFF
000E3FFF
000E3800
000E3800
000E3800
000E3800
000E3800
000E3800
000E3800
000E3800
000E3800
000E3800
000E3800
000E3800
000E3800
000E3800
000E3800
000E3800
000E3800
000E3800
000E3800
000E3800
000E3800
000E3800
000E3800
000E3800
000E3800
000E3800
000E3800
000E3800
000E3800
000E3800
000E3800
ENDCHAR

STARTCHAR CODE200
ENCODING 200
SWIDTH 451 0
DWIDTH 32 0
BBX 32 64 0 -6
BITMAP
000E3800
000E3800
000E3800
000E3800
000E3800
000E3800
000E3800
000E3800
000E3800
000E3800
000E3800
000E3800
000E3800
000E3800
000E3800
000E3800
000E3800
000E3800
000E3800
000E3800
000E3800
000E3800
000E3800
000E3800
000E3800
000E3800
000E3800
000E3FFF
000E3FFF
000E3FFF
000E0000
000E0000
000E0000
000FFFFF
000FFFFF
000FFFFF
00000000
00000000
00000000
00000000
00000000
00000000
00000000
00000000
00000000
00000000
00000000
00000000
00000000
00000000
00000000
00000000
00000000
00000000
00000000
00000000
00000000
00000000
00000000
00000000
00000000
00000000
00000000
00000000
ENDCHAR

STARTCHAR CODE201
ENCODING 201
SWIDTH 451 0
DWIDTH 32 0
BBX 32 64 0 -6
BITMAP
00000000
00000000
00000000
00000000
00000000
00000000
00000000
00000000
00000000
00000000
00000000
00000000
00000000
00000000
00000000
00000000
00000000
00000000
00000000
00000000
00000000
00000000
00000000
00000000
00000000
00000000
00000000
000FFFFF
000FFFFF
000FFFFF
000E0000
000E0000
000E0000
000E3FFF
000E3FFF
000E3FFF
000E3800
000E3800
000E3800
000E3800
000E3800
000E3800
000E3800
000E3800
000E3800
000E3800
000E3800
000E3800
000E3800
000E3800
000E3800
000E3800
000E3800
000E3800
000E3800
000E3800
000E3800
000E3800
000E3800
000E3800
000E3800
000E3800
000E3800
000E3800
ENDCHAR

STARTCHAR CODE202
ENCODING 202
SWIDTH 451 0
DWIDTH 32 0
BBX 32 64 0 -6
BITMAP
000E3800
000E3800
000E3800
000E3800
000E3800
000E3800
000E3800
000E3800
000E3800
000E3800
000E3800
000E3800
000E3800
000E3800
000E3800
000E3800
000E3800
000E3800
000E3800
000E3800
000E3800
000E3800
000E3800
000E3800
000E3800
000E3800
000E3800
FFFE3FFF
FFFE3FFF
FFFE3FFF
00000000
00000000
00000000
FFFFFFFF
FFFFFFFF
FFFFFFFF
00000000
00000000
00000000
00000000
00000000
00000000
00000000
00000000
00000000
00000000
00000000
00000000
00000000
00000000
00000000
00000000
00000000
00000000
00000000
00000000
00000000
00000000
00000000
00000000
00000000
00000000
00000000
00000000
ENDCHAR

STARTCHAR CODE203
ENCODING 203
SWIDTH 451 0
DWIDTH 32 0
BBX 32 64 0 -6
BITMAP
00000000
00000000
00000000
00000000
00000000
00000000
00000000
00000000
00000000
00000000
00000000
00000000
00000000
00000000
00000000
00000000
00000000
00000000
00000000
00000000
00000000
00000000
00000000
00000000
00000000
00000000
00000000
FFFFFFFF
FFFFFFFF
FFFFFFFF
00000000
00000000
00000000
FFFE3FFF
FFFE3FFF
FFFE3FFF
000E3800
000E3800
000E3800
000E3800
000E3800
000E3800
000E3800
000E3800
000E3800
000E3800
000E3800
000E3800
000E3800
000E3800
000E3800
000E3800
000E3800
000E3800
000E3800
000E3800
000E3800
000E3800
000E3800
000E3800
000E3800
000E3800
000E3800
000E3800
ENDCHAR

STARTCHAR CODE204
ENCODING 204
SWIDTH 451 0
DWIDTH 32 0
BBX 32 64 0 -6
BITMAP
000E3800
000E3800
000E3800
000E3800
000E3800
000E3800
000E3800
000E3800
000E3800
000E3800
000E3800
000E3800
000E3800
000E3800
000E3800
000E3800
000E3800
000E3800
000E3800
000E3800
000E3800
000E3800
000E3800
000E3800
000E3800
000E3800
000E3800
000E3FFF
000E3FFF
000E3FFF
000E0000
000E0000
000E0000
000E3FFF
000E3FFF
000E3FFF
000E3800
000E3800
000E3800
000E3800
000E3800
000E3800
000E3800
000E3800
000E3800
000E3800
000E3800
000E3800
000E3800
000E3800
000E3800
000E3800
000E3800
000E3800
000E3800
000E3800
000E3800
000E3800
000E3800
000E3800
000E3800
000E3800
000E3800
000E3800
ENDCHAR

STARTCHAR CODE205
ENCODING 205
SWIDTH 451 0
DWIDTH 32 0
BBX 32 64 0 -6
BITMAP
00000000
00000000
00000000
00000000
00000000
00000000
00000000
00000000
00000000
00000000
00000000
00000000
00000000
00000000
00000000
00000000
00000000
00000000
00000000
00000000
00000000
00000000
00000000
00000000
00000000
00000000
00000000
FFFFFFFF
FFFFFFFF
FFFFFFFF
00000000
00000000
00000000
FFFFFFFF
FFFFFFFF
FFFFFFFF
00000000
00000000
00000000
00000000
00000000
00000000
00000000
00000000
00000000
00000000
00000000
00000000
00000000
00000000
00000000
00000000
00000000
00000000
00000000
00000000
00000000
00000000
00000000
00000000
00000000
00000000
00000000
00000000
ENDCHAR

STARTCHAR CODE206
ENCODING 206
SWIDTH 451 0
DWIDTH 32 0
BBX 32 64 0 -6
BITMAP
000E3800
000E3800
000E3800
000E3800
000E3800
000E3800
000E3800
000E3800
000E3800
000E3800
000E3800
000E3800
000E3800
000E3800
000E3800
000E3800
000E3800
000E3800
000E3800
000E3800
000E3800
000E3800
000E3800
000E3800
000E3800
000E3800
000E3800
FFFE3FFF
FFFE3FFF
FFFE3FFF
00000000
00000000
00000000
FFFE3FFF
FFFE3FFF
FFFE3FFF
000E3800
000E3800
000E3800
000E3800
000E3800
000E3800
000E3800
000E3800
000E3800
000E3800
000E3800
000E3800
000E3800
000E3800
000E3800
000E3800
000E3800
000E3800
000E3800
000E3800
000E3800
000E3800
000E3800
000E3800
000E3800
000E3800
000E3800
000E3800
ENDCHAR

STARTCHAR CODE207
ENCODING 207
SWIDTH 451 0
DWIDTH 32 0
BBX 32 64 0 -6
BITMAP
0001C000
0001C000
0001C000
0001C000
0001C000
0001C000
0001C000
0001C000
0001C000
0001C000
0001C000
0001C000
0001C000
0001C000
0001C000
0001C000
0001C000
0001C000
0001C000
0001C000
0001C000
0001C000
0001C000
0001C000
0001C000
0001C000
0001C000
FFFFFFFF
FFFFFFFF
FFFFFFFF
00000000
00000000
00000000
FFFFFFFF
FFFFFFFF
FFFFFFFF
00000000
00000000
00000000
00000000
00000000
00000000
00000000
00000000
00000000
00000000
00000000
00000000
00000000
00000000
00000000
00000000
00000000
00000000
00000000
00000000
00000000
00000000
00000000
00000000
00000000
00000000
00000000
00000000
ENDCHAR

STARTCHAR CODE208
ENCODING 208
SWIDTH 451 0
DWIDTH 32 0
BBX 32 64 0 -6
BITMAP
000E3800
000E3800
000E3800
000E3800
000E3800
000E3800
000E3800
000E3800
000E3800
000E3800
000E3800
000E3800
000E3800
000E3800
000E3800
000E3800
000E3800
000E3800
000E3800
000E3800
000E3800
000E3800
000E3800
000E3800
000E3800
000E3800
000E3800
000E3800
000E3800
000E3800
FFFFFFFF
FFFFFFFF
FFFFFFFF
00000000
00000000
00000000
00000000
00000000
00000000
00000000
00000000
00000000
00000000
00000000
00000000
00000000
00000000
00000000
00000000
00000000
00000000
00000000
00000000
00000000
00000000
00000000
00000000
00000000
00000000
00000000
00000000
00000000
00000000
00000000
ENDCHAR

STARTCHAR CODE209
ENCODING 209
SWIDTH 451 0
DWIDTH 32 0
BBX 32 64 0 -6
BITMAP
00000000
00000000
00000000
00000000
00000000
00000000
00000000
00000000
00000000
00000000
00000000
00000000
00000000
00000000
00000000
00000000
00000000
00000000
00000000
00000000
00000000
00000000
00000000
00000000
00000000
00000000
00000000
FFFFFFFF
FFFFFFFF
FFFFFFFF
00000000
00000000
00000000
FFFFFFFF
FFFFFFFF
FFFFFFFF
0001C000
0001C000
0001C000
0001C000
0001C000
0001C000
0001C000
0001C000
0001C000
0001C000
0001C000
0001C000
0001C000
0001C000
0001C000
0001C000
0001C000
0001C000
0001C000
0001C000
0001C000
0001C000
0001C000
0001C000
0001C000
0001C000
0001C000
0001C000
ENDCHAR

STARTCHAR CODE210
ENCODING 210
SWIDTH 451 0
DWIDTH 32 0
BBX 32 64 0 -6
BITMAP
00000000
00000000
00000000
00000000
00000000
00000000
00000000
00000000
00000000
00000000
00000000
00000000
00000000
00000000
00000000
00000000
00000000
00000000
00000000
00000000
00000000
00000000
00000000
00000000
00000000
00000000
00000000
00000000
00000000
00000000
FFFFFFFF
FFFFFFFF
FFFFFFFF
000E3800
000E3800
000E3800
000E3800
000E3800
000E3800
000E3800
000E3800
000E3800
000E3800
000E3800
000E3800
000E3800
000E3800
000E3800
000E3800
000E3800
000E3800
000E3800
000E3800
000E3800
000E3800
000E3800
000E3800
000E3800
000E3800
000E3800
000E3800
000E3800
000E3800
000E3800
ENDCHAR

STARTCHAR CODE211
ENCODING 211
SWIDTH 451 0
DWIDTH 32 0
BBX 32 64 0 -6
BITMAP
000E3800
000E3800
000E3800
000E3800
000E3800
000E3800
000E3800
000E3800
000E3800
000E3800
000E3800
000E3800
000E3800
000E3800
000E3800
000E3800
000E3800
000E3800
000E3800
000E3800
000E3800
000E3800
000E3800
000E3800
000E3800
000E3800
000E3800
000E3800
000E3800
000E3800
000FFFFF
000FFFFF
000FFFFF
00000000
00000000
00000000
00000000
00000000
00000000
00000000
00000000
00000000
00000000
00000000
00000000
00000000
00000000
00000000
00000000
00000000
00000000
00000000
00000000
00000000
00000000
00000000
00000000
00000000
00000000
00000000
00000000
00000000
00000000
00000000
ENDCHAR

STARTCHAR CODE212
ENCODING 212
SWIDTH 451 0
DWIDTH 32 0
BBX 32 64 0 -6
BITMAP
0001C000
0001C000
0001C000
0001C000
0001C000
0001C000
0001C000
0001C000
0001C000
0001C000
0001C000
0001C000
0001C000
0001C000
0001C000
0001C000
0001C000
0001C000
0001C000
0001C000
0001C000
0001C000
0001C000
0001C000
0001C000
0001C000
0001C000
0001FFFF
0001FFFF
0001FFFF
0001C000
0001C000
0001C000
0001FFFF
0001FFFF
0001FFFF
00000000
00000000
00000000
00000000
00000000
00000000
00000000
00000000
00000000
00000000
00000000
00000000
00000000
00000000
00000000
00000000
00000000
00000000
00000000
00000000
00000000
00000000
00000000
00000000
00000000
00000000
00000000
00000000
ENDCHAR

STARTCHAR CODE213
ENCODING 213
SWIDTH 451 0
DWIDTH 32 0
BBX 32 64 0 -6
BITMAP
00000000
00000000
00000000
00000000
00000000
00000000
00000000
00000000
00000000
00000000
00000000
00000000
00000000
00000000
00000000
00000000
00000000
00000000
00000000
00000000
00000000
00000000
00000000
00000000
00000000
00000000
00000000
0001FFFF
0001FFFF
0001FFFF
0001C000
0001C000
0001C000
0001FFFF
0001FFFF
0001FFFF
0001C000
0001C000
0001C000
0001C000
0001C000
0001C000
0001C000
0001C000
0001C000
0001C000
0001C000
0001C000
0001C000
0001C000
0001C000
0001C000
0001C000
0001C000
0001C000
0001C000
0001C000
0001C000
0001C000
0001C000
0001C000
0001C000
0001C000
0001C000
ENDCHAR

STARTCHAR CODE214
ENCODING 214
SWIDTH 451 0
DWIDTH 32 0
BBX 32 64 0 -6
BITMAP
00000000
00000000
00000000
00000000
00000000
00000000
00000000
00000000
00000000
00000000
00000000
00000000
00000000
00000000
00000000
00000000
00000000
00000000
00000000
00000000
00000000
00000000
00000000
00000000
00000000
00000000
00000000
00000000
00000000
00000000
000FFFFF
000FFFFF
000FFFFF
000E3800
000E3800
000E3800
000E3800
000E3800
000E3800
000E3800
000E3800
000E3800
000E3800
000E3800
000E3800
000E3800
000E3800
000E3800
000E3800
000E3800
000E3800
000E3800
000E3800
000E3800
000E3800
000E3800
000E3800
000E3800
000E3800
000E3800
000E3800
000E3800
000E3800
000E3800
ENDCHAR

STARTCHAR CODE215
ENCODING 215
SWIDTH 451 0
DWIDTH 32 0
BBX 32 64 0 -6
BITMAP
000E3800
000E3800
000E3800
000E3800
000E3800
000E3800
000E3800
000E3800
000E3800
000E3800
000E3800
000E3800
000E3800
000E3800
000E3800
000E3800
000E3800
000E3800
000E3800
000E3800
000E3800
000E3800
000E3800
000E3800
000E3800
000E3800
000E3800
000E3800
000E3800
000E3800
FFFFFFFF
FFFFFFFF
FFFFFFFF
000E3800
000E3800
000E3800
000E3800
000E3800
000E3800
000E3800
000E3800
000E3800
000E3800
000E3800
000E3800
000E3800
000E3800
000E3800
000E3800
000E3800
000E3800
000E3800
000E3800
000E3800
000E3800
000E3800
000E3800
000E3800
000E3800
000E3800
000E3800
000E3800
000E3800
000E3800
ENDCHAR

STARTCHAR CODE216
ENCODING 216
SWIDTH 451 0
DWIDTH 32 0
BBX 32 64 0 -6
BITMAP
0001C000
0001C000
0001C000
0001C000
0001C000
0001C000
0001C000
0001C000
0001C000
0001C000
0001C000
0001C000
0001C000
0001C000
0001C000
0001C000
0001C000
0001C000
0001C000
0001C000
0001C000
0001C000
0001C000
0001C000
0001C000
0001C000
0001C000
FFFFFFFF
FFFFFFFF
FFFFFFFF
0001C000
0001C000
0001C000
FFFFFFFF
FFFFFFFF
FFFFFFFF
0001C000
0001C000
0001C000
0001C000
0001C000
0001C000
0001C000
0001C000
0001C000
0001C000
0001C000
0001C000
0001C000
0001C000
0001C000
0001C000
0001C000
0001C000
0001C000
0001C000
0001C000
0001C000
0001C000
0001C000
0001C000
0001C000
0001C000
0001C000
ENDCHAR

STARTCHAR CODE217
ENCODING 217
SWIDTH 451 0
DWIDTH 32 0
BBX 32 64 0 -6
BITMAP
0001C000
0001C000
0001C000
0001C000
0001C000
0001C000
0001C000
0001C000
0001C000
0001C000
0001C000
0001C000
0001C000
0001C000
0001C000
0001C000
0001C000
0001C000
0001C000
0001C000
0001C000
0001C000
0001C000
0001C000
0001C000
0001C000
0001C000
0001C000
0001C000
0001C000
FFFFC000
FFFFC000
FFFFC000
00000000
00000000
00000000
00000000
00000000
00000000
00000000
00000000
00000000
00000000
00000000
00000000
00000000
00000000
00000000
00000000
00000000
00000000
00000000
00000000
00000000
00000000
00000000
00000000
00000000
00000000
00000000
00000000
00000000
00000000
00000000
ENDCHAR

STARTCHAR CODE218
ENCODING 218
SWIDTH 451 0
DWIDTH 32 0
BBX 32 64 0 -6
BITMAP
00000000
00000000
00000000
00000000
00000000
00000000
00000000
00000000
00000000
00000000
00000000
00000000
00000000
00000000
00000000
00000000
00000000
00000000
00000000
00000000
00000000
00000000
00000000
00000000
00000000
00000000
00000000
00000000
00000000
00000000
0001FFFF
0001FFFF
0001FFFF
0001C000
0001C000
0001C000
0001C000
0001C000
0001C000
0001C000
0001C000
0001C000
0001C000
0001C000
0001C000
0001C000
0001C000
0001C000
0001C000
0001C000
0001C000
0001C000
0001C000
0001C000
0001C000
0001C000
0001C000
0001C000
0001C000
0001C000
0001C000
0001C000
0001C000
0001C000
ENDCHAR

STARTCHAR CODE219
ENCODING 219
SWIDTH 451 0
DWIDTH 32 0
BBX 32 64 0 -6
BITMAP
FFFFFFFF
FFFFFFFF
FFFFFFFF
FFFFFFFF
FFFFFFFF
FFFFFFFF
FFFFFFFF
FFFFFFFF
FFFFFFFF
FFFFFFFF
FFFFFFFF
FFFFFFFF
FFFFFFFF
FFFFFFFF
FFFFFFFF
FFFFFFFF
FFFFFFFF
FFFFFFFF
FFFFFFFF
FFFFFFFF
FFFFFFFF
FFFFFFFF
FFFFFFFF
FFFFFFFF
FFFFFFFF
FFFFFFFF
FFFFFFFF
FFFFFFFF
FFFFFFFF
FFFFFFFF
FFFFFFFF
FFFFFFFF
FFFFFFFF
FFFFFFFF
FFFFFFFF
FFFFFFFF
FFFFFFFF
FFFFFFFF
FFFFFFFF
FFFFFFFF
FFFFFFFF
FFFFFFFF
FFFFFFFF
FFFFFFFF
FFFFFFFF
FFFFFFFF
FFFFFFFF
FFFFFFFF
FFFFFFFF
FFFFFFFF
FFFFFFFF
FFFFFFFF
FFFFFFFF
FFFFFFFF
FFFFFFFF
FFFFFFFF
FFFFFFFF
FFFFFFFF
FFFFFFFF
FFFFFFFF
FFFFFFFF
FFFFFFFF
FFFFFFFF
FFFFFFFF
ENDCHAR

STARTCHAR CODE220
ENCODING 220
SWIDTH 451 0
DWIDTH 32 0
BBX 32 64 0 -6
BITMAP
00000000
00000000
00000000
00000000
00000000
00000000
00000000
00000000
00000000
00000000
00000000
00000000
00000000
00000000
00000000
00000000
00000000
00000000
00000000
00000000
00000000
00000000
00000000
00000000
00000000
00000000
00000000
00000000
00000000
00000000
00000000
FFFFFFFF
FFFFFFFF
FFFFFFFF
FFFFFFFF
FFFFFFFF
FFFFFFFF
FFFFFFFF
FFFFFFFF
FFFFFFFF
FFFFFFFF
FFFFFFFF
FFFFFFFF
FFFFFFFF
FFFFFFFF
FFFFFFFF
FFFFFFFF
FFFFFFFF
FFFFFFFF
FFFFFFFF
FFFFFFFF
FFFFFFFF
FFFFFFFF
FFFFFFFF
FFFFFFFF
FFFFFFFF
FFFFFFFF
FFFFFFFF
FFFFFFFF
FFFFFFFF
FFFFFFFF
FFFFFFFF
FFFFFFFF
FFFFFFFF
ENDCHAR

STARTCHAR CODE221
ENCODING 221
SWIDTH 451 0
DWIDTH 32 0
BBX 32 64 0 -6
BITMAP
FFFF8000
FFFF8000
FFFF8000
FFFF8000
FFFF8000
FFFF8000
FFFF8000
FFFF8000
FFFF8000
FFFF8000
FFFF8000
FFFF8000
FFFF8000
FFFF8000
FFFF8000
FFFF8000
FFFF8000
FFFF8000
FFFF8000
FFFF8000
FFFF8000
FFFF8000
FFFF8000
FFFF8000
FFFF8000
FFFF8000
FFFF8000
FFFF8000
FFFF8000
FFFF8000
FFFF8000
FFFF8000
FFFF8000
FFFF8000
FFFF8000
FFFF8000
FFFF8000
FFFF8000
FFFF8000
FFFF8000
FFFF8000
FFFF8000
FFFF8000
FFFF8000
FFFF8000
FFFF8000
FFFF8000
FFFF8000
FFFF8000
FFFF8000
FFFF8000
FFFF8000
FFFF8000
FFFF8000
FFFF8000
FFFF8000
FFFF8000
FFFF8000
FFFF8000
FFFF8000
FFFF8000
FFFF8000
FFFF8000
FFFF8000
ENDCHAR

STARTCHAR CODE222
ENCODING 222
SWIDTH 451 0
DWIDTH 32 0
BBX 32 64 0 -6
BITMAP
0000FFFF
0000FFFF
0000FFFF
0000FFFF
0000FFFF
0000FFFF
0000FFFF
0000FFFF
0000FFFF
0000FFFF
0000FFFF
0000FFFF
0000FFFF
0000FFFF
0000FFFF
0000FFFF
0000FFFF
0000FFFF
0000FFFF
0000FFFF
0000FFFF
0000FFFF
0000FFFF
0000FFFF
0000FFFF
0000FFFF
0000FFFF
0000FFFF
0000FFFF
0000FFFF
0000FFFF
0000FFFF
0000FFFF
0000FFFF
0000FFFF
0000FFFF
0000FFFF
0000FFFF
0000FFFF
0000FFFF
0000FFFF
0000FFFF
0000FFFF
0000FFFF
0000FFFF
0000FFFF
0000FFFF
0000FFFF
0000FFFF
0000FFFF
0000FFFF
0000FFFF
0000FFFF
0000FFFF
0000FFFF
0000FFFF
0000FFFF
0000FFFF
0000FFFF
0000FFFF
0000FFFF
0000FFFF
0000FFFF
0000FFFF
ENDCHAR

STARTCHAR CODE223
ENCODING 223
SWIDTH 451 0
DWIDTH 32 0
BBX 32 64 0 -6
BITMAP
FFFFFFFF
FFFFFFFF
FFFFFFFF
FFFFFFFF
FFFFFFFF
FFFFFFFF
FFFFFFFF
FFFFFFFF
FFFFFFFF
FFFFFFFF
FFFFFFFF
FFFFFFFF
FFFFFFFF
FFFFFFFF
FFFFFFFF
FFFFFFFF
FFFFFFFF
FFFFFFFF
FFFFFFFF
FFFFFFFF
FFFFFFFF
FFFFFFFF
FFFFFFFF
FFFFFFFF
FFFFFFFF
FFFFFFFF
FFFFFFFF
FFFFFFFF
FFFFFFFF
FFFFFFFF
FFFFFFFF
FFFFFFFF
00000000
00000000
00000000
00000000
00000000
00000000
00000000
00000000
00000000
00000000
00000000
00000000
00000000
00000000
00000000
00000000
00000000
00000000
00000000
00000000
00000000
00000000
00000000
00000000
00000000
00000000
00000000
00000000
00000000
00000000
00000000
00000000
ENDCHAR

STARTCHAR CODE224
ENCODING 224
SWIDTH 451 0
DWIDTH 32 0
BBX 32 64 0 -6
BITMAP
00000000
00000000
00000000
00000000
00000000
00000000
00000000
00000000
00000000
00000000
00000000
00000000
00000000
00000000
00000000
00000000
00000000
00000000
00000000
00000000
00000000
00000000
00000000
00000000
00000000
00000000
00000000
00000780
0003E780
000FF780
001FFF80
003FFF80
007F7F00
00FC3F00
00F83F00
01F03F00
01F03E00
01E03E00
01E07E00
03E07E00
03E07E00
03C0FC00
03C0FC00
03C1FC00
03C1FC00
03E3F878
01FFFC78
01FFFFF8
00FFBFF8
007F1FF0
000007E0
00000000
00000000
00000000
00000000
00000000
00000000
00000000
00000000
00000000
00000000
00000000
00000000
00000000
ENDCHAR

STARTCHAR CODE225
ENCODING 225
SWIDTH 451 0
DWIDTH 32 0
BBX 32 64 0 -6
BITMAP
00000000
00000000
00000000
00000000
00000000
00000000
00007C00
0001FF80
0007FFC0
000FFFE0
001FE7F0
001F81F0
003F00F8
003E00F8
007C0078
007C00F8
007C00F8
00F801F8
00F803F0
00F807F0
01F01FE0
01F03FC0
01F0FF80
01F7FE00
03FFFC00
03FFF000
03FFE000
03FFFC00
03FFFF00
07C07F80
07C00FC0
07C007E0
07C003E0
07C001F0
07C001F0
078001F0
0F8000F0
0F8000F0
0F8000F0
0F8000F0
0F8001F0
0F8001F0
0F0001F0
0F0003F0
1F0007E0
1F0007E0
1F000FC0
1F001FC0
1FE0FF80
1FFFFF00
1FFFFE00
1FFFF800
1E7FC000
3E000000
3E000000
3E000000
3E000000
3E000000
3E000000
1E000000
00000000
00000000
00000000
00000000
ENDCHAR

STARTCHAR CODE226
ENCODING 226
SWIDTH 451 0
DWIDTH 32 0
BBX 32 64 0 -6
BITMAP
00000000
00000000
00000000
00000000
00000000
00000000
000007FE
0003FFFE
007FFFFE
00FFFFFE
00FFFF80
00FFC000
00FC0000
007C0000
007C0000
007C0000
00F80000
00F80000
00F80000
01F00000
01F00000
01F00000
03E00000
03E00000
03E00000
07C00000
07C00000
07C00000
0F800000
0F800000
0F800000
0F800000
1F000000
1F000000
1F000000
1F000000
3E000000
3E000000
3E000000
3E000000
3E000000
7C000000
7C000000
7C000000
7C000000
7C000000
7C000000
7C000000
7C000000
38000000
00000000
00000000
00000000
00000000
00000000
00000000
00000000
00000000
00000000
00000000
00000000
00000000
00000000
00000000
ENDCHAR

STARTCHAR CODE227
ENCODING 227
SWIDTH 451 0
DWIDTH 32 0
BBX 32 64 0 -6
BITMAP
00000000
00000000
00000000
00000000
00000000
00000000
00000000
00000000
00000000
00000000
00000000
00000000
00000000
00000000
00000000
00000000
00000000
00000000
00000000
00000000
00000000
00000000
00000000
00000000
00000000
00000000
00000000
00000000
003FFFF8
01FFFFF8
01FFFFF8
01FFFFF8
01FF1E00
000F1E00
000F1E00
000F1E00
000F3E00
000F3E00
000F3C00
001F7C00
001F7C00
001E7800
003EF800
003EF800
007CF000
007CF1E0
00FCFFE0
01F8FFE0
01F07FE0
01F03F80
00E00000
00000000
00000000
00000000
00000000
00000000
00000000
00000000
00000000
00000000
00000000
00000000
00000000
00000000
ENDCHAR

STARTCHAR CODE228
ENCODING 228
SWIDTH 451 0
DWIDTH 32 0
BBX 32 64 0 -6
BITMAP
00000000
00000000
00000000
00000000
00000000
00000000
00001FFE
0007FFFE
007FFFFE
00FFFFFE
00FFFF80
00FFC000
00FF0000
003F8000
001FC000
0007E000
0003F000
0001F800
0000FC00
00007E00
00003E00
00001F00
00001F80
00000F80
000007C0
000007C0
00001FC0
00007FC0
0000FFC0
0003FF00
0007FC00
000FF000
001FE000
003F8000
007F0000
00FE0000
01FC0000
03F80000
03F00000
07E00000
0FC00000
0F800000
1F800000
1F0FFE00
3E7FFE00
3FFFFE00
7FFFFE00
7FFF0000
7FF00000
7F800000
3E000000
1C000000
00000000
00000000
00000000
00000000
00000000
00000000
00000000
00000000
00000000
00000000
00000000
00000000
ENDCHAR

STARTCHAR CODE229
ENCODING 229
SWIDTH 451 0
DWIDTH 32 0
BBX 32 64 0 -6
BITMAP
00000000
00000000
00000000
00000000
00000000
00000000
00000000
00000000
00000000
00000000
00000000
00000000
00000000
00000000
00000000
00000000
00000000
00000F00
00001F80
00003F80
0000FF00
0001FC00
0003F800
0007F000
000FC000
001FE000
003FFC00
007FFE00
00FFFF00
01FE7F80
03F81F80
03F00FC0
07E00FC0
07C00FC0
07C007C0
0F8007C0
0F8007C0
0F8007C0
0F0007C0
0F000F80
0F000F80
0F001F80
0F801F00
07803F00
07C07E00
07E1FE00
03FFFC00
03FFF800
01FFF000
00FFE000
003F8000
00000000
00000000
00000000
00000000
00000000
00000000
00000000
00000000
00000000
00000000
00000000
00000000
00000000
ENDCHAR

STARTCHAR CODE230
ENCODING 230
SWIDTH 451 0
DWIDTH 32 0
BBX 32 64 0 -6
BITMAP
00000000
00000000
00000000
00000000
00000000
00000000
00000000
00000000
00000000
00000000
00000000
00000000
00000000
00000000
00000000
00000000
00000000
00000000
00000000
00000000
00000000
00000000
00000000
00000000
00000000
00000000
00000000
00000000
01E07800
01E07800
01E07800
01E07800
03E0F800
03E0F800
03E0F800
03E0F800
03C0F000
03C0F000
03C1F000
07C1F000
07C1F000
07C1E000
0783E000
0783E000
0FC7C780
0FCFEF80
0FFFFF80
0FFFFF80
0FFEFF00
1F7C7C00
1F000000
1F000000
1E000000
1E000000
3E000000
3E000000
3E000000
3C000000
3C000000
1C000000
00000000
00000000
00000000
00000000
ENDCHAR

STARTCHAR CODE231
ENCODING 231
SWIDTH 451 0
DWIDTH 32 0
BBX 32 64 0 -6
BITMAP
00000000
00000000
00000000
00000000
00000000
00000000
00000000
00000000
00000000
00000000
00000000
00000000
00000000
00000000
00000000
00000000
00000000
00000000
00000000
00000000
00000000
00000000
00000000
00000000
00000000
00000000
00000000
00000000
000FFF80
007FFFE0
007FFFE0
007FFFE0
0079E0E0
0001E000
0001E000
0001E000
0003E000
0003E000
0003C000
0007C000
0007C000
000F8000
000F8000
001F0000
001F0000
001E3800
001EFC00
001FFC00
001FFC00
000FF000
0003C000
00000000
00000000
00000000
00000000
00000000
00000000
00000000
00000000
00000000
00000000
00000000
00000000
00000000
ENDCHAR

STARTCHAR CODE232
ENCODING 232
SWIDTH 451 0
DWIDTH 32 0
BBX 32 64 0 -6
BITMAP
00000000
00000000
00000000
00000000
00000000
00000070
000000F0
0007FCF0
003FFFF0
00FFFFF0
01FFFFE0
03FFDFE0
03FFC3F0
03EF87F8
001F87F8
003F0FFC
003F0FFC
007E0F7C
00FC1F7C
00FC1E7C
01F81E7C
01F03E7C
03F03C7C
03E03C7C
07E0787C
07C0787C
07C0F0FC
0F80F0FC
0F80F0F8
1F81E0F8
1F01E1F8
1F01C1F0
1F03C1F0
3E03C3F0
3E0383E0
3E0787E0
3E0707E0
3E0F0FC0
3C0F0FC0
3C0E1F80
3C1E1F80
3C1E3F00
3C1C7F00
3E3C7E00
3E3CFC00
3E3DFC00
3F7BF800
1FFFF000
1FFFE000
0FFFC000
0FFF8000
07FF0000
01FC0000
01E00000
01E00000
01E00000
01C00000
00000000
00000000
00000000
00000000
00000000
00000000
00000000
ENDCHAR

STARTCHAR CODE233
ENCODING 233
SWIDTH 451 0
DWIDTH 32 0
BBX 32 64 0 -6
BITMAP
00000000
00000000
00000000
00000000
00000000
00000000
00000000
001FFC00
007FFF00
01FFFFC0
03FFFFE0
03FFDFF0
03FFC7F0
01EFC1F0
001F81F8
001F00F8
003F00FC
007E00FC
007C007C
00FC007C
00F8007C
01F0007C
03F0007C
03E0007C
03E000F8
07E000F8
07C000F8
0FFF00F8
0FFFFFF8
0FFFFFF0
1FFFFFF0
1F01FFF0
1F0003F0
1F0003E0
1E0003E0
3E0007C0
3E0007C0
3E000FC0
3E000F80
3E001F80
3E001F80
3E003F00
3E007E00
3E007E00
3E00FC00
1F01F800
1F03F800
1F8FF000
0FFFE000
0FFFC000
07FF8000
03FF0000
01FC0000
00000000
00000000
00000000
00000000
00000000
00000000
00000000
00000000
00000000
00000000
00000000
ENDCHAR

STARTCHAR CODE234
ENCODING 234
SWIDTH 451 0
DWIDTH 32 0
BBX 32 64 0 -6
BITMAP
00000000
00000000
00000000
00000000
00000000
00000000
00000000
0001F800
000FFF00
003FFFC0
00FFFFE0
01FF9FF0
03FC03F8
03F801F8
07E000FC
0FC0007C
0FC0003E
1F80003E
1F00003E
3F00001E
3E00001F
3E00001F
3C00001F
7C00001F
7C00000F
7800000F
7800000F
7800000F
7800000F
7800001F
7800001E
7800001E
7800003E
7800003E
7800003C
7800007C
7C0000FC
3C0001F8
3C0003F8
3E0007F0
1F000FE0
1F003FC0
0F80FF80
07C1FF00
03E1FC00
03E3F000
01E3E000
01E7C000
01F7C7E0
FDF7FFF0
FFF7FFF0
FFF7FFF0
FFE3FC00
0FC00000
00000000
00000000
00000000
00000000
00000000
00000000
00000000
00000000
00000000
00000000
ENDCHAR

STARTCHAR CODE235
ENCODING 235
SWIDTH 451 0
DWIDTH 32 0
BBX 32 64 0 -6
BITMAP
00000000
00000000
00000000
00000000
00000000
00007F80
0001FFE0
0003FFF0
0007FFF8
0007F3FC
000FE07C
000FC03E
000F803E
000F801E
000F801E
000F8000
000F8000
00078000
0007C000
0007C000
0003E000
0003E000
0001F000
0001F000
001FF800
007FF800
00FFFC00
01FFFC00
03FCFC00
07F07C00
07E07E00
0FC03E00
0FC03E00
1F803E00
1F803E00
1F003E00
1F003E00
3F003E00
3E007E00
3E007C00
3E007C00
3E007C00
3E00F800
3E00F800
3E01F800
3E03F000
3E07F000
1F1FE000
1FFFC000
1FFF8000
0FFF0000
07FE0000
01F80000
00000000
00000000
00000000
00000000
00000000
00000000
00000000
00000000
00000000
00000000
00000000
ENDCHAR

STARTCHAR CODE236
ENCODING 236
SWIDTH 451 0
DWIDTH 32 0
BBX 32 64 0 -6
BITMAP
00000000
00000000
00000000
00000000
00000000
00000000
00000000
00000000
00000000
00000000
00000000
00000000
00000000
00000000
00000000
00000000
00000000
007E00FC
01FF03FE
03FF87FE
07FF8FFF
07EF9FDF
07C7DF1F
0F87FE1F
0F87FE1F
0F03FC1F
0F03FC1F
1F03F81F
1F03F81F
1E07F03E
3E07F03E
3E0FF03E
3C1FF07E
3C1FF07C
3C3FF0FC
3C7EF0F8
3CFEF9F8
3FFCFFF0
3FF87FF0
3FF07FE0
1FE03FC0
07801F00
00000000
00000000
00000000
00000000
00000000
00000000
00000000
00000000
00000000
00000000
00000000
00000000
00000000
00000000
00000000
00000000
00000000
00000000
00000000
00000000
00000000
00000000
ENDCHAR

STARTCHAR CODE237
ENCODING 237
SWIDTH 451 0
DWIDTH 32 0
BBX 32 64 0 -6
BITMAP
00000000
00000000
00000000
00000000
00000000
00000000
00000000
00000000
00000000
00000000
00000000
00000000
00000000
00000000
00000000
00000000
00000000
00000000
00000000
00000000
00000000
00000000
00000000
00000000
00000000
00000000
00000000
00000000
0000F000
0003FF00
0007FF00
000FFF00
001FFF00
001F3E00
003E7C00
003EFC00
003DFC00
007FFC00
007FFC00
007FFC00
007FBC00
007F7C00
007E7800
00FC7800
03F8F800
03FDF000
03FFF000
03FFE000
003FC000
001F8000
00000000
00000000
00000000
00000000
00000000
00000000
00000000
00000000
00000000
00000000
00000000
00000000
00000000
00000000
ENDCHAR

STARTCHAR CODE238
ENCODING 238
SWIDTH 451 0
DWIDTH 32 0
BBX 32 64 0 -6
BITMAP
00000000
00000000
00000000
00000000
00000000
00000000
00000000
00000000
00000000
00000000
00000000
00000000
00000000
00000000
00000000
00000000
00000000
00000000
00000000
00000000
00000000
00000000
00000000
00000000
00000000
00000000
00000000
00000000
0007C000
001FF000
003FF800
003EFC00
00783C00
00781C00
007C0000
007F0000
003FE000
007FE000
01FFE000
03FFE000
03F00000
07E00000
07E00000
07C00000
07C03800
07E07800
03F1F800
03FFF000
01FFE000
00FFC000
003F0000
00000000
00000000
00000000
00000000
00000000
00000000
00000000
00000000
00000000
00000000
00000000
00000000
00000000
ENDCHAR

STARTCHAR CODE239
ENCODING 239
SWIDTH 451 0
DWIDTH 32 0
BBX 32 64 0 -6
BITMAP
00000000
00000000
00000000
00000000
00000000
00000000
00000000
0001FE00
0007FFC0
001FFFF0
003FFFF8
007F87FC
007E00FC
00FC007E
00F8003E
00F8003E
01F0001F
01F0001F
01F0001F
01F0001F
01E0001F
03E0001F
03E0001F
03E0001F
03E0001F
03E0001F
03C0001F
07C0003F
07C0003F
07C0003E
07C0003E
07C0003E
07C0003E
07C0007E
0F80007C
0F80007C
0F8000FC
0F8000FC
0F8000F8
0F8001F8
0F0001F0
1F0003F0
1F0003F0
1F0007E0
1F0007E0
3E000FC0
3E001FC0
3E001F80
7C003F80
7C007F00
F800FE00
F800FE00
F000FC00
E000F800
00007000
00000000
00000000
00000000
00000000
00000000
00000000
00000000
00000000
00000000
ENDCHAR

STARTCHAR CODE240
ENCODING 240
SWIDTH 451 0
DWIDTH 32 0
BBX 32 64 0 -6
BITMAP
00000000
00000000
00000000
00000000
00000000
00000000
00000000
00000000
00000000
00000000
00000000
00000000
00000000
00000000
00000000
00000000
00000000
00000000
00000000
00000000
00000000
00000000
00000000
00000000
00000000
00000000
00000000
00000000
00000000
003FFF00
07FFFFE0
07FFFFE0
07FFFFE0
07E001E0
00000000
00000000
003FFF00
07FFFFE0
07FFFFE0
07FFFFE0
07E001E0
00000000
00000000
003FFF00
07FFFFE0
07FFFFE0
07FFFFE0
07E001E0
00000000
00000000
00000000
00000000
00000000
00000000
00000000
00000000
00000000
00000000
00000000
00000000
00000000
00000000
00000000
00000000
ENDCHAR

STARTCHAR CODE241
ENCODING 241
SWIDTH 451 0
DWIDTH 32 0
BBX 32 64 0 -6
BITMAP
00000000
00000000
00000000
00000000
00000000
00000000
00000000
00000000
00000000
00000000
00000000
00000000
00000000
00000000
00000000
00000000
00000000
00000000
00000000
0003C000
0003C000
0003C000
0003C000
0003C000
0003C000
0007C000
00078000
00078000
00078000
00FFFF00
0FFFFFF0
0FFFFFF0
0FFFFFF0
0F83C1F0
0003C000
0003C000
0003C000
0003C000
0003E000
0001E000
0001E000
0001E000
00000000
00000000
003FFF80
07FFFFF0
07FFFFF0
07FFFFF0
07E000F0
00000000
00000000
00000000
00000000
00000000
00000000
00000000
00000000
00000000
00000000
00000000
00000000
00000000
00000000
00000000
ENDCHAR

STARTCHAR CODE242
ENCODING 242
SWIDTH 451 0
DWIDTH 32 0
BBX 32 64 0 -6
BITMAP
00000000
00000000
00000000
00000000
00000000
00000000
00000000
00000000
00000000
00000000
00000000
00000000
00000000
00000000
00000000
00000000
00000000
00000000
00000000
00003C00
00003E00
00003E00
00001E00
00001F00
00001F00
00000F00
00000F00
00000F80
00000F80
00000780
00000780
00000780
00000F80
00003F80
00007F80
0001FF00
0003FC00
000FF000
001FE000
003F8000
007F0000
007E0000
007C0000
00780000
001FFF80
03FFFFF0
03FFFFF0
03FFFFF0
03F000F0
00000000
00000000
00000000
00000000
00000000
00000000
00000000
00000000
00000000
00000000
00000000
00000000
00000000
00000000
00000000
ENDCHAR

STARTCHAR CODE243
ENCODING 243
SWIDTH 451 0
DWIDTH 32 0
BBX 32 64 0 -6
BITMAP
00000000
00000000
00000000
00000000
00000000
00000000
00000000
00000000
00000000
00000000
00000000
00000000
00000000
00000000
00000000
00000000
00000000
00000000
00000000
00000380
00000F80
00001F80
00007F80
0000FF00
0003FE00
000FF800
001FF000
003FC000
003F0000
003E0000
003C0000
003C0000
003C0000
003C0000
003C0000
003C0000
003C0000
003E0000
001E0000
001E0000
001F0000
000F0000
000F0000
000F0000
003FFFC0
03FFFFF0
03FFFFF0
03FFFFF0
03E00070
00000000
00000000
00000000
00000000
00000000
00000000
00000000
00000000
00000000
00000000
00000000
00000000
00000000
00000000
00000000
ENDCHAR

STARTCHAR CODE244
ENCODING 244
SWIDTH 451 0
DWIDTH 32 0
BBX 32 64 0 -6
BITMAP
00000000
00000000
00000000
00000000
00000000
00000000
00000000
00000000
00000000
00000000
0007C000
000FE000
000FE000
001FE000
001FE000
001BC000
0019C000
00180000
00380000
00380000
00380000
00380000
00380000
00380000
00380000
00380000
00380000
00380000
00380000
003C0000
003C0000
003C0000
003C0000
003C0000
001C0000
001C0000
001C0000
001C0000
001C0000
001E0000
001E0000
001E0000
001E0000
001E0000
001E0000
001E0000
001E0000
000E0000
000F0000
000F0000
000F0000
000F0000
000F0000
000F0000
000F0000
000F0000
000F0000
000F8000
00078000
00078000
00078000
00078000
00078000
00078000
ENDCHAR

STARTCHAR CODE245
ENCODING 245
SWIDTH 451 0
DWIDTH 32 0
BBX 32 64 0 -6
BITMAP
00078000
00078000
00078000
0007C000
0003C000
0003C000
0003C000
0003C000
0003C000
0003C000
0003C000
0003C000
0003C000
0001C000
0001C000
0001E000
0001E000
0001E000
0001E000
0001E000
0001E000
0001E000
0001E000
0000E000
0000E000
0000E000
0000E000
0000E000
0000E000
0000F000
0000F000
0000F000
0000F000
00007000
00007000
00007000
00007000
00007000
00007000
00007000
00007000
00007000
00007000
00007000
00067000
000F7000
001F6000
001FE000
001FE000
001FC000
000F8000
00000000
00000000
00000000
00000000
00000000
00000000
00000000
00000000
00000000
00000000
00000000
00000000
00000000
ENDCHAR

STARTCHAR CODE246
ENCODING 246
SWIDTH 451 0
DWIDTH 32 0
BBX 32 64 0 -6
BITMAP
00000000
00000000
00000000
00000000
00000000
00000000
00000000
00000000
00000000
00000000
00000000
00000000
00000000
00000000
00000000
00000000
00000000
00000000
0001C000
0003E000
0007E000
0007E000
0007E000
0007C000
00038000
00000000
00000000
00000000
00000000
00FFFF80
0FFFFFE0
0FFFFFE0
0FFFFFE0
0F8000E0
00000000
00000000
00000000
00038000
0007C000
000FC000
000FC000
000FC000
000F8000
00070000
00000000
00000000
00000000
00000000
00000000
00000000
00000000
00000000
00000000
00000000
00000000
00000000
00000000
00000000
00000000
00000000
00000000
00000000
00000000
00000000
ENDCHAR

STARTCHAR CODE247
ENCODING 247
SWIDTH 451 0
DWIDTH 32 0
BBX 32 64 0 -6
BITMAP
00000000
00000000
00000000
00000000
00000000
00000000
00000000
00000000
00000000
00000000
00000000
00000000
00000000
00000000
00000000
00000000
00000000
00000000
00000000
00000000
00000000
00000000
00000000
00000000
00000000
001F0000
007FC0E0
007FF1E0
00FFFFE0
00F1FFC0
00E07FC0
00001F00
00000000
001F0000
007FC0E0
007FF1E0
00FFFFE0
00F1FFC0
00E07FC0
00001F00
00000000
00000000
00000000
00000000
00000000
00000000
00000000
00000000
00000000
00000000
00000000
00000000
00000000
00000000
00000000
00000000
00000000
00000000
00000000
00000000
00000000
00000000
00000000
00000000
ENDCHAR

STARTCHAR CODE248
ENCODING 248
SWIDTH 451 0
DWIDTH 32 0
BBX 32 64 0 -6
BITMAP
00000000
00000000
00000000
00F80000
03FE0000
03FF0000
07CF8000
07878000
0F03C000
0F01C000
1E01C000
1E01C000
1C01C000
1C03C000
1E03C000
0F078000
0FFF8000
07FF0000
03FE0000
00000000
00000000
00000000
00000000
00000000
00000000
00000000
00000000
00000000
00000000
00000000
00000000
00000000
00000000
00000000
00000000
00000000
00000000
00000000
00000000
00000000
00000000
00000000
00000000
00000000
00000000
00000000
00000000
00000000
00000000
00000000
00000000
00000000
00000000
00000000
00000000
00000000
00000000
00000000
00000000
00000000
00000000
00000000
00000000
00000000
ENDCHAR

STARTCHAR CODE249
ENCODING 249
SWIDTH 451 0
DWIDTH 32 0
BBX 32 64 0 -6
BITMAP
00000000
00000000
00000000
00000000
00000000
00000000
00000000
00000000
00000000
00000000
00000000
00000000
00000000
00000000
00000000
00000000
00000000
00000000
00000000
00000000
00000000
00000000
0007C000
000FF000
001FF800
003FFC00
003FFC00
007FFE00
007FFE00
00FFFE00
00FFFE00
00FFFE00
00FFFE00
00FFFE00
007FFC00
007FFC00
003FF800
001FF000
0003C000
00000000
00000000
00000000
00000000
00000000
00000000
00000000
00000000
00000000
00000000
00000000
00000000
00000000
00000000
00000000
00000000
00000000
00000000
00000000
00000000
00000000
00000000
00000000
00000000
00000000
ENDCHAR

STARTCHAR CODE250
ENCODING 250
SWIDTH 451 0
DWIDTH 32 0
BBX 32 64 0 -6
BITMAP
00000000
00000000
00000000
00000000
00000000
00000000
00000000
00000000
00000000
00000000
00000000
00000000
00000000
00000000
00000000
00000000
00000000
00000000
00000000
00000000
00000000
00000000
00000000
00000000
0003C000
0007E000
0007F000
000FF800
000FF800
001FF800
003FF800
003FF800
003FF800
003FF800
001FF000
000FE000
00038000
00000000
00000000
00000000
00000000
00000000
00000000
00000000
00000000
00000000
00000000
00000000
00000000
00000000
00000000
00000000
00000000
00000000
00000000
00000000
00000000
00000000
00000000
00000000
00000000
00000000
00000000
00000000
ENDCHAR

STARTCHAR CODE251
ENCODING 251
SWIDTH 451 0
DWIDTH 32 0
BBX 32 64 0 -6
BITMAP
00007FFF
0000FFFF
0000FFFF
0000F000
0000F000
0000F000
0000F000
0000F000
0000F000
0000F000
0000F000
0000F000
0000F000
0000F000
0000F000
0000F000
0000F000
0000F000
0000F000
0000F000
0000F000
0000F000
0000F000
0000F000
0000F000
0000F000
0000F000
0001F000
0001E000
0001E000
0001E000
0001E000
0001E000
0001E000
0001E000
0001E000
0001E000
3C01E000
3C03C000
3E03C000
3E03C000
7F03C000
7F03C000
7703C000
7783C000
7787C000
73C78000
03C78000
01C78000
01E78000
01EF8000
00FF0000
00FF0000
007F0000
007F0000
007E0000
003E0000
003E0000
000C0000
00000000
00000000
00000000
00000000
00000000
ENDCHAR

STARTCHAR CODE252
ENCODING 252
SWIDTH 451 0
DWIDTH 32 0
BBX 32 64 0 -6
BITMAP
00000000
00000000
00000000
00000000
00000700
00070F80
00079F80
000FBF80
000FFF80
000FFF00
001FFF00
001FFE00
001FFE00
003FFC00
003FFC00
003F7C00
003E7800
003E7800
007E7800
007C7800
007C7800
007C7C00
00783C00
00783C00
00003E00
00001E00
00001F00
00000F00
00000000
00000000
00000000
00000000
00000000
00000000
00000000
00000000
00000000
00000000
00000000
00000000
00000000
00000000
00000000
00000000
00000000
00000000
00000000
00000000
00000000
00000000
00000000
00000000
00000000
00000000
00000000
00000000
00000000
00000000
00000000
00000000
00000000
00000000
00000000
00000000
ENDCHAR

STARTCHAR CODE253
ENCODING 253
SWIDTH 451 0
DWIDTH 32 0
BBX 32 64 0 -6
BITMAP
00000000
00000000
00000000
0001F000
0003FC00
000FFE00
001FFF00
003F9F00
003E0F00
003C0F00
00380F00
00001F00
00003E00
00007E00
0000FC00
0001F800
0003F000
0007E000
000FC000
001F8000
001F0000
003E7E00
007FFE00
007FFE00
007FFE00
003F8000
00000000
00000000
00000000
00000000
00000000
00000000
00000000
00000000
00000000
00000000
00000000
00000000
00000000
00000000
00000000
00000000
00000000
00000000
00000000
00000000
00000000
00000000
00000000
00000000
00000000
00000000
00000000
00000000
00000000
00000000
00000000
00000000
00000000
00000000
00000000
00000000
00000000
00000000
ENDCHAR

STARTCHAR CODE254
ENCODING 254
SWIDTH 451 0
DWIDTH 32 0
BBX 32 64 0 -6
BITMAP
00000000
00000000
00000000
00000000
00000000
00000000
00000000
00000000
00000000
00000000
00000000
00FFFF00
00FFFF00
00FFFF00
00FFFF00
00FFFF00
00FFFF00
00FFFF00
00FFFF00
00FFFF00
00FFFF00
00FFFF00
00FFFF00
00FFFF00
00FFFF00
00FFFF00
00FFFF00
00FFFF00
00FFFF00
00FFFF00
00FFFF00
00FFFF00
00FFFF00
00FFFF00
00FFFF00
00FFFF00
00FFFF00
00FFFF00
00FFFF00
00FFFF00
00FFFF00
00FFFF00
00FFFF00
00FFFF00
00FFFF00
00FFFF00
00FFFF00
00FFFF00
00FFFF00
00FFFF00
00FFFF00
00FFFF00
00000000
00000000
00000000
00000000
00000000
00000000
00000000
00000000
00000000
00000000
00000000
00000000
ENDCHAR

STARTCHAR CODE255
ENCODING 255
SWIDTH 451 0
DWIDTH 32 0
BBX 32 64 0 -6
BITMAP
00000000
00000000
00000000
00000000
00000000
00000000
00000000
00000000
00000000
00000000
00000000
00000000
00000000
00000000
00000000
00000000
00000000
00000000
00000000
00000000
00000000
00000000
00000000
00000000
00000000
00000000
00000000
00000000
00000000
00000000
00000000
00000000
00000000
00000000
00000000
00000000
00000000
00000000
00000000
00000000
00000000
00000000
00000000
00000000
00000000
00000000
00000000
00000000
00000000
00000000
00000000
00000000
00000000
00000000
00000000
00000000
00000000
00000000
00000000
00000000
00000000
00000000
00000000
00000000
ENDCHAR
ENDFONT
